<svg width="263" height="201" viewBox="0 0 263 201" fill="none" xmlns="http://www.w3.org/2000/svg">
<path d="M183.019 77.6935C183.403 77.6935 183.531 77.4375 183.787 77.1815C188.395 73.4695 193.259 69.8855 198.507 66.9415C199.403 66.4295 200.427 65.9175 201.451 65.6615C202.475 65.2775 203.499 65.1495 204.523 65.5335C206.187 66.1735 206.827 67.1975 206.443 68.9895C206.187 70.1415 205.803 71.2935 205.291 72.4455C203.755 75.7735 201.835 78.9735 199.915 82.0455C195.563 89.5975 190.955 96.8935 186.859 104.574C182.251 113.022 177.643 121.598 173.803 130.43C173.291 131.454 172.907 132.478 172.651 133.886C173.419 133.502 173.931 132.99 174.315 132.478C177.387 129.534 180.075 126.334 182.891 123.262C195.051 109.694 207.339 96.3815 220.523 83.8375C226.539 77.9495 232.939 72.4455 239.723 67.5815C243.819 64.5095 248.043 61.6935 252.779 59.6455C254.187 59.0055 255.723 58.3655 257.259 58.2375C258.539 57.9815 259.691 58.1095 260.843 58.6215C262.123 59.1335 262.763 60.0295 262.891 61.4375C263.019 62.3335 262.891 63.2295 262.635 64.1255C261.483 68.6055 259.307 72.7015 257.259 76.6695C253.547 84.0935 249.323 91.1335 245.611 98.5575C241.131 107.518 236.779 116.478 232.683 125.694C229.739 132.222 226.923 138.622 224.363 145.406C220.651 155.39 217.323 165.63 214.507 176.126C212.971 181.374 211.563 186.622 210.923 192.126C210.667 193.662 210.411 195.198 210.539 196.734C210.667 197.886 210.923 198.014 211.819 197.374C212.459 196.862 213.099 196.35 213.867 195.838C214.123 195.582 214.507 195.454 214.763 195.71C215.019 195.966 214.891 196.35 214.763 196.606C214.379 197.63 213.739 198.526 212.971 199.294C211.051 200.958 208.363 200.062 207.723 197.63C207.467 196.222 207.467 194.686 207.595 193.278C208.107 188.286 209.131 183.55 210.283 178.686C213.227 167.422 216.683 156.414 220.395 145.406C222.827 138.622 225.643 131.966 228.587 125.31C234.475 112.254 240.747 99.3255 247.787 86.7815C250.731 81.5335 253.675 76.4135 256.491 71.0375C257.771 68.4775 258.923 65.9175 259.691 63.2295C259.819 62.5895 260.075 61.9495 260.075 61.1815C259.947 60.0295 259.563 59.6455 258.411 59.7735C257.259 59.9015 256.107 60.2855 255.083 60.6695C251.115 62.3335 247.403 64.6375 243.819 66.9415C233.963 73.5975 225.131 81.4055 216.683 89.5975C206.059 100.094 195.947 110.974 186.091 122.11C182.763 125.95 179.563 129.918 176.107 133.63C175.211 134.526 174.443 135.422 173.419 136.062C172.779 136.574 172.267 136.83 171.499 136.702C170.091 136.574 169.323 135.934 169.451 134.398C169.451 133.118 169.835 131.966 170.347 130.686C171.371 127.486 172.779 124.414 174.187 121.342C179.947 108.926 186.603 97.0215 193.899 85.5015C196.715 80.8935 199.659 76.2855 202.091 71.4215C202.603 70.5255 202.987 69.6295 203.243 68.6055C203.371 68.2215 203.627 67.7095 203.243 67.3255C202.859 67.0695 202.475 67.4535 202.091 67.5815C200.171 68.2215 198.379 69.3735 196.715 70.3975C191.083 73.9815 185.835 78.0775 180.715 82.4295C180.203 82.9415 179.819 83.3255 179.435 83.9655C173.803 93.4375 167.403 102.526 160.747 111.358C152.811 121.982 144.363 132.35 135.659 142.462C127.211 152.19 118.507 161.79 109.419 170.878C108.267 172.03 107.115 173.182 105.835 174.078C105.067 174.59 104.171 174.974 103.147 174.59C102.379 174.206 102.123 173.822 102.379 172.926C102.507 172.286 102.891 171.774 103.147 171.134C106.091 165.374 109.931 159.998 113.643 154.622C120.171 145.278 127.211 136.19 134.379 127.358C142.443 117.502 151.019 108.03 159.979 98.9415C164.331 94.4615 168.811 90.2375 173.547 86.0135C173.931 85.6295 174.443 85.2455 174.699 84.7335C177.515 80.1255 180.203 75.5175 181.995 70.5255C183.019 67.9655 183.787 65.2775 183.659 62.5895C183.403 59.1335 182.123 56.1895 177.003 55.2935C173.675 54.5255 170.219 54.7815 166.891 55.2935C155.755 57.2135 145.643 61.3095 136.555 67.9655C134.507 69.3735 132.587 70.9095 130.923 72.7015C129.899 73.5975 129.131 74.7495 128.363 75.7735C128.107 76.4135 127.723 76.9255 127.595 77.5655C127.339 78.8455 127.367 79.2375 128.647 78.9815C129.147 79.4815 129.391 78.9815 129.647 78.9815C129.775 78.9815 130.019 79.3535 130.147 79.4815C130.275 79.8655 130.275 79.8535 130.147 79.9815C129.123 81.0055 127.595 80.6375 126.443 80.1255C125.291 79.6135 124.779 78.5895 125.035 77.1815C125.163 76.1575 125.547 75.2615 126.059 74.4935C127.595 71.9335 129.643 70.0135 131.947 68.0935C136.811 64.2535 142.059 61.0535 147.819 58.6215C154.475 55.6775 161.259 53.7575 168.427 53.1175C172.523 52.7335 176.363 52.8615 180.203 54.2695C181.483 54.6535 182.635 55.2935 183.659 56.0615C185.451 57.3415 186.475 59.0055 186.859 61.0535C187.627 63.9975 187.115 66.9415 186.219 69.8855C185.451 72.3175 184.427 74.6215 183.275 76.7975C183.147 77.0535 182.891 77.3095 183.019 77.6935ZM169.707 92.5415C169.579 92.5415 169.579 92.4135 169.451 92.4135C169.195 92.6695 168.939 92.7975 168.683 93.0535C163.819 97.6615 159.083 102.398 154.475 107.262C148.587 113.406 142.955 119.806 137.451 126.334C129.131 136.574 121.067 146.942 113.771 157.822C111.211 161.534 108.779 165.374 106.603 169.342C106.347 169.598 106.091 169.982 106.091 170.494C110.571 166.654 135.531 138.11 146.283 124.542C154.475 114.174 162.411 103.678 169.707 92.5415Z" fill="white"/>
<path d="M114.731 69.1655C119.595 69.1655 124.587 69.2935 129.451 69.9335C131.243 70.1895 132.907 70.5735 134.571 71.4695C135.211 71.7255 135.723 72.1095 136.107 72.6215C136.491 73.3895 136.363 73.9015 135.595 74.2855C134.827 74.7975 135.338 74.2855 134.647 73.9815C134.647 73.4815 133.291 72.4935 132.523 72.3655C130.987 71.8535 129.323 71.7255 127.659 71.5975C123.307 71.2135 118.955 71.2135 114.603 71.2135C112.683 71.2135 110.635 71.3415 108.715 71.3415C107.819 71.3415 107.179 71.5975 106.795 72.3655C102.059 79.4055 96.6827 86.0615 91.1787 92.4615C89.6427 94.3815 87.9787 96.1735 86.1867 97.9655C81.5787 102.958 76.8427 107.694 71.7227 112.174C66.6027 116.782 61.3547 121.262 55.7227 125.486C51.1147 128.942 46.3787 132.142 41.2587 134.83C39.0827 135.982 36.9067 137.006 34.4747 137.518C33.1947 137.774 31.9147 137.774 30.7627 137.39C28.9707 136.878 27.9467 135.47 27.8187 133.55C27.8187 132.014 28.3307 130.35 28.8427 128.814C29.6107 126.51 30.7627 124.334 31.9147 122.158C34.4747 117.294 37.2907 112.558 39.9787 107.694C42.5387 103.086 44.8427 98.3495 46.5067 93.2295C47.7867 89.1335 48.0427 85.0375 47.0187 80.9415C46.7627 79.6615 46.2507 78.5095 45.6107 77.3575C44.9707 76.3335 44.0747 75.8215 42.7947 76.0775C40.8747 76.3335 38.9547 76.4615 37.1627 76.7175C31.2747 77.3575 25.5147 77.9975 19.7547 78.6375C15.5307 79.1495 11.3067 79.6615 6.95467 80.0455C5.67467 80.0455 4.39467 80.1735 2.98667 79.9175C2.34667 79.7895 1.70667 79.5335 1.06667 79.1495C-0.213333 78.3815 -0.341333 77.4855 0.682667 76.3335C1.19467 75.8215 1.83467 75.4375 2.47467 75.0535C5.54667 73.2615 8.87467 72.1095 12.2027 70.9575C17.8347 69.2935 23.4667 68.0135 29.3547 68.2695C34.4747 68.3975 39.3387 69.6775 43.5627 72.7495C44.0747 73.2615 44.5867 73.3895 45.3547 73.2615C49.3227 72.8775 53.2907 72.4935 57.3867 72.1095C60.3307 71.8535 63.2747 71.5975 66.2187 71.4695C69.9307 71.2135 73.7707 70.9575 77.4827 70.5735C79.1467 70.5735 80.8107 70.4455 82.4747 70.3175C87.3387 70.0615 92.2027 69.6775 97.0667 69.6775C99.1147 69.5495 101.035 69.2935 102.955 69.4215C103.851 69.4215 104.363 68.9095 104.747 68.2695C106.923 64.9415 109.099 61.4855 111.147 58.0295C115.371 50.7335 118.955 43.0535 121.771 34.9895C123.947 28.9735 125.227 22.7015 124.971 16.1735C124.843 13.4855 124.331 10.9255 123.179 8.49353C121.899 5.67754 119.723 3.75753 116.523 3.11753C113.579 2.34953 110.507 2.34953 107.435 2.60553C97.1947 3.75753 87.5947 7.08554 78.1227 11.1815C72.2347 13.7415 66.7307 16.9415 61.6107 20.7815C58.2827 23.0855 55.3387 25.7735 52.7787 28.8455C51.3707 30.5095 50.2187 32.1735 49.7067 34.0935C49.0667 36.3975 49.8347 37.6775 52.1387 38.0615C52.9067 38.1895 53.8027 38.3175 54.5707 38.4455C54.8267 38.5735 55.0827 38.7015 54.9547 38.9575C54.9547 39.2135 54.8267 39.2135 54.5707 39.3415C52.2667 39.9815 48.8107 38.7015 47.5307 36.7815C46.8907 35.7575 46.6347 34.7335 46.8907 33.5815C47.2747 31.4055 48.2987 29.6135 49.5787 27.9495C52.2667 24.2375 55.5947 21.2935 59.3067 18.6055C64.8107 14.3815 70.9547 11.0535 77.4827 8.23754C85.2907 4.90953 93.3547 2.22154 101.675 0.813532C106.283 -0.0824646 110.891 -0.338469 115.371 0.557535C118.315 1.19753 121.131 2.34953 123.563 4.39753C126.635 7.08553 128.043 10.6695 128.555 14.6375C129.323 19.6295 128.811 24.4935 127.659 29.3575C126.251 35.5015 123.947 41.3895 121.259 47.1495C118.059 54.1895 114.219 60.9735 109.995 67.5015C109.867 67.6295 109.867 67.7575 109.739 67.8855C109.099 68.9095 109.227 69.1655 110.379 69.1655C111.787 69.1655 113.323 69.1655 114.731 69.1655ZM46.6347 75.6935C46.7627 76.0775 46.7627 76.2055 46.7627 76.3335C46.7627 76.4615 46.8907 76.5895 47.0187 76.7175C49.1947 80.1735 49.7067 84.1415 49.1947 88.2375C48.8107 91.4375 47.6587 94.5095 46.5067 97.4535C43.6907 103.982 39.9787 110.126 36.5227 116.398C34.4747 120.238 32.2987 124.078 30.7627 128.302C29.9947 130.094 29.4827 132.014 29.7387 134.062C29.8667 135.598 30.3787 136.11 31.9147 136.11C32.6827 136.11 33.3227 135.982 33.9627 135.726C35.4987 135.342 36.9067 134.702 38.3147 133.934C41.6427 132.142 44.8427 130.094 47.9147 127.918C57.1307 121.262 65.7067 113.582 73.8987 105.646C77.7387 102.062 81.3227 98.0935 84.9067 94.1255C90.9227 87.3415 96.5547 80.1735 101.803 72.6215C101.931 72.3655 102.315 72.1095 102.059 71.5975C83.6267 72.4935 65.1947 73.6455 46.6347 75.6935ZM41.6427 73.7735C41.6427 73.3895 41.6427 73.2615 41.5147 73.2615C41.2587 73.0055 41.0027 72.7495 40.6187 72.6215C38.1867 71.2135 35.4987 70.3175 32.5547 70.0615C26.7947 69.6775 21.1627 70.7015 15.6587 72.3655C12.0747 73.5175 8.61867 74.6695 5.29067 76.5895C4.65067 76.8455 4.13867 77.2295 3.49867 77.9975C16.4267 76.8455 28.9707 75.0535 41.6427 73.7735Z" fill="white"/>
<path d="M126.147 78.4739C126.202 78.5865 126.455 78.9994 126.839 79.3607C127.209 79.7103 127.948 79.8352 128.801 79.9493C130.382 80.1605 131.335 79.6036 132.223 79.2009C132.931 78.8798 133.372 78.5528 134.228 77.711C134.948 77.0029 135.505 76.1009 135.647 75.4815C135.954 74.1373 135.364 73.3819 135.147 72.9815M135.147 72.9815C135.076 72.8829 135.365 73.2761 135.147 72.9815Z" stroke="white" stroke-width="2" stroke-linecap="round"/>
</svg>
