<svg xmlns="http://www.w3.org/2000/svg" xmlns:xlink="http://www.w3.org/1999/xlink" width="85" zoomAndPan="magnify" viewBox="0 0 63.75 48.75" height="65" preserveAspectRatio="xMidYMid meet" version="1.0"><defs><clipPath id="3d694b35ac"><path d="M 2.464844 0.894531 L 61.410156 0.894531 L 61.410156 47.902344 L 2.464844 47.902344 Z M 2.464844 0.894531 " clip-rule="nonzero"/></clipPath></defs><g clip-path="url(#3d694b35ac)"><path fill="#4b4e40" d="M 10.675781 18.054688 C 10.429688 18.527344 10.191406 19.003906 10.136719 19.605469 C 10.453125 19.152344 10.4375 18.589844 10.847656 18.21875 C 11.988281 19.082031 13.332031 19.175781 14.65625 19.316406 C 15.503906 19.40625 16.355469 19.429688 17.203125 19.484375 C 17.269531 19.488281 17.332031 19.53125 17.421875 19.5625 C 17.550781 20.441406 17.675781 21.316406 17.808594 22.1875 C 17.972656 23.222656 18.097656 24.257812 18.089844 25.308594 C 18.089844 25.488281 18.097656 25.671875 18.101562 25.851562 C 18.160156 27.71875 18.117188 29.582031 17.917969 31.4375 C 17.863281 31.921875 17.800781 32.40625 17.773438 32.894531 C 17.757812 33.152344 17.746094 33.433594 18.015625 33.605469 C 18.40625 33.398438 18.433594 33.027344 18.460938 32.699219 C 18.539062 31.78125 18.613281 30.859375 18.613281 29.941406 C 18.609375 28.238281 18.546875 26.535156 18.511719 24.832031 C 18.484375 23.476562 18.214844 22.152344 17.933594 20.832031 C 17.839844 20.402344 17.730469 19.972656 17.628906 19.527344 C 17.75 19.503906 17.820312 19.480469 17.890625 19.476562 C 19.484375 19.425781 21.078125 19.378906 22.671875 19.320312 C 22.898438 19.3125 23.125 19.25 23.355469 19.214844 C 22.570312 19.0625 21.800781 18.964844 21.027344 18.929688 C 18.785156 18.832031 16.535156 19.011719 14.296875 18.679688 C 13.40625 18.546875 12.503906 18.484375 11.660156 18.136719 C 10.992188 17.859375 10.734375 17.40625 10.9375 16.722656 C 11.050781 16.363281 11.25 16.027344 11.382812 15.738281 C 11.773438 15.886719 12.078125 16.0625 12.402344 16.117188 C 13.148438 16.25 13.898438 16.351562 14.652344 16.414062 C 15.503906 16.488281 16.355469 16.5 17.207031 16.542969 C 18.382812 16.597656 19.558594 16.699219 20.738281 16.699219 C 23.351562 16.707031 25.964844 16.671875 28.578125 16.636719 C 29.992188 16.617188 31.40625 16.5625 32.820312 16.523438 C 32.859375 16.523438 32.894531 16.515625 32.929688 16.511719 C 34.667969 16.445312 36.40625 16.382812 38.144531 16.3125 C 39.15625 16.269531 40.167969 16.210938 41.179688 16.15625 C 41.542969 16.136719 41.902344 16.121094 42.261719 16.082031 C 43.335938 15.976562 44.40625 15.855469 45.480469 15.746094 C 45.734375 15.722656 45.992188 15.75 46.242188 15.71875 C 47.441406 15.554688 48.644531 15.417969 49.859375 15.4375 C 50.691406 15.449219 51.527344 15.421875 52.328125 15.15625 C 52.59375 15.066406 52.804688 15.152344 52.960938 15.339844 C 53.121094 15.527344 53.253906 15.75 53.367188 15.972656 C 53.582031 16.378906 53.484375 16.769531 53.117188 17.042969 C 53.003906 17.128906 52.878906 17.21875 52.742188 17.257812 C 51.894531 17.496094 51.050781 17.761719 50.1875 17.933594 C 49.464844 18.078125 48.71875 18.105469 47.980469 18.183594 C 47.101562 18.277344 46.226562 18.382812 45.34375 18.453125 C 44.242188 18.539062 43.140625 18.585938 42.039062 18.660156 C 41.429688 18.703125 40.820312 18.773438 40.207031 18.8125 C 39.59375 18.851562 38.976562 18.871094 38.359375 18.890625 C 36.347656 18.941406 34.335938 18.984375 32.324219 19.035156 C 31.34375 19.058594 30.363281 19.0625 29.382812 19.121094 C 28.429688 19.171875 27.476562 19.277344 26.527344 19.371094 C 26.242188 19.398438 25.957031 19.457031 25.675781 19.5 C 25.738281 19.628906 25.796875 19.675781 25.859375 19.679688 C 27.175781 19.757812 28.496094 19.894531 29.8125 19.894531 C 31.953125 19.894531 34.09375 19.808594 36.230469 19.757812 C 36.320312 19.753906 36.410156 19.738281 36.5 19.726562 C 37.164062 19.664062 37.824219 19.589844 38.488281 19.546875 C 39.789062 19.464844 41.09375 19.398438 42.394531 19.332031 C 42.683594 19.316406 42.976562 19.339844 43.265625 19.3125 C 44.046875 19.242188 44.828125 19.152344 45.671875 19.0625 C 45.382812 20.207031 45.078125 21.277344 44.851562 22.367188 C 44.671875 23.246094 44.578125 24.148438 44.464844 25.042969 C 44.402344 25.542969 44.347656 26.046875 44.335938 26.550781 C 44.308594 27.890625 44.289062 29.234375 44.300781 30.574219 C 44.308594 31.078125 44.390625 31.582031 44.46875 32.078125 C 44.554688 32.628906 44.675781 33.175781 45.144531 33.714844 C 45.160156 33.484375 45.164062 33.363281 45.175781 33.242188 C 45.265625 32.296875 45.023438 31.371094 44.96875 30.433594 C 44.953125 30.148438 44.945312 29.855469 44.914062 29.570312 C 44.886719 29.347656 44.796875 29.128906 44.777344 28.902344 C 44.6875 27.660156 44.859375 26.425781 44.972656 25.191406 C 45 24.9375 44.980469 24.679688 45.015625 24.429688 C 45.097656 23.84375 45.21875 23.261719 45.28125 22.671875 C 45.394531 21.558594 45.628906 20.472656 45.933594 19.398438 C 46 19.148438 46.136719 19.023438 46.382812 19.007812 C 46.582031 18.996094 46.789062 19.03125 46.980469 18.984375 C 47.820312 18.773438 48.6875 18.808594 49.535156 18.621094 C 50.539062 18.402344 51.570312 18.292969 52.523438 17.894531 C 52.917969 17.734375 53.308594 17.488281 53.597656 17.1875 C 54.222656 16.53125 53.890625 15.683594 53.40625 15.328125 C 53.140625 15.128906 52.988281 14.914062 53.0625 14.5625 C 53.109375 14.339844 53.148438 14.097656 53.109375 13.878906 C 53.003906 13.296875 52.867188 12.714844 52.714844 12.144531 C 52.472656 11.261719 52.199219 10.386719 51.953125 9.507812 C 51.613281 8.28125 51.082031 7.140625 50.457031 6.03125 C 50.039062 5.296875 49.359375 4.738281 49.070312 3.921875 C 49.03125 3.808594 48.90625 3.730469 48.824219 3.632812 C 48.320312 3.058594 47.59375 2.785156 46.9375 2.507812 C 45.960938 2.085938 44.898438 1.820312 43.847656 1.625 C 42.75 1.425781 41.625 1.378906 40.511719 1.273438 C 40.222656 1.246094 39.929688 1.253906 39.640625 1.226562 C 38.652344 1.140625 37.664062 0.976562 36.671875 0.964844 C 33.972656 0.929688 31.269531 0.835938 28.566406 1.050781 C 27.429688 1.140625 26.292969 1.210938 25.152344 1.234375 C 23.703125 1.261719 22.292969 1.542969 20.890625 1.859375 C 19.878906 2.089844 18.886719 2.425781 17.894531 2.746094 C 17.347656 2.925781 16.777344 3.097656 16.296875 3.398438 C 15.691406 3.777344 15.171875 4.296875 14.605469 4.742188 C 13.554688 5.570312 12.902344 6.695312 12.417969 7.898438 C 12.023438 8.878906 11.761719 9.917969 11.496094 10.945312 C 11.304688 11.675781 11.175781 12.425781 11.070312 13.175781 C 10.976562 13.851562 10.863281 14.550781 10.933594 15.222656 C 10.980469 15.675781 10.894531 16.035156 10.703125 16.390625 C 10.40625 16.945312 10.394531 17.488281 10.675781 18.054688 Z M 12.09375 12.6875 C 12.277344 11.589844 12.535156 10.507812 12.820312 9.433594 C 13.109375 8.359375 13.546875 7.363281 14.101562 6.40625 C 14.378906 5.929688 14.789062 5.578125 15.164062 5.199219 C 15.945312 4.410156 16.867188 3.808594 17.867188 3.355469 C 18.4375 3.097656 19.0625 2.933594 19.675781 2.792969 C 21.027344 2.488281 22.378906 2.195312 23.742188 1.960938 C 24.59375 1.816406 25.46875 1.808594 26.328125 1.710938 C 27.867188 1.539062 29.40625 1.539062 30.945312 1.574219 C 32.320312 1.605469 33.695312 1.703125 35.070312 1.773438 C 35.957031 1.820312 36.84375 1.859375 37.726562 1.9375 C 38.480469 2 39.226562 2.121094 39.980469 2.207031 C 40.699219 2.289062 41.425781 2.320312 42.136719 2.445312 C 43.410156 2.667969 44.710938 2.816406 45.921875 3.285156 C 46.636719 3.5625 47.277344 4.023438 47.96875 4.367188 C 49.210938 4.984375 49.644531 6.199219 50.140625 7.34375 C 50.574219 8.347656 50.933594 9.386719 51.160156 10.46875 C 51.414062 11.664062 51.675781 12.859375 51.933594 14.058594 C 51.957031 14.160156 51.957031 14.269531 51.976562 14.453125 C 51.53125 14.453125 51.152344 14.464844 50.777344 14.449219 C 49.46875 14.394531 48.175781 14.542969 46.886719 14.730469 C 46.617188 14.769531 46.339844 14.75 46.070312 14.777344 C 45.140625 14.878906 44.210938 14.996094 43.28125 15.097656 C 42.960938 15.132812 42.632812 15.152344 42.308594 15.171875 C 41.460938 15.226562 40.609375 15.277344 39.761719 15.332031 C 39.167969 15.371094 38.570312 15.417969 37.976562 15.457031 C 36.894531 15.527344 35.808594 15.59375 34.726562 15.65625 C 33.679688 15.71875 32.632812 15.78125 31.582031 15.832031 C 30.5 15.886719 29.417969 15.933594 28.332031 15.984375 C 27.175781 16.039062 26.015625 16.097656 24.859375 16.152344 C 24.695312 16.160156 24.53125 16.167969 24.367188 16.167969 C 22.117188 16.167969 19.863281 16.179688 17.613281 16.160156 C 16.855469 16.15625 16.09375 16.078125 15.335938 16.015625 C 14.53125 15.945312 13.722656 15.875 12.921875 15.757812 C 12.492188 15.691406 12.011719 15.722656 11.726562 15.40625 C 11.851562 14.464844 11.941406 13.570312 12.09375 12.6875 Z M 12.953125 40.46875 C 15.113281 40.238281 17.265625 40.382812 19.316406 39.691406 C 18.785156 39.589844 18.253906 39.515625 17.722656 39.507812 C 16.851562 39.488281 15.980469 39.488281 15.109375 39.527344 C 14.261719 39.566406 13.417969 39.707031 12.574219 39.726562 C 11.183594 39.757812 9.796875 39.703125 8.40625 39.542969 C 7.304688 39.414062 6.21875 39.242188 5.164062 38.933594 C 4.5 38.734375 3.851562 38.40625 3.28125 38.007812 C 2.746094 37.636719 2.472656 36.890625 3.367188 36.410156 C 3.527344 36.324219 3.691406 36.253906 3.855469 36.179688 C 4.160156 36.039062 4.441406 36.074219 4.722656 36.257812 C 4.933594 36.398438 5.160156 36.507812 5.390625 36.613281 C 6.285156 37.035156 7.257812 37.160156 8.21875 37.28125 C 9.523438 37.449219 10.84375 37.566406 12.160156 37.613281 C 13.644531 37.664062 15.132812 37.679688 16.613281 37.511719 C 16.914062 37.480469 17.191406 37.371094 17.4375 37.144531 C 16.9375 36.726562 16.394531 36.625 15.800781 36.710938 C 15.585938 36.742188 15.371094 36.78125 15.152344 36.789062 C 14.410156 36.828125 13.667969 36.855469 12.925781 36.878906 C 12.636719 36.886719 12.34375 36.882812 12.054688 36.871094 C 10.972656 36.8125 9.890625 36.734375 8.804688 36.6875 C 7.628906 36.636719 6.46875 36.515625 5.339844 36.148438 C 4.980469 36.03125 4.816406 35.816406 4.722656 35.480469 C 4.335938 34.136719 4.167969 32.753906 4.113281 31.371094 C 4.066406 30.238281 4.035156 29.09375 4.179688 27.953125 C 4.273438 27.234375 4.363281 26.523438 4.554688 25.832031 C 4.75 25.132812 5.019531 24.453125 5.46875 23.882812 C 6.140625 23.03125 7.042969 22.496094 8.085938 22.25 C 8.960938 22.042969 9.851562 22.101562 10.703125 22.441406 C 11.21875 22.648438 11.730469 22.878906 12.246094 23.089844 C 12.351562 23.132812 12.472656 23.128906 12.585938 23.144531 C 12.601562 23.0625 12.613281 23.027344 12.613281 22.992188 C 12.613281 22.957031 12.605469 22.921875 12.585938 22.886719 C 12.101562 21.945312 11.339844 21.382812 10.289062 21.210938 C 9.882812 21.144531 9.882812 21.136719 9.875 20.675781 C 9.851562 20.824219 9.824219 20.976562 9.796875 21.136719 C 9.710938 21.152344 9.640625 21.179688 9.570312 21.171875 C 8.503906 21.066406 7.503906 21.261719 6.554688 21.785156 C 5.804688 22.199219 5.246094 22.800781 4.785156 23.496094 C 4.332031 24.179688 4.105469 24.972656 3.890625 25.75 C 3.621094 26.722656 3.550781 27.738281 3.53125 28.75 C 3.507812 29.816406 3.574219 30.875 3.683594 31.941406 C 3.777344 32.878906 3.953125 33.785156 4.195312 34.695312 C 4.296875 35.074219 4.535156 35.46875 4.347656 35.847656 C 4.03125 35.941406 3.75 36.003906 3.484375 36.109375 C 2.976562 36.308594 2.539062 36.613281 2.472656 37.199219 C 2.410156 37.746094 2.699219 38.148438 3.113281 38.5 C 3.550781 38.871094 4.042969 39.113281 4.578125 39.296875 C 4.828125 39.382812 5.066406 39.503906 5.324219 39.613281 C 5.289062 39.769531 5.246094 39.890625 5.238281 40.007812 C 5.164062 41.128906 5.105469 42.238281 5.328125 43.355469 C 5.601562 44.734375 6.210938 45.898438 7.277344 46.820312 C 8.289062 47.699219 9.441406 47.738281 10.640625 47.335938 C 11.601562 47.011719 12.25 46.257812 12.695312 45.414062 C 13.332031 44.203125 13.453125 42.867188 13.15625 41.511719 C 13.085938 41.183594 13.027344 40.855469 12.953125 40.46875 Z M 11.695312 45.417969 C 11.085938 46.148438 10.316406 46.632812 9.367188 46.769531 C 8.625 46.875 7.988281 46.558594 7.441406 46.082031 C 6.875 45.59375 6.46875 44.992188 6.164062 44.300781 C 5.839844 43.566406 5.664062 42.824219 5.589844 42.019531 C 5.519531 41.273438 5.476562 40.554688 5.667969 39.789062 C 6.5625 39.9375 7.441406 40.109375 8.328125 40.222656 C 9.21875 40.335938 10.113281 40.394531 11.011719 40.480469 C 11.019531 40.566406 11.042969 40.625 11.023438 40.667969 C 10.585938 41.535156 10.699219 42.472656 10.738281 43.386719 C 10.753906 43.761719 10.945312 44.144531 11.121094 44.496094 C 11.269531 44.789062 11.5625 44.910156 11.933594 44.789062 C 11.945312 44.828125 11.960938 44.867188 11.972656 44.90625 C 11.882812 45.078125 11.816406 45.269531 11.695312 45.417969 Z M 60.734375 36.933594 C 60.378906 36.464844 59.867188 36.320312 59.320312 36.203125 C 59.257812 36.070312 59.195312 35.925781 59.171875 35.875 C 59.386719 35.351562 59.589844 34.910156 59.746094 34.453125 C 59.855469 34.132812 59.910156 33.789062 59.96875 33.453125 C 60.09375 32.75 60.277344 32.042969 60.304688 31.332031 C 60.375 29.726562 60.382812 28.125 59.9375 26.542969 C 59.507812 25.003906 58.855469 23.636719 57.511719 22.703125 C 57.132812 22.441406 56.703125 22.242188 56.273438 22.0625 C 55.453125 21.71875 54.578125 21.699219 53.710938 21.769531 C 52.902344 21.835938 52.125 22.09375 51.402344 22.480469 C 51.230469 22.570312 51.0625 22.714844 51.035156 23.015625 C 51.226562 22.933594 51.359375 22.882812 51.484375 22.824219 C 52.230469 22.492188 53 22.242188 53.824219 22.195312 C 54.746094 22.144531 55.613281 22.316406 56.453125 22.714844 C 57.257812 23.097656 57.917969 23.648438 58.382812 24.386719 C 59.191406 25.664062 59.519531 27.113281 59.59375 28.597656 C 59.675781 30.253906 59.566406 31.90625 59.105469 33.519531 C 58.875 34.332031 58.664062 35.164062 58.722656 36.027344 C 58.726562 36.078125 58.6875 36.128906 58.652344 36.230469 C 58.378906 36.292969 58.089844 36.402344 57.789062 36.429688 C 56.796875 36.519531 55.804688 36.628906 54.8125 36.636719 C 53.070312 36.652344 51.328125 36.597656 49.585938 36.574219 C 49.496094 36.570312 49.40625 36.558594 49.316406 36.542969 C 48.339844 36.339844 47.390625 36.519531 46.4375 36.710938 C 46.433594 36.75 46.425781 36.789062 46.417969 36.824219 C 46.527344 36.875 46.632812 36.945312 46.75 36.972656 C 47.738281 37.234375 48.753906 37.257812 49.765625 37.289062 C 51.992188 37.355469 54.222656 37.304688 56.445312 37.109375 C 57.246094 37.039062 58.085938 37.039062 58.792969 36.570312 C 59.257812 36.257812 59.613281 36.488281 59.976562 36.726562 C 60.136719 36.832031 60.273438 36.984375 60.40625 37.132812 C 60.832031 37.597656 60.769531 38.070312 60.292969 38.492188 C 59.65625 39.050781 58.867188 39.25 58.09375 39.480469 C 56.757812 39.875 55.378906 40.039062 54 40.160156 C 52.898438 40.253906 51.792969 40.332031 50.691406 40.34375 C 49.441406 40.355469 48.191406 40.285156 46.941406 40.253906 C 46.8125 40.25 46.6875 40.246094 46.558594 40.253906 C 45.964844 40.296875 45.367188 40.339844 44.773438 40.386719 C 44.660156 40.394531 44.546875 40.410156 44.378906 40.425781 C 44.472656 40.539062 44.507812 40.628906 44.558594 40.640625 C 45.15625 40.769531 45.753906 40.949219 46.359375 40.988281 C 47.335938 41.054688 48.316406 41.027344 49.296875 41.042969 C 49.488281 41.046875 49.679688 41.0625 49.859375 41.074219 C 49.878906 41.457031 49.886719 41.777344 49.910156 42.101562 C 49.980469 43.261719 50.175781 44.359375 50.839844 45.378906 C 51.59375 46.546875 52.636719 47.144531 53.964844 47.195312 C 55.160156 47.238281 56.265625 46.933594 57.199219 46.074219 C 57.742188 45.578125 58.132812 45.003906 58.417969 44.371094 C 58.761719 43.613281 58.835938 42.773438 58.90625 41.945312 C 58.964844 41.25 58.789062 40.59375 58.496094 39.9375 C 58.65625 39.867188 58.785156 39.8125 58.910156 39.75 C 59.390625 39.503906 59.886719 39.285156 60.34375 39.003906 C 61.085938 38.546875 61.257812 37.632812 60.734375 36.933594 Z M 57.964844 42.96875 C 57.789062 43.992188 57.292969 44.875 56.519531 45.566406 C 56.214844 45.835938 55.820312 46.023438 55.441406 46.179688 C 54.875 46.417969 54.28125 46.542969 53.652344 46.496094 C 52.78125 46.429688 52.082031 46.027344 51.460938 45.457031 C 51.398438 45.402344 51.378906 45.300781 51.332031 45.199219 C 52.089844 44.878906 52.21875 44.210938 52.296875 43.511719 C 52.351562 42.996094 52.429688 42.484375 52.296875 41.960938 C 52.214844 41.632812 52.183594 41.292969 52.125 40.953125 C 53.183594 40.839844 54.242188 40.769531 55.292969 40.609375 C 56.3125 40.453125 57.320312 40.210938 58.316406 40.011719 C 58.359375 40.089844 58.394531 40.128906 58.386719 40.152344 C 58.109375 41.070312 58.125 42.035156 57.964844 42.96875 Z M 38.179688 39.476562 C 38.285156 38.808594 37.929688 38.203125 37.300781 37.972656 C 37.101562 37.902344 36.894531 37.867188 36.671875 37.808594 C 36.671875 37.621094 36.679688 37.457031 36.671875 37.292969 C 36.644531 36.824219 36.4375 36.597656 35.964844 36.582031 C 35.503906 36.5625 35.066406 36.644531 34.71875 36.992188 C 34.621094 37.089844 34.503906 37.167969 34.390625 37.261719 C 33.804688 36.308594 33.347656 36.117188 32.53125 36.453125 C 31.984375 36.683594 31.742188 37.238281 31.910156 37.996094 C 32.054688 37.78125 32.195312 37.621094 32.277344 37.433594 C 32.410156 37.140625 32.664062 37.003906 32.933594 36.90625 C 33.496094 36.699219 33.914062 37.09375 33.832031 37.6875 C 33.789062 38.027344 33.617188 38.25 33.371094 38.449219 C 33.222656 38.570312 33.074219 38.691406 32.820312 38.898438 C 33.03125 39.046875 33.1875 39.140625 33.324219 39.257812 C 33.597656 39.496094 33.664062 39.808594 33.566406 40.144531 C 33.5 40.367188 33.386719 40.574219 33.292969 40.789062 C 33.148438 41.113281 32.890625 41.300781 32.539062 41.328125 C 32.171875 41.359375 31.953125 41.105469 31.828125 40.824219 C 31.613281 40.339844 31.210938 40.355469 30.886719 40.625 C 30.691406 40.785156 30.488281 40.945312 30.269531 41.0625 C 29.9375 41.234375 29.617188 41.101562 29.449219 40.773438 C 29.28125 40.445312 29.347656 40.15625 29.5625 39.875 C 29.949219 39.375 29.992188 38.832031 29.375 38.515625 C 29.34375 38.5 29.316406 38.472656 29.292969 38.449219 C 28.894531 38.027344 28.882812 37.820312 29.273438 37.4375 C 29.605469 37.105469 30.058594 36.976562 30.566406 37.082031 C 31.152344 37.207031 31.324219 37.636719 31.472656 38.113281 C 30.84375 38.730469 30.789062 39.273438 31.664062 39.699219 C 31.808594 39.542969 32 39.394531 32.121094 39.203125 C 32.328125 38.878906 32.253906 38.417969 31.964844 38.304688 C 31.703125 38.199219 31.644531 38.03125 31.570312 37.785156 C 31.167969 36.429688 29.6875 36.355469 28.917969 37.175781 C 28.808594 37.292969 28.691406 37.394531 28.617188 37.46875 C 28.320312 37.257812 28.085938 37.019531 27.796875 36.898438 C 26.855469 36.507812 26.21875 37.117188 26.292969 37.820312 C 26.308594 37.933594 26.261719 38.054688 26.246094 38.175781 C 25.675781 38.058594 25.042969 38.164062 24.714844 38.4375 C 24.214844 38.84375 24.15625 39.414062 24.214844 40.09375 C 23.898438 40.027344 23.628906 40.007812 23.390625 39.914062 C 22.082031 39.386719 20.894531 38.652344 19.789062 37.777344 L 19.789062 37.773438 C 19.789062 37.777344 19.785156 37.777344 19.785156 37.777344 C 19.785156 37.777344 19.785156 37.78125 19.789062 37.78125 C 19.726562 37.925781 19.753906 38.039062 19.886719 38.148438 C 20.132812 38.359375 20.347656 38.617188 20.613281 38.792969 C 21.152344 39.152344 21.710938 39.492188 22.277344 39.804688 C 22.898438 40.140625 23.570312 40.257812 24.1875 40.152344 C 24.507812 40.484375 24.773438 40.765625 25.066406 41.070312 C 25.066406 41.25 25.054688 41.484375 25.070312 41.71875 C 25.101562 42.113281 25.34375 42.40625 25.6875 42.445312 C 26.085938 42.488281 26.480469 42.488281 26.832031 42.230469 C 26.976562 42.128906 27.136719 42.054688 27.261719 41.980469 C 27.523438 42.1875 27.753906 42.359375 27.976562 42.542969 C 28.140625 42.675781 28.28125 42.660156 28.460938 42.546875 C 28.683594 42.40625 28.859375 42.242188 28.953125 42 C 29.027344 41.804688 29.09375 41.609375 29.179688 41.371094 C 30.039062 42.191406 30.671875 41.621094 31.316406 41.011719 C 31.792969 41.699219 32.3125 42.21875 33.183594 41.75 C 33.28125 41.875 33.351562 41.976562 33.4375 42.066406 C 33.792969 42.433594 34.183594 42.816406 34.726562 42.75 C 35.234375 42.6875 35.695312 42.703125 36.199219 42.832031 C 36.976562 43.023438 37.503906 42.523438 37.871094 41.902344 C 38.140625 41.453125 38.335938 40.960938 38.058594 40.417969 C 38 40.304688 38.023438 40.136719 38.042969 40 C 38.070312 39.820312 38.148438 39.652344 38.179688 39.476562 Z M 31.871094 38.796875 C 31.734375 39.019531 31.640625 39.21875 31.429688 39.085938 C 31.195312 38.9375 31.230469 38.730469 31.46875 38.527344 C 31.585938 38.605469 31.710938 38.691406 31.871094 38.796875 Z M 28.875 40.257812 C 28.855469 40.324219 28.847656 40.441406 28.808594 40.453125 C 28.472656 40.558594 28.601562 40.835938 28.59375 41.046875 C 28.578125 41.417969 28.496094 41.75 28.175781 42.066406 C 27.980469 41.910156 27.792969 41.78125 27.625 41.628906 C 27.359375 41.394531 27.1875 41.394531 26.875 41.585938 C 26.601562 41.75 26.316406 41.945312 26.015625 42.003906 C 25.535156 42.101562 25.265625 41.742188 25.410156 41.269531 C 25.453125 41.132812 25.535156 41.011719 25.59375 40.878906 C 25.746094 40.523438 25.707031 40.449219 25.324219 40.386719 C 24.753906 40.296875 24.457031 39.808594 24.667969 39.273438 C 24.824219 38.875 25.191406 38.722656 25.566406 38.664062 C 25.820312 38.625 26.101562 38.707031 26.363281 38.753906 C 26.515625 38.78125 26.695312 38.941406 26.792969 38.738281 C 26.847656 38.617188 26.785156 38.4375 26.761719 38.289062 C 26.734375 38.132812 26.660156 37.980469 26.65625 37.824219 C 26.648438 37.5 26.835938 37.273438 27.144531 37.203125 C 27.445312 37.136719 28.140625 37.277344 28.320312 37.695312 C 28.410156 37.910156 28.484375 38.136719 28.609375 38.328125 C 28.808594 38.625 29.039062 38.898438 29.230469 39.144531 C 29.101562 39.550781 28.988281 39.90625 28.875 40.257812 Z M 36.527344 42.238281 C 36.371094 42.285156 36.140625 42.203125 35.988281 42.109375 C 35.84375 42.027344 35.757812 41.847656 35.628906 41.691406 C 35.46875 41.683594 35.273438 41.59375 35.175781 41.886719 C 35.140625 41.996094 34.941406 42.097656 34.804688 42.121094 C 34.195312 42.222656 33.523438 41.742188 33.839844 40.886719 C 34.179688 39.960938 34.132812 39.613281 33.757812 38.875 C 34.117188 38.441406 34.167969 37.789062 34.699219 37.429688 C 35.046875 37.191406 35.398438 36.972656 35.84375 37.015625 C 36.148438 37.050781 36.261719 37.199219 36.191406 37.496094 C 36.15625 37.632812 36.085938 37.761719 36.039062 37.898438 C 35.925781 38.234375 36.109375 38.5 36.464844 38.507812 C 36.574219 38.511719 36.679688 38.503906 36.789062 38.507812 C 37.152344 38.519531 37.441406 38.695312 37.558594 39.019531 C 37.6875 39.375 37.585938 39.734375 37.335938 40.03125 C 37.257812 40.125 37.152344 40.195312 37.078125 40.261719 C 37.105469 40.671875 37.417969 40.761719 37.699219 40.878906 C 37.578125 41.59375 37.167969 42.03125 36.527344 42.238281 Z M 39.066406 31.367188 L 39.058594 31.371094 C 39.066406 31.234375 39.074219 31.09375 39.085938 30.875 C 38.914062 30.996094 38.746094 31.050781 38.699219 31.15625 C 38.542969 31.507812 38.222656 31.628906 37.933594 31.808594 C 37.550781 32.039062 37.546875 32.042969 37.300781 31.6875 C 37.242188 31.601562 37.191406 31.507812 37.144531 31.433594 C 37.261719 31.175781 37.425781 31.074219 37.679688 31.003906 C 38.335938 30.828125 38.632812 30.316406 38.488281 29.71875 C 38.144531 29.617188 37.84375 29.707031 37.589844 29.945312 C 37.117188 30.386719 36.644531 30.832031 36.175781 31.273438 C 35.933594 31.503906 35.703125 31.761719 35.277344 31.8125 C 35.359375 31.207031 35.4375 30.636719 35.511719 30.066406 C 35.472656 30.042969 35.429688 30.019531 35.386719 30 C 35.285156 30.074219 35.160156 30.128906 35.085938 30.226562 C 34.652344 30.777344 34.238281 31.34375 33.804688 31.894531 C 33.546875 32.21875 33.214844 32.429688 32.757812 32.496094 C 32.832031 32 33.132812 31.695312 33.414062 31.40625 C 33.835938 30.964844 34.023438 30.414062 34.269531 29.878906 C 33.859375 29.605469 33.472656 29.992188 33.105469 29.84375 C 33.128906 29.621094 33.152344 29.417969 33.175781 29.210938 C 32.667969 29.167969 32.386719 29.289062 32.382812 29.601562 C 32.375 30.078125 32.113281 30.429688 31.871094 30.773438 C 31.511719 31.28125 31.082031 31.746094 30.660156 32.210938 C 30.558594 32.316406 30.417969 32.511719 30.183594 32.34375 C 30.585938 31.449219 31.230469 30.6875 31.617188 29.742188 C 31.308594 29.71875 31.0625 29.699219 30.828125 29.679688 C 30.746094 29.34375 30.898438 28.9375 30.429688 28.847656 C 30.109375 28.785156 29.765625 29.042969 29.585938 29.484375 C 29.390625 29.96875 29.898438 29.953125 30.125 30.175781 C 29.644531 30.988281 29.070312 31.691406 28.277344 32.1875 C 28.097656 32.296875 27.855469 32.558594 27.597656 32.300781 C 27.476562 32.175781 27.621094 31.855469 27.882812 31.609375 C 28.171875 31.335938 28.464844 31.070312 28.496094 30.609375 C 28.238281 30.609375 27.988281 30.636719 27.746094 30.605469 C 27.050781 30.511719 26.519531 30.800781 26.203125 31.375 C 26.007812 31.726562 25.738281 31.867188 25.410156 31.957031 C 24.972656 32.078125 24.835938 31.9375 24.792969 31.480469 C 24.742188 30.933594 24.949219 30.464844 25.160156 29.988281 C 25.355469 29.53125 25.511719 29.054688 25.683594 28.589844 C 25.105469 28.375 24.824219 28.601562 24.554688 29.148438 C 24.269531 29.726562 23.726562 30.058594 23.363281 30.566406 C 23.332031 30.457031 23.347656 30.375 23.359375 30.292969 C 23.402344 29.988281 23.480469 29.683594 23.476562 29.382812 C 23.472656 29.007812 23.15625 28.84375 22.824219 29.007812 C 22.71875 29.0625 22.621094 29.15625 22.542969 29.253906 C 22.144531 29.726562 21.75 30.203125 21.375 30.65625 C 21.398438 30.386719 21.445312 30.070312 21.453125 29.75 C 21.464844 29.007812 21.457031 29.007812 21.347656 28.914062 C 21.324219 29.160156 21.316406 29.457031 21.265625 29.742188 C 21.144531 30.394531 20.992188 31.042969 20.871094 31.695312 C 20.828125 31.917969 20.773438 32.175781 21.15625 32.292969 C 21.25 32.140625 21.351562 31.980469 21.445312 31.816406 C 21.777344 31.242188 22.097656 30.65625 22.449219 30.097656 C 22.53125 29.96875 22.652344 29.785156 22.945312 29.839844 C 22.871094 30.234375 22.792969 30.617188 22.734375 31.003906 C 22.671875 31.410156 22.617188 31.828125 22.992188 32.167969 C 23.46875 31.546875 23.941406 30.9375 24.410156 30.328125 C 24.328125 30.964844 24.214844 31.566406 24.449219 32.164062 C 24.609375 32.578125 24.878906 32.769531 25.289062 32.632812 C 25.679688 32.5 26.035156 32.347656 26.453125 32.5 C 26.546875 32.53125 26.691406 32.433594 26.808594 32.390625 C 26.933594 32.339844 27.058594 32.285156 27.136719 32.253906 C 27.292969 32.503906 27.40625 32.726562 27.5625 32.917969 C 27.621094 32.992188 27.804688 33.058594 27.878906 33.019531 C 28.273438 32.808594 28.726562 32.632812 29.023438 32.316406 C 29.554688 31.757812 30.136719 31.226562 30.476562 30.515625 C 30.539062 30.386719 30.625 30.269531 30.707031 30.148438 C 30.820312 29.992188 30.953125 29.953125 31.171875 30.121094 C 30.859375 30.621094 30.542969 31.117188 30.242188 31.625 C 30.113281 31.839844 29.976562 32.0625 29.921875 32.296875 C 29.886719 32.449219 29.945312 32.699219 30.054688 32.777344 C 30.152344 32.851562 30.429688 32.824219 30.535156 32.730469 C 31.175781 32.179688 31.851562 31.65625 32.207031 30.84375 C 32.332031 30.554688 32.503906 30.285156 32.679688 29.964844 C 33.054688 30.292969 33.417969 30.164062 33.808594 30.078125 C 33.78125 30.207031 33.789062 30.292969 33.75 30.339844 C 33.394531 30.792969 33.039062 31.25 32.664062 31.683594 C 32.433594 31.953125 32.328125 32.238281 32.375 32.582031 C 32.414062 32.886719 32.765625 33.164062 32.984375 33.019531 C 33.335938 32.789062 33.777344 32.679688 34.007812 32.253906 C 34.148438 32 34.382812 31.796875 34.632812 31.507812 C 34.703125 31.777344 34.734375 31.953125 34.792969 32.121094 C 34.953125 32.554688 35.21875 32.625 35.5625 32.328125 C 35.957031 31.992188 36.351562 31.65625 36.792969 31.273438 C 36.871094 31.570312 36.921875 31.789062 36.980469 32.007812 C 37.09375 32.414062 37.496094 32.632812 37.871094 32.457031 C 38.152344 32.320312 38.457031 32.210938 38.601562 31.855469 C 38.675781 31.660156 38.90625 31.527344 39.066406 31.367188 Z M 38.113281 30.023438 C 38.152344 30.0625 38.1875 30.101562 38.222656 30.140625 C 38.015625 30.339844 37.808594 30.539062 37.601562 30.738281 C 37.574219 30.710938 37.546875 30.683594 37.519531 30.65625 C 37.636719 30.371094 37.804688 30.132812 38.113281 30.023438 Z M 27.269531 31.558594 C 26.90625 31.785156 26.570312 31.921875 26.253906 31.945312 C 26.484375 31.3125 27.007812 30.917969 27.59375 30.910156 C 27.671875 31.21875 27.519531 31.40625 27.269531 31.558594 Z M 30.355469 29.847656 C 30.1875 29.792969 30.066406 29.753906 29.925781 29.707031 C 30.003906 29.441406 30.125 29.328125 30.402344 29.382812 C 30.386719 29.527344 30.375 29.660156 30.355469 29.847656 Z M 32.527344 29.558594 C 32.726562 29.515625 32.835938 29.496094 32.972656 29.46875 C 32.835938 29.820312 32.835938 29.820312 32.527344 29.558594 Z M 36.925781 24.726562 C 36.542969 24.949219 36.171875 25.167969 35.800781 25.382812 C 35.59375 25.5 35.363281 25.554688 35.226562 25.320312 C 35.109375 25.113281 34.964844 24.878906 35.109375 24.566406 C 35.546875 24.554688 36.027344 24.582031 36.402344 24.246094 C 36.054688 23.832031 35.601562 24.214844 35.203125 24.105469 C 35.179688 23.582031 35.644531 23.191406 35.542969 22.613281 C 35.039062 22.875 34.546875 23.085938 34.234375 23.511719 C 33.929688 23.921875 33.707031 24.390625 33.4375 24.851562 C 32.925781 24.152344 32.917969 23.921875 33.359375 23.3125 C 33.390625 23.265625 33.453125 23.238281 33.464844 23.191406 C 33.5 23.082031 33.515625 22.972656 33.535156 22.859375 C 33.503906 22.835938 33.472656 22.8125 33.441406 22.789062 C 33.285156 22.886719 33.105469 22.964844 32.972656 23.089844 C 32.527344 23.507812 32.234375 24.023438 32.039062 24.597656 C 31.894531 25.015625 31.695312 25.394531 31.144531 25.53125 C 31.113281 25.324219 31.039062 25.132812 31.066406 24.953125 C 31.121094 24.582031 31.238281 24.222656 31.316406 23.851562 C 31.339844 23.75 31.304688 23.636719 31.289062 23.410156 C 30.984375 23.738281 30.742188 23.949219 30.558594 24.203125 C 30.328125 24.519531 30.148438 24.878906 29.933594 25.207031 C 29.867188 25.308594 29.757812 25.394531 29.648438 25.457031 C 29.476562 25.554688 29.324219 25.472656 29.308594 25.269531 C 29.300781 25.128906 29.304688 24.972656 29.351562 24.84375 C 29.503906 24.441406 29.679688 24.046875 29.84375 23.648438 C 29.867188 23.582031 29.859375 23.503906 29.882812 23.3125 C 29.59375 23.605469 29.429688 23.824219 29.335938 24.101562 C 29.183594 24.554688 29.152344 24.59375 28.671875 24.546875 C 28.308594 24.511719 27.949219 24.394531 27.5625 24.308594 C 27.585938 24.203125 27.597656 24.101562 27.628906 24.003906 C 27.808594 23.421875 28.054688 22.859375 28.078125 22.238281 C 28.09375 21.863281 27.972656 21.640625 27.628906 21.566406 C 27.441406 21.523438 27.234375 21.566406 27.042969 21.59375 C 26.871094 21.621094 26.707031 21.6875 26.539062 21.730469 C 25.960938 21.882812 25.394531 22.003906 25.007812 22.554688 C 24.796875 22.855469 24.8125 23.144531 24.890625 23.421875 C 24.9375 23.578125 25.15625 23.707031 25.328125 23.789062 C 25.414062 23.828125 25.5625 23.730469 25.683594 23.695312 C 25.714844 23.636719 25.742188 23.578125 25.769531 23.519531 C 25.589844 23.410156 25.40625 23.296875 25.242188 23.195312 C 25.621094 22.390625 26.847656 21.832031 27.574219 22.097656 C 27.589844 22.691406 27.554688 23.28125 27.375 23.859375 C 27.234375 24.300781 27.238281 24.296875 26.785156 24.34375 C 26.152344 24.417969 25.566406 24.609375 25.058594 25.023438 C 24.675781 25.339844 24.5 25.875 24.660156 26.355469 C 24.707031 26.488281 24.746094 26.628906 24.789062 26.769531 C 24.921875 26.828125 25.046875 26.910156 25.183594 26.941406 C 25.613281 27.046875 26.019531 27.003906 26.328125 26.648438 C 26.726562 26.199219 27.164062 25.769531 27.34375 25.167969 C 27.421875 24.910156 27.609375 24.855469 27.851562 24.882812 C 28.214844 24.925781 28.578125 24.960938 28.957031 25 C 28.785156 25.300781 28.917969 25.578125 29.082031 25.847656 C 29.28125 26.175781 29.6875 26.214844 29.945312 25.925781 C 30.132812 25.71875 30.292969 25.492188 30.449219 25.289062 C 30.613281 25.515625 30.75 25.75 30.933594 25.941406 C 31.007812 26.015625 31.25 26.0625 31.300781 26.011719 C 31.597656 25.710938 31.882812 25.390625 32.128906 25.046875 C 32.324219 24.777344 32.449219 24.460938 32.632812 24.113281 C 32.761719 24.453125 32.882812 24.714844 32.964844 24.988281 C 33.070312 25.320312 32.933594 25.5 32.597656 25.53125 C 32.5 25.539062 32.402344 25.554688 32.160156 25.582031 C 32.394531 25.765625 32.511719 25.929688 32.652344 25.949219 C 32.804688 25.96875 33.019531 25.902344 33.132812 25.796875 C 33.527344 25.425781 33.894531 25.007812 34.066406 24.492188 C 34.238281 23.988281 34.703125 23.804688 35.011719 23.445312 C 35.03125 23.875 34.910156 24.242188 34.625 24.464844 C 34.722656 24.828125 34.792969 25.136719 34.886719 25.4375 C 34.980469 25.742188 35.269531 25.957031 35.570312 25.964844 C 36.179688 25.980469 36.835938 25.386719 36.925781 24.726562 Z M 26.265625 26.058594 C 26.101562 26.253906 25.84375 26.390625 25.601562 26.496094 C 25.351562 26.601562 25.054688 26.210938 25.121094 25.898438 C 25.210938 25.507812 25.492188 25.25 25.816406 25.109375 C 26.164062 24.957031 26.546875 24.789062 27.015625 24.9375 C 26.746094 25.351562 26.539062 25.734375 26.265625 26.058594 Z M 53.429688 14.523438 C 54.121094 13.800781 54.90625 13.183594 55.867188 12.871094 C 56.484375 12.667969 57.125 12.605469 57.785156 12.78125 C 58.488281 12.96875 58.957031 13.429688 59.257812 14.027344 C 59.882812 15.277344 59.707031 16.492188 58.972656 17.660156 C 58.304688 18.722656 57.328125 19.191406 56.117188 19.207031 C 55.21875 19.222656 54.679688 18.640625 54.246094 17.933594 C 54.21875 17.890625 54.210938 17.832031 54.207031 17.78125 C 54.207031 17.746094 54.230469 17.714844 54.261719 17.613281 C 54.578125 17.695312 54.867188 17.777344 55.160156 17.84375 C 55.457031 17.910156 55.757812 17.96875 56.058594 18.015625 C 57.203125 18.207031 58.699219 16.972656 58.796875 15.890625 C 58.839844 15.433594 58.835938 15.003906 58.746094 14.566406 C 58.589844 13.792969 57.796875 13.261719 56.839844 13.296875 C 56.0625 13.328125 55.355469 13.574219 54.726562 14.035156 C 54.320312 14.328125 53.921875 14.628906 53.480469 14.960938 C 53.273438 14.886719 53.277344 14.6875 53.429688 14.523438 Z M 53.796875 29.804688 C 54.394531 29.929688 54.980469 29.902344 55.570312 29.800781 C 56.476562 29.636719 57.203125 29.179688 57.636719 28.371094 C 58.441406 26.878906 58.136719 25.40625 56.949219 24.214844 C 56.710938 23.976562 56.339844 23.816406 56 23.742188 C 55.667969 23.664062 55.304688 23.738281 54.953125 23.746094 C 53.667969 23.664062 52.273438 24.683594 51.796875 25.8125 C 51.464844 26.609375 51.28125 27.382812 51.734375 28.242188 C 52.195312 29.117188 52.855469 29.609375 53.796875 29.804688 Z M 51.863281 26.96875 C 51.941406 25.914062 52.503906 25.15625 53.347656 24.578125 C 53.863281 24.230469 54.410156 23.96875 55.070312 24.011719 C 55.511719 23.953125 55.8125 24.1875 56.152344 24.46875 C 56.808594 25.011719 57.261719 25.652344 57.390625 26.492188 C 57.429688 26.746094 57.402344 27.023438 57.347656 27.277344 C 57.132812 28.222656 56.285156 28.996094 55.328125 29.164062 C 55.121094 29.199219 54.925781 29.335938 54.722656 29.339844 C 53.847656 29.363281 53.046875 29.074219 52.398438 28.507812 C 51.96875 28.128906 51.820312 27.558594 51.863281 26.96875 Z M 4.828125 17.144531 C 4.722656 16.183594 5.003906 15.261719 5.59375 14.5 C 6.152344 13.78125 7.375 13.632812 8.25 13.992188 C 9.164062 14.367188 9.882812 14.972656 10.5 15.71875 C 10.535156 15.761719 10.527344 15.84375 10.546875 15.96875 C 10.078125 15.621094 9.65625 15.332031 9.261719 15.007812 C 8.554688 14.429688 7.75 14.234375 6.871094 14.382812 C 6.105469 14.515625 5.738281 15.085938 5.5 15.773438 C 5.222656 16.570312 5.300781 17.363281 5.660156 18.082031 C 5.984375 18.734375 6.484375 19.292969 7.335938 19.25 C 7.878906 19.222656 8.417969 19.171875 8.957031 19.132812 C 9.007812 19.128906 9.054688 19.15625 9.109375 19.167969 C 8.757812 19.855469 8.074219 20.195312 7.261719 20.070312 C 6.382812 19.9375 5.703125 19.484375 5.324219 18.675781 C 5.097656 18.191406 4.886719 17.667969 4.828125 17.144531 Z M 8.203125 23.726562 C 7.390625 23.710938 6.75 24.066406 6.308594 24.753906 C 6.171875 24.964844 6.035156 25.175781 5.914062 25.394531 C 5.621094 25.9375 5.582031 26.550781 5.597656 27.125 C 5.617188 27.859375 5.839844 28.546875 6.300781 29.1875 C 6.671875 29.710938 7.15625 30.023438 7.691406 30.21875 C 8.449219 30.492188 9.210938 30.429688 9.980469 30.046875 C 11.367188 29.359375 11.953125 28.230469 12.0625 26.921875 C 12.03125 25.929688 11.816406 25.191406 11.214844 24.554688 C 10.855469 24.171875 10.449219 23.933594 9.976562 23.851562 C 9.394531 23.75 8.796875 23.734375 8.203125 23.726562 Z M 11.558594 26.160156 C 11.792969 27.304688 11.382812 28.226562 10.628906 29.042969 C 10.144531 29.570312 9.507812 29.832031 8.828125 29.960938 C 8.230469 30.078125 7.679688 29.871094 7.191406 29.539062 C 6.675781 29.1875 6.269531 28.726562 6.105469 28.105469 C 6.003906 27.707031 5.769531 27.332031 5.839844 26.902344 C 5.984375 25.996094 6.15625 25.105469 6.902344 24.4375 C 7.34375 24.050781 7.796875 23.894531 8.601562 23.824219 C 9.238281 23.882812 9.855469 24.128906 10.449219 24.511719 C 11.074219 24.917969 11.414062 25.449219 11.558594 26.160156 Z M 39.3125 31.640625 C 39.617188 32 39.652344 32.007812 40.082031 31.800781 C 40.25 31.71875 40.425781 31.652344 40.625 31.570312 C 40.671875 31.816406 40.679688 32.015625 40.75 32.199219 C 40.9375 32.695312 41.414062 32.796875 41.730469 32.457031 C 41.828125 32.351562 41.957031 32.277344 42.050781 32.171875 C 42.394531 31.789062 42.707031 31.394531 42.5625 30.824219 C 42.40625 30.769531 42.265625 30.570312 42.101562 30.773438 C 42.121094 30.941406 42.210938 31.144531 42.144531 31.238281 C 41.90625 31.582031 41.617188 31.890625 41.339844 32.21875 C 41.019531 31.855469 40.925781 31.660156 41.082031 31.296875 C 41.339844 30.6875 41.664062 30.109375 41.964844 29.523438 C 42.160156 29.140625 42.375 28.765625 42.558594 28.378906 C 42.605469 28.269531 42.566406 28.121094 42.566406 27.945312 C 41.792969 28.425781 41.683594 29.277344 41.246094 29.914062 C 40.949219 29.8125 40.675781 29.75 40.449219 29.996094 C 40.449219 29.996094 40.449219 29.992188 40.449219 29.992188 C 40.3125 30.023438 40.109375 30.007812 40.046875 30.097656 C 39.808594 30.425781 39.40625 30.632812 39.328125 31.085938 C 39.308594 31.191406 39.152344 31.277344 39.058594 31.371094 C 39.058594 31.371094 39.066406 31.367188 39.066406 31.367188 C 39.148438 31.457031 39.234375 31.546875 39.3125 31.640625 Z M 39.574219 31.246094 C 39.695312 30.863281 39.890625 30.527344 40.214844 30.273438 C 40.300781 30.203125 40.363281 30.101562 40.4375 30.007812 C 40.632812 30.007812 40.828125 30.007812 41.117188 30.007812 C 41.027344 30.246094 41 30.453125 40.886719 30.585938 C 40.597656 30.925781 40.273438 31.242188 39.945312 31.546875 C 39.890625 31.601562 39.707031 31.609375 39.664062 31.566406 C 39.59375 31.492188 39.546875 31.339844 39.574219 31.246094 Z M 22.492188 39.46875 C 22.921875 38.914062 22.976562 38.386719 23.046875 37.867188 C 23.050781 37.832031 23.03125 37.796875 23.019531 37.761719 C 22.96875 37.558594 22.894531 37.359375 22.863281 37.152344 C 22.785156 36.613281 22.546875 36.148438 22.179688 35.765625 C 21.859375 35.425781 21.382812 35.570312 21.257812 36.019531 C 21.21875 36.15625 21.179688 36.308594 21.207031 36.441406 C 21.304688 36.9375 21.367188 37.449219 21.566406 37.90625 C 21.785156 38.421875 22.136719 38.882812 22.492188 39.46875 Z M 21.683594 36.136719 C 22.367188 36.476562 22.632812 37.539062 22.324219 38.710938 C 21.648438 38.148438 21.304688 36.753906 21.683594 36.136719 Z M 41.714844 40.414062 C 41.195312 40.199219 40.644531 40.199219 40.132812 40.402344 C 39.878906 40.507812 39.695312 40.789062 39.476562 40.996094 C 39.636719 41.363281 39.734375 41.707031 40.082031 41.738281 C 40.597656 41.785156 41.125 41.773438 41.644531 41.746094 C 41.863281 41.734375 42.347656 41.25 42.324219 41.042969 C 42.28125 40.6875 41.996094 40.535156 41.714844 40.414062 Z M 39.792969 40.980469 C 40.546875 40.59375 41.082031 40.613281 41.675781 41.03125 C 41.246094 41.355469 40.714844 41.347656 39.792969 40.980469 Z M 19.785156 37.777344 C 19.585938 37.945312 19.378906 37.882812 19.1875 37.78125 C 18.433594 37.378906 17.757812 36.871094 17.246094 36.179688 C 17.066406 35.945312 16.976562 35.644531 16.808594 35.292969 C 17.070312 35.226562 17.269531 35.109375 17.425781 35.148438 C 17.949219 35.285156 18.472656 35.449219 18.863281 35.863281 C 19 36.007812 19.167969 36.121094 19.3125 36.257812 C 19.640625 36.5625 19.765625 36.925781 19.589844 37.488281 C 19 36.664062 18.359375 36.027344 17.472656 35.667969 C 17.320312 35.925781 17.480469 36.09375 17.613281 36.25 C 18.203125 36.949219 18.867188 37.542969 19.785156 37.777344 Z M 21.542969 40.640625 C 21.851562 40.453125 22.15625 40.375 22.527344 40.3125 C 22.417969 40.714844 22.203125 40.949219 21.835938 41.09375 C 21.292969 41.304688 20.738281 41.503906 20.152344 41.425781 C 19.824219 41.382812 19.492188 41.246094 19.199219 41.082031 C 18.929688 40.925781 18.929688 40.582031 19.148438 40.382812 C 19.628906 39.9375 21.140625 39.636719 21.609375 40 C 21.632812 40.015625 21.640625 40.058594 21.664062 40.113281 C 20.894531 40.195312 20.023438 39.9375 19.371094 40.800781 C 20.203125 41.078125 20.902344 41.035156 21.542969 40.640625 Z M 45.164062 38.570312 C 45.109375 38.304688 44.886719 38.199219 44.660156 38.128906 C 44.527344 38.089844 44.375 38.101562 44.226562 38.09375 C 43.476562 38.125 42.882812 38.464844 42.4375 39.054688 C 42.222656 39.335938 42.308594 39.546875 42.648438 39.6875 C 42.9375 39.804688 43.21875 39.835938 43.539062 39.734375 C 44.003906 39.589844 44.464844 39.445312 44.863281 39.15625 C 45.058594 39.015625 45.21875 38.832031 45.164062 38.570312 Z M 42.527344 39.375 C 42.871094 38.609375 43.835938 38.285156 44.792969 38.625 C 44.136719 39.339844 43.292969 39.152344 42.527344 39.375 Z M 38.496094 40.410156 C 40.445312 39.710938 41.792969 38.296875 42.976562 36.597656 C 43.082031 37.863281 39.890625 40.574219 38.496094 40.410156 Z M 39.960938 37.902344 C 40.039062 37.570312 39.933594 37.304688 39.605469 37.144531 C 38.972656 37.640625 39.074219 38.332031 39.027344 38.984375 C 38.90625 38.269531 38.875 37.566406 39.429688 36.980469 C 39.675781 36.722656 39.726562 36.746094 40.007812 36.945312 C 40.375 37.210938 40.410156 37.570312 40.375 37.960938 C 40.324219 38.5625 40.003906 39.042969 39.636719 39.496094 C 39.550781 39.601562 39.390625 39.648438 39.203125 39.640625 C 39.378906 39.300781 39.566406 38.964844 39.722656 38.617188 C 39.824219 38.390625 39.90625 38.144531 39.960938 37.902344 Z M 54.164062 21.417969 C 53.847656 21.273438 53.8125 20.949219 53.789062 20.707031 C 53.703125 19.832031 53.308594 19.09375 52.882812 18.359375 C 52.859375 18.3125 52.84375 18.261719 52.796875 18.132812 C 53.78125 18.648438 54.457031 20.320312 54.164062 21.417969 Z M 41.597656 35.207031 C 41.101562 35.578125 40.957031 36.15625 41.109375 36.976562 C 40.757812 36.175781 40.945312 35.378906 41.589844 34.925781 C 42.277344 35.34375 42.375 36.238281 41.835938 37.558594 C 41.636719 36.757812 41.96875 35.949219 41.597656 35.207031 Z M 24.449219 41.359375 C 24.394531 41.550781 24.332031 41.757812 24.203125 41.898438 C 23.929688 42.199219 23.625 42.480469 23.304688 42.734375 C 23.117188 42.882812 22.816406 42.96875 22.664062 42.753906 C 22.550781 42.59375 22.589844 42.3125 22.605469 42.089844 C 22.609375 42.003906 22.726562 41.921875 22.867188 41.75 C 22.800781 42.058594 22.765625 42.222656 22.722656 42.4375 C 23.609375 42.265625 23.878906 41.59375 24.128906 40.929688 C 24.445312 40.96875 24.507812 41.144531 24.449219 41.359375 Z M 44.519531 34.996094 C 44.613281 34.519531 44.636719 34.515625 44.136719 34.472656 C 44.332031 34.246094 44.539062 34.21875 44.777344 34.425781 C 45.003906 34.625 45.011719 34.699219 44.820312 35.066406 C 44.644531 35.402344 44.488281 35.75 44.28125 36.0625 C 44.0625 36.394531 43.761719 36.644531 43.234375 36.621094 C 43.550781 36.289062 43.828125 36.011719 44.09375 35.726562 C 44.292969 35.515625 44.460938 35.300781 44.519531 34.996094 Z M 35.78125 28.492188 C 35.847656 28.402344 36.042969 28.402344 36.195312 28.359375 C 36.300781 28.785156 36.066406 28.9375 35.820312 29.097656 C 35.535156 28.871094 35.664062 28.652344 35.78125 28.492188 Z M 44.113281 34.46875 C 44.121094 34.46875 44.128906 34.46875 44.136719 34.472656 C 44.136719 34.476562 44.132812 34.476562 44.128906 34.484375 L 44.125 34.480469 C 44.125 34.480469 44.128906 34.484375 44.128906 34.484375 C 44.117188 34.480469 44.109375 34.484375 44.101562 34.484375 C 44.105469 34.476562 44.109375 34.472656 44.113281 34.46875 Z M 44.101562 34.484375 C 44.011719 34.578125 43.925781 34.675781 43.835938 34.773438 C 43.832031 34.558594 43.933594 34.480469 44.101562 34.484375 Z M 15.082031 15.089844 C 15.023438 14.914062 14.964844 14.824219 14.972656 14.746094 C 15.050781 13.832031 15.144531 12.917969 15.222656 12.003906 C 15.308594 10.996094 15.585938 10.027344 15.808594 9.050781 C 15.976562 8.300781 16.269531 7.605469 16.742188 7 C 17.089844 6.558594 17.523438 6.191406 18.082031 6.035156 C 18.726562 5.855469 19.363281 5.652344 20.019531 5.535156 C 21.632812 5.25 23.253906 5.007812 24.871094 4.753906 C 25.207031 4.699219 25.566406 4.710938 25.886719 4.609375 C 26.441406 4.429688 27.015625 4.433594 27.585938 4.375 C 27.980469 4.335938 28.371094 4.257812 28.765625 4.222656 C 29.429688 4.167969 30.097656 4.132812 30.765625 4.09375 C 32.882812 3.972656 35 3.835938 37.121094 3.894531 C 38.691406 3.9375 40.257812 4.0625 41.820312 4.25 C 42.921875 4.378906 43.964844 4.707031 44.984375 5.097656 C 45.652344 5.351562 46.230469 5.777344 46.691406 6.375 C 47.363281 7.25 47.746094 8.253906 48.070312 9.289062 C 48.320312 10.09375 48.53125 10.917969 48.726562 11.742188 C 48.792969 12.015625 48.777344 12.316406 48.765625 12.605469 C 48.746094 12.929688 48.699219 13.25 48.640625 13.570312 C 48.625 13.664062 48.539062 13.746094 48.445312 13.890625 C 48.082031 12.992188 47.691406 12.171875 47.535156 11.285156 C 47.316406 10.039062 46.855469 8.886719 46.242188 7.804688 C 45.773438 6.972656 45.042969 6.339844 44.105469 6.074219 C 43.207031 5.820312 42.273438 5.6875 41.355469 5.5 C 41.105469 5.449219 40.90625 5.539062 40.707031 5.695312 C 39.304688 6.789062 37.894531 7.878906 36.480469 8.957031 C 34.949219 10.121094 33.410156 11.28125 31.875 12.4375 C 31.066406 13.042969 30.253906 13.636719 29.441406 14.230469 C 29.324219 14.316406 29.191406 14.378906 29.0625 14.449219 C 29.253906 14.238281 29.421875 14 29.644531 13.832031 C 30.285156 13.335938 30.960938 12.886719 31.605469 12.398438 C 32.195312 11.953125 32.757812 11.472656 33.34375 11.023438 C 34.011719 10.507812 34.695312 10.015625 35.367188 9.511719 C 35.886719 9.121094 36.402344 8.722656 36.921875 8.332031 C 37.683594 7.761719 38.441406 7.1875 39.207031 6.617188 C 39.652344 6.285156 40.113281 5.96875 40.558594 5.636719 C 40.621094 5.59375 40.644531 5.5 40.730469 5.355469 C 40.417969 5.332031 40.175781 5.304688 39.929688 5.296875 C 38.320312 5.226562 36.707031 5.117188 35.097656 5.105469 C 33.773438 5.097656 32.453125 5.207031 31.128906 5.257812 C 30.496094 5.285156 29.859375 5.265625 29.226562 5.316406 C 28.277344 5.390625 27.332031 5.507812 26.386719 5.613281 C 25.847656 5.671875 25.3125 5.746094 24.773438 5.808594 C 23.625 5.933594 22.472656 6.027344 21.328125 6.191406 C 20.328125 6.335938 19.332031 6.523438 18.347656 6.746094 C 17.460938 6.945312 16.886719 7.519531 16.53125 8.367188 C 16.019531 9.578125 15.769531 10.847656 15.574219 12.136719 C 15.441406 13.019531 15.183594 13.886719 15.1875 14.792969 C 15.191406 14.859375 15.144531 14.921875 15.082031 15.089844 Z M 29.019531 14.472656 C 29.03125 14.464844 29.046875 14.457031 29.0625 14.449219 C 29.050781 14.460938 29.042969 14.472656 29.03125 14.484375 C 29.019531 14.484375 29.011719 14.484375 29 14.484375 C 29.007812 14.480469 29.011719 14.476562 29.019531 14.472656 C 29.019531 14.472656 29.023438 14.476562 29.023438 14.480469 Z M 27.703125 10.03125 C 26.929688 10.554688 26.171875 11.105469 25.402344 11.632812 C 24.824219 12.027344 24.226562 12.40625 23.648438 12.804688 C 22.566406 13.546875 21.492188 14.304688 20.410156 15.050781 C 20.214844 15.183594 20.011719 15.304688 19.800781 15.40625 C 19.722656 15.445312 19.609375 15.410156 19.511719 15.410156 C 19.492188 15.363281 19.472656 15.316406 19.453125 15.265625 C 19.808594 15.003906 20.164062 14.734375 20.523438 14.476562 C 21.578125 13.722656 22.632812 12.96875 23.691406 12.21875 C 23.960938 12.03125 24.238281 11.863281 24.507812 11.679688 C 25.65625 10.902344 26.796875 10.109375 27.945312 9.335938 C 29.082031 8.574219 30.21875 7.808594 31.378906 7.082031 C 32.210938 6.558594 33.085938 6.105469 33.992188 5.703125 C 33.613281 5.992188 33.242188 6.289062 32.851562 6.5625 C 31.835938 7.277344 30.820312 7.988281 29.792969 8.683594 C 29.105469 9.144531 28.390625 9.570312 27.703125 10.03125 Z M 28.0625 15.035156 C 28.070312 15.035156 28.082031 15.035156 28.089844 15.03125 C 28.085938 15.039062 28.078125 15.042969 28.074219 15.050781 Z M 29 14.484375 C 28.785156 14.652344 28.570312 14.824219 28.34375 14.972656 C 28.277344 15.019531 28.179688 15.019531 28.089844 15.03125 C 28.347656 14.773438 28.601562 14.507812 29 14.484375 Z M 28.0625 15.0625 C 28.0625 15.050781 28.0625 15.046875 28.0625 15.035156 C 28.0625 15.035156 28.074219 15.050781 28.074219 15.050781 C 28.070312 15.054688 28.066406 15.058594 28.0625 15.0625 Z M 27.636719 15.359375 C 27.78125 15.257812 27.921875 15.160156 28.0625 15.0625 C 28.074219 15.332031 27.84375 15.332031 27.710938 15.445312 C 27.6875 15.414062 27.664062 15.386719 27.636719 15.359375 Z M 35.109375 39.011719 C 35.015625 39.363281 34.9375 39.597656 34.890625 39.84375 C 34.847656 40.058594 34.941406 40.25 35.144531 40.328125 C 35.34375 40.402344 35.535156 40.335938 35.660156 40.144531 C 35.699219 40.082031 35.761719 40.023438 35.765625 39.957031 C 35.785156 39.695312 35.859375 39.398438 35.761719 39.183594 C 35.710938 39.0625 35.363281 39.070312 35.109375 39.011719 Z M 35.195312 39.984375 C 35.15625 39.976562 35.121094 39.972656 35.085938 39.96875 C 35.070312 39.820312 35.058594 39.671875 35.042969 39.457031 C 35.207031 39.539062 35.296875 39.582031 35.417969 39.644531 C 35.335938 39.769531 35.265625 39.875 35.195312 39.984375 Z M 27.597656 39.160156 C 27.21875 39.15625 26.9375 39.375 26.917969 39.695312 C 26.90625 39.964844 27.132812 40.257812 27.371094 40.273438 C 27.628906 40.296875 28.046875 39.859375 28.058594 39.558594 C 28.066406 39.320312 27.886719 39.164062 27.597656 39.160156 Z M 27.335938 39.796875 C 27.320312 39.804688 27.214844 39.703125 27.222656 39.671875 C 27.238281 39.609375 27.296875 39.542969 27.355469 39.507812 C 27.378906 39.496094 27.449219 39.566406 27.535156 39.625 C 27.449219 39.707031 27.398438 39.765625 27.335938 39.796875 Z M 27.335938 39.796875 " fill-opacity="1" fill-rule="nonzero"/></g></svg>