<svg xmlns="http://www.w3.org/2000/svg" xmlns:xlink="http://www.w3.org/1999/xlink" zoomAndPan="magnify" viewBox="0 0 64.08 55.92" preserveAspectRatio="xMidYMid meet" version="1.0"><defs><clipPath id="87a5a399f0"><path d="M 3.132812 17 L 14 17 L 14 39 L 3.132812 39 Z M 3.132812 17 " clip-rule="nonzero"/></clipPath><clipPath id="6b113b8c17"><path d="M 13 39 L 18 39 L 18 47.734375 L 13 47.734375 Z M 13 39 " clip-rule="nonzero"/></clipPath><clipPath id="524a0966c3"><path d="M 17 46 L 20 46 L 20 47.734375 L 17 47.734375 Z M 17 46 " clip-rule="nonzero"/></clipPath><clipPath id="7c44a03dc1"><path d="M 38 1.152344 L 46 1.152344 L 46 15 L 38 15 Z M 38 1.152344 " clip-rule="nonzero"/></clipPath><clipPath id="3818a08d6a"><path d="M 45 1.152344 L 52 1.152344 L 52 10 L 45 10 Z M 45 1.152344 " clip-rule="nonzero"/></clipPath></defs><g clip-path="url(#87a5a399f0)"><path fill="#4b4e40" d="M 13.257812 38.464844 C 13.179688 38.449219 13.152344 38.449219 13.148438 38.441406 C 12.808594 37.558594 12.25 36.777344 12 35.84375 C 11.570312 34.234375 10.996094 32.667969 10.25 31.167969 C 9.769531 30.195312 9.425781 29.164062 9.105469 28.125 C 8.96875 27.671875 8.964844 27.699219 8.476562 27.777344 C 7.761719 27.890625 7.222656 27.542969 6.777344 27.027344 C 6.578125 26.796875 6.464844 26.515625 6.351562 26.238281 C 5.589844 24.421875 4.714844 22.65625 4.066406 20.792969 C 3.804688 20.054688 3.539062 19.316406 3.277344 18.578125 C 3.238281 18.457031 3.148438 18.335938 3.25 18.203125 C 3.394531 18.160156 3.460938 18.265625 3.53125 18.355469 C 3.71875 18.589844 3.882812 18.84375 4.019531 19.109375 C 4.5 20.027344 4.996094 20.933594 5.417969 21.878906 C 5.667969 22.4375 5.960938 22.976562 6.351562 23.585938 C 6.316406 23.285156 6.210938 23.136719 6.132812 22.976562 C 5.398438 21.496094 4.789062 19.964844 4.242188 18.402344 C 4.230469 18.371094 4.21875 18.339844 4.214844 18.304688 C 4.1875 18.109375 3.953125 17.847656 4.210938 17.734375 C 4.445312 17.632812 4.5625 17.945312 4.667969 18.113281 C 5.015625 18.664062 5.3125 19.246094 5.574219 19.839844 C 5.910156 20.605469 6.21875 21.378906 6.589844 22.128906 C 6.898438 22.753906 7.246094 23.359375 7.648438 23.96875 C 7.46875 24.011719 7.40625 23.898438 7.34375 23.816406 C 7.035156 23.421875 6.789062 22.984375 6.5625 22.535156 C 5.902344 21.226562 5.222656 19.925781 4.632812 18.578125 C 4.585938 18.476562 4.5625 18.363281 4.382812 18.273438 C 4.519531 18.644531 4.632812 18.96875 4.757812 19.292969 C 5.378906 20.894531 5.988281 22.5 6.773438 24.03125 C 6.871094 24.222656 6.972656 24.421875 6.992188 24.640625 C 6.996094 24.683594 6.976562 24.753906 6.945312 24.773438 C 6.886719 24.8125 6.8125 24.796875 6.769531 24.738281 C 6.683594 24.613281 6.597656 24.492188 6.523438 24.359375 C 5.738281 23.003906 5.09375 21.570312 4.34375 20.195312 C 4.222656 19.972656 4.144531 19.734375 3.898438 19.460938 C 3.988281 19.765625 4.042969 19.980469 4.121094 20.1875 C 4.617188 21.53125 5.125 22.875 5.746094 24.167969 C 5.851562 24.390625 5.921875 24.628906 6.175781 24.757812 C 6.265625 24.804688 6.320312 24.9375 6.375 25.039062 C 6.847656 25.925781 7.5 26.609375 8.496094 26.902344 C 8.539062 26.914062 8.578125 26.941406 8.652344 26.984375 C 8.355469 27.109375 8.097656 26.878906 7.820312 26.960938 C 8.035156 27.265625 8.433594 27 8.636719 27.273438 C 8.351562 27.433594 7.941406 27.410156 7.820312 27.15625 C 7.660156 26.8125 7.351562 26.648438 7.113281 26.398438 C 6.90625 26.183594 6.707031 25.960938 6.503906 25.738281 C 6.664062 26.6875 7.339844 27.394531 8.246094 27.574219 C 8.449219 27.613281 8.640625 27.566406 8.839844 27.550781 C 9.050781 27.535156 9.246094 27.582031 9.289062 27.839844 C 9.316406 28 9.394531 28.105469 9.539062 28.183594 C 9.617188 28.226562 9.675781 28.332031 9.714844 28.417969 C 10.113281 29.242188 10.5 30.070312 10.75 30.960938 C 10.328125 30.171875 10.03125 29.320312 9.539062 28.554688 C 9.585938 28.707031 9.640625 28.855469 9.6875 29.007812 C 10.113281 30.417969 10.804688 31.71875 11.351562 33.082031 C 11.777344 34.152344 12.214844 35.214844 12.492188 36.335938 C 12.597656 36.761719 12.785156 37.152344 12.9375 37.558594 C 13.046875 37.847656 13.144531 38.144531 13.257812 38.464844 Z M 13.257812 38.464844 " fill-opacity="1" fill-rule="nonzero"/></g><path fill="#4b4e40" d="M 10.40625 26.609375 C 10.390625 26.65625 10.390625 26.71875 10.359375 26.746094 C 10.03125 27.050781 9.984375 27.332031 10.261719 27.738281 C 10.597656 28.230469 10.832031 28.792969 11.109375 29.324219 C 12.089844 31.199219 13.160156 33.027344 13.972656 34.988281 C 14.261719 35.683594 14.730469 36.28125 15.121094 36.921875 C 15.679688 37.832031 16.191406 38.761719 16.625 39.742188 C 17.242188 41.132812 17.980469 42.457031 18.898438 43.675781 C 19.179688 44.050781 19.394531 44.46875 19.492188 44.929688 C 19.5625 45.261719 19.578125 45.59375 19.378906 45.894531 C 19.324219 45.976562 19.242188 46.066406 19.132812 46.015625 C 19.003906 45.957031 19.054688 45.851562 19.105469 45.761719 C 19.308594 45.394531 19.253906 45.023438 19.125 44.652344 C 18.992188 44.269531 18.808594 43.910156 18.566406 43.589844 C 17.785156 42.542969 17.199219 41.382812 16.613281 40.222656 C 16.238281 39.480469 15.84375 38.746094 15.40625 38.035156 C 14.664062 36.828125 14 35.578125 13.398438 34.289062 C 12.675781 32.734375 11.894531 31.207031 11.046875 29.710938 C 10.691406 29.089844 10.351562 28.457031 10.003906 27.832031 C 9.664062 27.214844 9.753906 26.957031 10.414062 26.621094 C 10.414062 26.617188 10.40625 26.609375 10.40625 26.609375 Z M 10.40625 26.609375 " fill-opacity="1" fill-rule="nonzero"/><path fill="#4b4e40" d="M 10.414062 26.617188 C 10.417969 26.472656 10.535156 26.386719 10.601562 26.273438 C 10.824219 25.875 10.882812 25.457031 10.773438 25.015625 C 10.6875 24.660156 10.582031 24.308594 10.410156 23.980469 C 9.511719 22.253906 8.765625 20.449219 7.9375 18.683594 C 7.753906 18.292969 7.5625 17.902344 7.363281 17.515625 C 7.316406 17.421875 7.277344 17.300781 7.105469 17.261719 C 7.417969 18.246094 7.742188 19.207031 8.027344 20.175781 C 8.3125 21.148438 8.699219 22.089844 8.875 23.09375 C 8.308594 21.960938 7.949219 20.746094 7.507812 19.570312 C 7.203125 18.757812 6.886719 17.949219 6.679688 17.105469 C 6.640625 16.945312 6.617188 16.78125 6.601562 16.613281 C 6.59375 16.496094 6.605469 16.367188 6.75 16.332031 C 6.863281 16.304688 6.933594 16.394531 6.992188 16.472656 C 7.300781 16.890625 7.613281 17.308594 7.804688 17.792969 C 8.625 19.855469 9.6875 21.800781 10.613281 23.816406 C 10.824219 24.269531 10.992188 24.742188 11.0625 25.242188 C 11.136719 25.761719 10.890625 26.175781 10.59375 26.566406 C 10.554688 26.621094 10.476562 26.621094 10.410156 26.609375 C 10.40625 26.609375 10.414062 26.617188 10.414062 26.617188 Z M 10.414062 26.617188 " fill-opacity="1" fill-rule="nonzero"/><path fill="#4b4e40" d="M 8.273438 22.378906 C 7.421875 21.214844 6.914062 19.871094 6.25 18.535156 C 6.195312 18.792969 6.296875 18.953125 6.355469 19.117188 C 6.785156 20.320312 7.226562 21.527344 7.65625 22.734375 C 7.765625 23.03125 7.847656 23.335938 7.941406 23.636719 C 7.992188 23.792969 8.046875 23.945312 7.914062 24.183594 C 7.769531 23.640625 7.597656 23.179688 7.425781 22.722656 C 6.882812 21.292969 6.339844 19.859375 5.804688 18.421875 C 5.6875 18.097656 5.601562 17.753906 5.515625 17.417969 C 5.484375 17.3125 5.445312 17.167969 5.589844 17.117188 C 5.730469 17.070312 5.796875 17.199219 5.851562 17.296875 C 5.992188 17.542969 6.125 17.792969 6.246094 18.050781 C 6.746094 19.101562 7.140625 20.203125 7.675781 21.238281 C 7.875 21.617188 8.074219 21.996094 8.273438 22.378906 Z M 8.273438 22.378906 " fill-opacity="1" fill-rule="nonzero"/><g clip-path="url(#6b113b8c17)"><path fill="#4b4e40" d="M 17.613281 46.84375 C 17.261719 47.175781 16.804688 47.144531 16.480469 46.730469 C 16.222656 46.40625 16.003906 46.050781 15.847656 45.660156 C 15.625 45.105469 15.390625 44.550781 15.191406 43.988281 C 14.753906 42.765625 14.257812 41.566406 13.867188 40.324219 C 13.832031 40.214844 13.800781 40.105469 13.753906 39.9375 C 13.925781 40.039062 13.945312 40.171875 13.996094 40.277344 C 14.753906 41.890625 15.386719 43.554688 16.011719 45.222656 C 16.15625 45.617188 16.363281 45.976562 16.566406 46.339844 C 16.765625 46.699219 17.007812 46.925781 17.449219 46.78125 C 17.511719 46.757812 17.578125 46.769531 17.613281 46.84375 Z M 17.613281 46.84375 " fill-opacity="1" fill-rule="nonzero"/></g><path fill="#4b4e40" d="M 14.3125 36.945312 C 15.777344 39.160156 16.722656 41.664062 18.238281 43.972656 C 17.511719 43.386719 15.261719 39.34375 14.3125 36.945312 Z M 14.3125 36.945312 " fill-opacity="1" fill-rule="nonzero"/><path fill="#4b4e40" d="M 15.261719 42.117188 C 15.953125 43.324219 15.992188 44.730469 16.648438 45.910156 C 16.390625 45.710938 16.238281 45.4375 16.144531 45.144531 C 15.835938 44.195312 15.546875 43.242188 15.253906 42.289062 C 15.238281 42.25 15.257812 42.203125 15.261719 42.117188 Z M 15.261719 42.117188 " fill-opacity="1" fill-rule="nonzero"/><path fill="#4b4e40" d="M 10.535156 25.519531 C 10.429688 25.460938 10.46875 25.296875 10.335938 25.253906 C 10.257812 25.46875 10.378906 25.722656 10.128906 25.972656 C 10.121094 25.511719 10.152344 25.113281 10.054688 24.722656 C 10.027344 24.601562 10.273438 24.570312 10.183594 24.324219 C 10.5625 24.765625 10.652344 25.128906 10.535156 25.519531 Z M 10.535156 25.519531 " fill-opacity="1" fill-rule="nonzero"/><g clip-path="url(#524a0966c3)"><path fill="#4b4e40" d="M 17.722656 47.019531 C 18.679688 47.390625 18.867188 47.292969 19.003906 46.417969 C 19.1875 46.796875 19.046875 47.238281 18.675781 47.433594 C 18.320312 47.617188 17.976562 47.484375 17.722656 47.019531 Z M 17.722656 47.019531 " fill-opacity="1" fill-rule="nonzero"/></g><path fill="#4b4e40" d="M 12.734375 34.105469 C 12.457031 33.972656 12.421875 33.664062 12.265625 33.445312 C 12.144531 33.269531 12.058594 33.070312 11.949219 32.863281 C 12.222656 33.101562 12.507812 33.5625 12.726562 34.113281 Z M 12.734375 34.105469 " fill-opacity="1" fill-rule="nonzero"/><path fill="#4b4e40" d="M 9.820312 23.757812 C 9.507812 23.472656 9.347656 23.109375 9.195312 22.742188 C 9.230469 22.722656 9.265625 22.707031 9.300781 22.6875 C 9.472656 23.042969 9.648438 23.402344 9.820312 23.757812 Z M 9.820312 23.757812 " fill-opacity="1" fill-rule="nonzero"/><path fill="#4b4e40" d="M 17.089844 45.890625 C 17.207031 46.03125 17.324219 46.171875 17.441406 46.3125 C 17.257812 46.242188 17.136719 46.105469 17.089844 45.890625 Z M 17.089844 45.890625 " fill-opacity="1" fill-rule="nonzero"/><path fill="#4b4e40" d="M 18.167969 46.867188 C 18.34375 46.746094 18.445312 46.71875 18.542969 46.800781 C 18.5625 46.816406 18.566406 46.871094 18.554688 46.882812 C 18.449219 46.988281 18.351562 46.921875 18.167969 46.867188 Z M 18.167969 46.867188 " fill-opacity="1" fill-rule="nonzero"/><path fill="#4b4e40" d="M 12.726562 34.117188 C 12.878906 34.234375 12.90625 34.414062 12.964844 34.578125 C 12.824219 34.453125 12.703125 34.320312 12.734375 34.105469 C 12.734375 34.105469 12.726562 34.117188 12.726562 34.117188 Z M 12.726562 34.117188 " fill-opacity="1" fill-rule="nonzero"/><path fill="#4b4e40" d="M 9.695312 26.683594 C 9.671875 26.886719 9.632812 26.976562 9.480469 26.984375 C 9.476562 26.851562 9.585938 26.804688 9.695312 26.683594 Z M 9.695312 26.683594 " fill-opacity="1" fill-rule="nonzero"/><g clip-path="url(#7c44a03dc1)"><path fill="#4b4e40" d="M 38.382812 2.207031 C 39.167969 4.042969 40.273438 5.714844 40.808594 7.714844 C 40.59375 7.566406 40.539062 7.378906 40.46875 7.210938 C 39.933594 5.941406 39.285156 4.726562 38.648438 3.507812 C 38.453125 3.121094 38.246094 2.746094 38.113281 2.332031 C 38.066406 2.183594 38.011719 2.042969 38.140625 1.914062 C 38.285156 1.777344 38.453125 1.820312 38.601562 1.898438 C 38.972656 2.089844 39.339844 2.277344 39.671875 2.527344 C 40.765625 3.351562 41.742188 4.285156 42.511719 5.429688 C 42.84375 5.925781 43.207031 6.402344 43.597656 6.855469 C 43.867188 7.167969 44.097656 7.515625 44.300781 7.875 C 44.554688 8.332031 44.667969 8.8125 44.738281 9.335938 C 44.882812 10.335938 44.996094 11.339844 45.058594 12.351562 C 45.09375 12.910156 45.136719 13.46875 45.183594 14.097656 C 44.929688 13.757812 44.890625 13.417969 44.867188 13.078125 C 44.808594 12.269531 44.777344 11.460938 44.636719 10.652344 C 44.402344 9.28125 43.9375 8.019531 43.226562 6.808594 C 42.65625 5.839844 42.019531 4.953125 41.234375 4.15625 C 40.414062 3.324219 39.460938 2.683594 38.382812 2.207031 Z M 38.382812 2.207031 " fill-opacity="1" fill-rule="nonzero"/></g><path fill="#4b4e40" d="M 48.445312 23.476562 C 48.257812 23.308594 48.167969 23.074219 48.074219 22.847656 C 47.519531 21.460938 46.921875 20.101562 46.15625 18.8125 C 45.722656 18.074219 45.410156 17.261719 45.015625 16.496094 C 44.140625 14.785156 43.386719 13.019531 42.597656 11.269531 C 42.164062 10.316406 41.707031 9.378906 41.265625 8.425781 C 41.472656 8.761719 41.714844 9.078125 41.886719 9.433594 C 42.527344 10.777344 43.285156 12.066406 43.851562 13.449219 C 43.917969 13.617188 43.988281 13.789062 44.078125 13.945312 C 45.023438 15.601562 45.722656 17.378906 46.621094 19.0625 C 47.371094 20.46875 47.886719 21.972656 48.445312 23.476562 Z M 48.445312 23.476562 " fill-opacity="1" fill-rule="nonzero"/><path fill="#4b4e40" d="M 52.460938 26.855469 C 52.449219 26.839844 52.433594 26.832031 52.425781 26.816406 C 51.5 24.734375 50.179688 22.878906 48.996094 20.945312 C 47.746094 18.910156 46.511719 16.871094 45.355469 14.78125 C 45.289062 14.660156 45.167969 14.546875 45.21875 14.34375 C 45.335938 14.386719 45.375 14.492188 45.429688 14.578125 C 46.609375 16.457031 47.746094 18.367188 48.820312 20.308594 C 49.09375 20.800781 49.359375 21.300781 49.691406 21.753906 C 50.902344 23.40625 51.867188 25.199219 52.796875 27.011719 C 53.027344 27.453125 53.308594 27.863281 53.484375 28.332031 C 53.640625 28.75 53.679688 29.164062 53.519531 29.59375 C 53.550781 28.644531 53.066406 27.90625 52.566406 27.175781 C 52.53125 27.066406 52.496094 26.960938 52.460938 26.855469 Z M 52.460938 26.855469 " fill-opacity="1" fill-rule="nonzero"/><path fill="#4b4e40" d="M 48.816406 24.390625 C 49.042969 24.550781 49.09375 24.765625 49.179688 24.953125 C 49.742188 26.207031 50.207031 27.5 50.8125 28.734375 C 50.894531 28.894531 50.96875 29.0625 51.058594 29.21875 C 51.339844 29.707031 51.6875 29.820312 52.210938 29.59375 C 52.574219 29.4375 52.816406 29.148438 53.015625 28.789062 C 53.316406 29.011719 53.261719 29.277344 53.164062 29.542969 C 53.011719 29.957031 53.007812 29.957031 52.566406 29.964844 C 52.644531 29.835938 52.804688 29.777344 52.839844 29.628906 C 52.847656 29.597656 52.839844 29.566406 52.839844 29.492188 C 52.628906 29.53125 52.511719 29.710938 52.34375 29.789062 C 52.160156 29.875 51.964844 29.882812 51.753906 29.898438 C 52.183594 30.425781 52.632812 30.5625 53.230469 30.359375 C 53.042969 30.574219 53 30.609375 52.730469 30.601562 C 51.894531 30.574219 51.292969 30.15625 50.875 29.457031 C 50.484375 28.800781 50.175781 28.105469 49.882812 27.402344 C 49.546875 26.59375 49.25 25.769531 48.945312 24.949219 C 48.882812 24.789062 48.8125 24.621094 48.816406 24.390625 Z M 48.816406 24.390625 " fill-opacity="1" fill-rule="nonzero"/><path fill="#4b4e40" d="M 42.828125 7.703125 C 42.605469 7.089844 42.234375 6.558594 41.878906 6.023438 C 41.433594 5.363281 40.960938 4.722656 40.425781 4.132812 C 40.363281 4.0625 40.265625 4.011719 40.277344 3.890625 C 41.257812 4.339844 43.3125 7.390625 43.585938 8.992188 C 43.453125 8.847656 43.273438 8.875 43.277344 8.675781 C 43.261719 8.519531 43.222656 8.371094 43.121094 8.246094 C 43.082031 8.023438 43.007812 7.820312 42.808594 7.683594 Z M 42.828125 7.703125 " fill-opacity="1" fill-rule="nonzero"/><path fill="#4b4e40" d="M 52.460938 26.855469 C 52.496094 26.960938 52.53125 27.066406 52.566406 27.175781 C 52.625 27.433594 52.695312 27.6875 52.734375 27.945312 C 52.789062 28.304688 52.699219 28.429688 52.261719 28.605469 C 52.636719 28.175781 52.480469 27.773438 52.363281 27.378906 C 52.230469 26.933594 51.984375 26.535156 51.742188 26.140625 C 51.234375 25.324219 50.722656 24.511719 50.214844 23.695312 C 50.140625 23.574219 50.035156 23.464844 50.019531 23.273438 C 50.171875 23.335938 50.21875 23.457031 50.28125 23.558594 C 50.878906 24.515625 51.46875 25.476562 52.066406 26.429688 C 52.167969 26.59375 52.246094 26.792969 52.460938 26.855469 Z M 52.460938 26.855469 " fill-opacity="1" fill-rule="nonzero"/><path fill="#4b4e40" d="M 43.121094 8.246094 C 43.222656 8.371094 43.261719 8.519531 43.277344 8.671875 C 43.285156 8.683594 43.296875 8.699219 43.300781 8.710938 C 43.382812 8.921875 43.570312 9.246094 43.367188 9.332031 C 43.089844 9.453125 43.082031 9.058594 42.984375 8.878906 C 42.675781 8.320312 42.402344 7.738281 42.074219 7.089844 C 42.503906 7.183594 42.554688 7.574219 42.828125 7.699219 C 42.828125 7.699219 42.808594 7.679688 42.808594 7.679688 C 42.84375 7.910156 42.988281 8.074219 43.121094 8.246094 Z M 43.121094 8.246094 " fill-opacity="1" fill-rule="nonzero"/><path fill="#4b4e40" d="M 43.335938 10.296875 C 43.914062 11.15625 44.355469 12.070312 44.53125 13.1875 C 44.261719 12.9375 43.414062 10.855469 43.335938 10.296875 Z M 43.335938 10.296875 " fill-opacity="1" fill-rule="nonzero"/><path fill="#4b4e40" d="M 48.597656 21.65625 C 49.34375 22.652344 49.945312 23.601562 50.433594 24.660156 C 50 24.261719 48.757812 22.265625 48.597656 21.65625 Z M 48.597656 21.65625 " fill-opacity="1" fill-rule="nonzero"/><path fill="#4b4e40" d="M 50.464844 26.832031 C 50.703125 27.089844 50.773438 27.308594 50.871094 27.507812 C 51.09375 27.964844 51.359375 28.402344 51.621094 28.84375 C 51.675781 28.933594 51.789062 29.054688 51.667969 29.144531 C 51.539062 29.242188 51.457031 29.09375 51.40625 29.007812 C 51.019531 28.355469 50.695312 27.679688 50.464844 26.832031 Z M 50.464844 26.832031 " fill-opacity="1" fill-rule="nonzero"/><path fill="#4b4e40" d="M 44.34375 11.378906 C 44.179688 11.097656 44.222656 10.808594 44.121094 10.558594 C 44.34375 10.871094 44.371094 10.972656 44.34375 11.378906 Z M 44.34375 11.378906 " fill-opacity="1" fill-rule="nonzero"/><path fill="#4b4e40" d="M 49.292969 22.210938 C 49.058594 22.082031 48.957031 21.851562 48.855469 21.625 C 49.054688 21.78125 49.21875 21.964844 49.28125 22.222656 Z M 49.292969 22.210938 " fill-opacity="1" fill-rule="nonzero"/><path fill="#4b4e40" d="M 49.28125 22.222656 C 49.511719 22.359375 49.609375 22.59375 49.722656 22.820312 C 49.53125 22.648438 49.355469 22.46875 49.292969 22.210938 C 49.292969 22.210938 49.28125 22.222656 49.28125 22.222656 Z M 49.28125 22.222656 " fill-opacity="1" fill-rule="nonzero"/><path fill="#4b4e40" d="M 50.359375 9.664062 C 50.730469 9.828125 50.945312 10.121094 51.15625 10.414062 C 51.542969 10.953125 51.820312 11.554688 52.117188 12.144531 C 52.277344 12.46875 52.429688 12.800781 52.601562 13.121094 C 52.667969 13.25 52.6875 13.449219 52.933594 13.402344 C 53.007812 13.386719 53.058594 13.5 53.097656 13.570312 C 53.863281 15.011719 54.632812 16.449219 55.253906 17.972656 C 54.984375 17.507812 54.714844 17.042969 54.449219 16.578125 C 54.421875 16.585938 54.398438 16.601562 54.375 16.613281 C 54.507812 16.960938 54.636719 17.3125 54.773438 17.660156 C 55.324219 19.058594 55.753906 20.5 56.234375 21.925781 C 56.34375 22.253906 56.464844 22.578125 56.632812 22.886719 C 56.847656 23.28125 57.109375 23.605469 57.628906 23.546875 C 57.675781 23.542969 57.726562 23.5625 57.769531 23.585938 C 57.796875 23.597656 57.808594 23.636719 57.824219 23.660156 C 57.328125 23.917969 56.929688 23.792969 56.5625 23.292969 C 56.285156 22.917969 56.097656 22.492188 55.957031 22.050781 C 55.648438 21.089844 55.378906 20.121094 55.058594 19.164062 C 54.488281 17.445312 53.6875 15.835938 52.839844 14.246094 C 52.363281 13.359375 52.007812 12.410156 51.511719 11.53125 C 51.183594 10.953125 50.871094 10.375 50.398438 9.898438 C 50.355469 9.855469 50.304688 9.808594 50.359375 9.664062 Z M 50.359375 9.664062 " fill-opacity="1" fill-rule="nonzero"/><g clip-path="url(#3818a08d6a)"><path fill="#4b4e40" d="M 51.535156 9.636719 C 51.234375 9.226562 51.328125 8.804688 51.441406 8.390625 C 51.835938 6.96875 51.59375 5.640625 50.867188 4.382812 C 50.746094 4.167969 50.59375 3.972656 50.433594 3.78125 C 50.074219 3.367188 49.710938 2.964844 49.34375 2.558594 C 48.726562 1.875 47.933594 1.542969 47.042969 1.410156 C 46.976562 1.402344 46.910156 1.402344 46.84375 1.402344 C 46.152344 1.410156 45.835938 1.632812 45.652344 2.289062 C 45.421875 3.109375 45.324219 3.949219 45.511719 4.789062 C 45.808594 6.101562 46.335938 7.300781 47.335938 8.246094 C 47.972656 8.851562 48.707031 9.273438 49.59375 9.402344 C 49.757812 9.425781 49.957031 9.410156 50.121094 9.609375 C 49.675781 9.675781 49.296875 9.582031 48.929688 9.464844 C 47.757812 9.085938 46.914062 8.292969 46.269531 7.273438 C 45.851562 6.609375 45.539062 5.894531 45.347656 5.140625 C 45.085938 4.097656 45.203125 3.070312 45.523438 2.0625 C 45.753906 1.335938 46.355469 1.152344 47.132812 1.242188 C 48.464844 1.394531 49.519531 2.03125 50.316406 3.125 C 50.984375 4.039062 51.578125 4.984375 51.8125 6.113281 C 51.914062 6.589844 51.890625 7.066406 51.828125 7.542969 C 51.730469 8.242188 51.472656 8.914062 51.535156 9.636719 Z M 51.535156 9.636719 " fill-opacity="1" fill-rule="nonzero"/></g><path fill="#4b4e40" d="M 59.324219 22.621094 C 59.265625 22.5625 59.28125 22.5 59.308594 22.4375 C 59.542969 21.949219 59.371094 21.53125 59.046875 21.167969 C 58.480469 20.539062 57.992188 19.851562 57.449219 19.210938 C 56.445312 18.019531 55.554688 16.75 54.742188 15.425781 C 54.03125 14.269531 53.21875 13.183594 52.597656 11.976562 C 52.441406 11.671875 52.269531 11.375 52.175781 11.03125 C 52.476562 11.488281 52.773438 11.949219 53.074219 12.402344 C 54.261719 14.191406 55.429688 15.996094 56.640625 17.765625 C 57.371094 18.828125 58.226562 19.796875 59.058594 20.785156 C 59.207031 20.960938 59.355469 21.140625 59.476562 21.335938 C 59.699219 21.699219 59.691406 22.085938 59.539062 22.476562 C 59.503906 22.566406 59.457031 22.664062 59.324219 22.621094 Z M 59.324219 22.621094 " fill-opacity="1" fill-rule="nonzero"/><path fill="#4b4e40" d="M 50.75 6.011719 C 50.542969 5.753906 50.496094 5.542969 50.40625 5.351562 C 49.808594 4.066406 49.007812 2.964844 47.648438 2.382812 C 47.574219 2.351562 47.503906 2.300781 47.441406 2.253906 C 47.40625 2.222656 47.378906 2.167969 47.414062 2.121094 C 47.441406 2.089844 47.488281 2.046875 47.527344 2.046875 C 47.742188 2.050781 47.949219 2.101562 48.144531 2.191406 C 49.289062 2.710938 50.082031 3.539062 50.441406 4.757812 C 50.550781 5.132812 50.695312 5.5 50.75 6.011719 Z M 50.75 6.011719 " fill-opacity="1" fill-rule="nonzero"/><path fill="#4b4e40" d="M 47.796875 7.378906 C 46.28125 6.363281 45.667969 4.296875 46.074219 3.003906 C 46.136719 3.523438 46.167969 4.046875 46.285156 4.558594 C 46.402344 5.082031 46.648438 5.546875 46.894531 6.015625 C 47.148438 6.5 47.480469 6.929688 47.796875 7.378906 Z M 47.796875 7.378906 " fill-opacity="1" fill-rule="nonzero"/><path fill="#4b4e40" d="M 46.738281 6.816406 C 47.585938 7.601562 48.210938 8.613281 49.429688 8.828125 C 48.292969 8.988281 46.75 7.851562 46.738281 6.816406 Z M 46.738281 6.816406 " fill-opacity="1" fill-rule="nonzero"/><path fill="#4b4e40" d="M 58.449219 24.152344 C 58.925781 24.527344 59.097656 24.519531 59.546875 24.125 C 59.375 24.550781 59.1875 24.6875 58.824219 24.65625 C 58.394531 24.621094 58.035156 24.296875 57.960938 23.882812 C 58.164062 23.925781 58.261719 24.144531 58.464844 24.171875 Z M 58.449219 24.152344 " fill-opacity="1" fill-rule="nonzero"/><path fill="#4b4e40" d="M 57.636719 20.035156 C 57.996094 20.503906 58.367188 20.964844 58.714844 21.4375 C 58.921875 21.71875 58.914062 21.808594 58.734375 22.15625 C 58.683594 21.429688 58.164062 21.035156 57.839844 20.519531 C 57.746094 20.371094 57.652344 20.226562 57.558594 20.082031 C 57.585938 20.066406 57.609375 20.050781 57.636719 20.035156 Z M 57.636719 20.035156 " fill-opacity="1" fill-rule="nonzero"/><path fill="#4b4e40" d="M 56.625 22.066406 C 56.902344 22.5625 57.289062 22.941406 57.9375 23.136719 C 57.234375 23.277344 56.882812 22.976562 56.625 22.066406 Z M 56.625 22.066406 " fill-opacity="1" fill-rule="nonzero"/><path fill="#4b4e40" d="M 58.464844 24.171875 C 58.441406 24.128906 58.421875 24.082031 58.386719 24.046875 C 58.285156 23.941406 58.117188 23.820312 58.214844 23.679688 C 58.328125 23.515625 58.472656 23.710938 58.605469 23.75 C 58.730469 23.78125 58.851562 23.832031 58.992188 23.878906 C 58.921875 24.21875 58.640625 24.09375 58.449219 24.152344 C 58.449219 24.152344 58.464844 24.171875 58.464844 24.171875 Z M 58.464844 24.171875 " fill-opacity="1" fill-rule="nonzero"/><path fill="#4b4e40" d="M 47.296875 5.890625 C 47.550781 6.316406 47.808594 6.734375 48.148438 7.128906 C 47.726562 7.003906 47.398438 6.527344 47.296875 5.890625 Z M 47.296875 5.890625 " fill-opacity="1" fill-rule="nonzero"/><path fill="#4b4e40" d="M 50.988281 6.855469 C 51.105469 7.339844 51.121094 7.8125 50.820312 8.253906 C 50.847656 8.03125 50.882812 7.804688 50.910156 7.578125 C 50.9375 7.339844 50.960938 7.097656 50.988281 6.855469 Z M 50.988281 6.855469 " fill-opacity="1" fill-rule="nonzero"/><path fill="#4b4e40" d="M 58.859375 22.898438 C 58.949219 23.171875 58.910156 23.351562 58.753906 23.492188 C 58.695312 23.546875 58.605469 23.554688 58.535156 23.480469 C 58.484375 23.425781 58.488281 23.363281 58.53125 23.304688 C 58.621094 23.1875 58.714844 23.078125 58.859375 22.898438 Z M 58.859375 22.898438 " fill-opacity="1" fill-rule="nonzero"/><path fill="#4b4e40" d="M 57.777344 20.84375 C 57.660156 20.796875 57.605469 20.707031 57.59375 20.578125 C 57.742188 20.609375 57.734375 20.746094 57.777344 20.84375 Z M 57.777344 20.84375 " fill-opacity="1" fill-rule="nonzero"/><path fill="#4b4e40" d="M 20.605469 18.132812 C 20.542969 17.964844 20.476562 17.796875 20.414062 17.632812 C 20.339844 17.433594 20.226562 17.242188 20.191406 17.039062 C 20.058594 16.269531 19.875 15.507812 19.710938 14.742188 C 19.683594 14.617188 19.664062 14.476562 19.695312 14.355469 C 19.863281 13.710938 19.914062 13.035156 20.203125 12.421875 C 20.367188 12.066406 20.507812 11.703125 20.671875 11.347656 C 20.75 11.175781 20.816406 10.984375 21.058594 10.84375 C 21.011719 11.503906 20.835938 12.074219 20.585938 12.617188 C 20.402344 13.015625 20.355469 13.429688 20.367188 13.855469 C 20.371094 14.082031 20.457031 14.261719 20.636719 14.402344 C 21.152344 14.804688 21.609375 15.257812 22.046875 15.746094 C 22.3125 16.042969 22.753906 16.011719 23.144531 15.980469 C 23.253906 15.972656 23.359375 15.914062 23.464844 15.875 C 24.023438 15.664062 24.550781 15.664062 25.035156 16.058594 C 25.109375 16.121094 25.195312 16.1875 25.285156 16.203125 C 26.175781 16.386719 26.867188 16.949219 27.609375 17.414062 C 27.835938 17.554688 28.007812 17.753906 28.152344 17.972656 C 28.246094 18.113281 28.332031 18.128906 28.46875 18.023438 C 28.859375 17.730469 29.242188 17.425781 29.703125 17.242188 C 29.828125 17.195312 29.839844 17.070312 29.867188 16.957031 C 30.011719 16.296875 30.308594 15.695312 30.65625 15.125 C 30.929688 14.675781 31.0625 14.21875 31.039062 13.691406 C 31.003906 12.878906 31.421875 12.210938 31.757812 11.519531 C 31.757812 12.082031 31.515625 12.589844 31.4375 13.132812 C 31.363281 13.675781 31.527344 14.230469 31.296875 14.859375 C 31.617188 14.625 31.621094 14.378906 31.640625 14.136719 C 31.691406 13.488281 31.753906 12.835938 31.96875 12.214844 C 32.027344 12.058594 32.046875 11.867188 32.265625 11.769531 C 32.382812 11.988281 32.332031 12.195312 32.300781 12.394531 C 32.207031 12.988281 32.097656 13.585938 32 14.179688 C 31.921875 14.644531 31.71875 15.011719 31.230469 15.148438 C 31.105469 15.183594 31.035156 15.257812 30.972656 15.355469 C 30.632812 15.890625 30.304688 16.433594 30.105469 17.109375 C 30.59375 17.039062 31.054688 17.046875 31.511719 17.042969 C 31.660156 17.042969 31.6875 16.945312 31.726562 16.828125 C 32.0625 15.824219 32.335938 14.800781 32.675781 13.796875 C 32.859375 13.242188 32.953125 12.660156 33.078125 12.085938 C 33.144531 11.789062 33.097656 11.492188 32.953125 11.230469 C 32.597656 10.566406 32.234375 9.910156 31.585938 9.472656 C 31.351562 9.3125 31.1875 9.09375 31.042969 8.851562 C 30.902344 8.613281 30.75 8.378906 30.609375 8.140625 C 30.332031 7.667969 29.921875 7.355469 29.402344 7.207031 C 28.984375 7.089844 28.710938 6.855469 28.625 6.421875 C 28.578125 6.199219 28.421875 6.058594 28.242188 5.9375 C 27.253906 5.289062 26.351562 4.546875 25.664062 3.570312 C 25.425781 3.234375 25.03125 3.125 24.667969 2.992188 C 24.640625 2.96875 24.613281 2.949219 24.585938 2.925781 C 24.464844 2.816406 24.339844 2.714844 24.222656 2.601562 C 24.140625 2.527344 24.015625 2.445312 24.113281 2.320312 C 24.203125 2.199219 24.320312 2.304688 24.421875 2.339844 C 24.496094 2.371094 24.566406 2.417969 24.636719 2.457031 C 24.90625 2.609375 25.167969 2.773438 25.445312 2.917969 C 25.679688 3.042969 25.890625 3.195312 26.035156 3.417969 C 26.460938 4.097656 27.082031 4.578125 27.691406 5.070312 C 28.128906 5.421875 28.519531 5.800781 28.757812 6.320312 C 28.921875 6.675781 29.199219 6.867188 29.589844 7.007812 C 30.203125 7.222656 30.84375 7.183594 31.460938 7.335938 C 32.550781 7.605469 33.691406 7.8125 34.667969 8.34375 C 35.808594 8.960938 36.996094 9.511719 38.058594 10.28125 C 40.183594 11.824219 41.789062 13.757812 42.894531 16.140625 C 43.5625 17.582031 44.003906 19.058594 44.175781 20.632812 C 44.355469 22.335938 44.316406 24.019531 43.925781 25.691406 C 43.835938 26.070312 43.796875 26.460938 43.71875 26.847656 C 43.515625 27.847656 43.179688 28.792969 42.570312 29.625 C 42.433594 29.808594 42.402344 29.996094 42.414062 30.21875 C 42.464844 31.035156 42.484375 31.851562 42.394531 32.667969 C 42.347656 33.09375 42.417969 33.515625 42.507812 33.929688 C 42.597656 34.34375 42.558594 34.742188 42.40625 35.128906 C 42.257812 35.511719 42.117188 35.898438 41.917969 36.25 C 41.671875 36.683594 41.519531 37.136719 41.449219 37.628906 C 41.378906 38.113281 41.273438 38.589844 41.195312 39.074219 C 41.140625 39.402344 41.0625 39.707031 40.824219 39.960938 C 40.621094 40.171875 40.621094 40.46875 40.5625 40.738281 C 40.515625 40.964844 40.460938 41.183594 40.332031 41.375 C 40.105469 41.714844 39.832031 41.765625 39.496094 41.535156 C 39.46875 41.519531 39.441406 41.5 39.417969 41.476562 C 38.46875 40.457031 37.230469 39.859375 36.066406 39.144531 C 35.761719 38.957031 35.453125 38.769531 35.175781 38.542969 C 34.808594 38.246094 34.449219 37.9375 33.957031 37.851562 C 33.835938 37.832031 33.703125 37.753906 33.625 37.65625 C 33.410156 37.394531 33.195312 37.417969 32.90625 37.546875 C 31.503906 38.171875 30.035156 38.308594 28.503906 38.230469 C 26.773438 38.144531 25.117188 37.75 23.496094 37.191406 C 21.789062 36.605469 20.15625 35.839844 18.828125 34.585938 C 17.617188 33.445312 16.464844 32.261719 15.675781 30.75 C 14.839844 29.148438 14.105469 27.523438 13.769531 25.742188 C 13.011719 21.730469 13.582031 17.90625 15.496094 14.308594 C 16.507812 12.410156 17.964844 10.871094 19.753906 9.660156 C 19.984375 9.503906 20.230469 9.375 20.472656 9.242188 C 20.550781 9.203125 20.628906 9.125 20.761719 9.167969 C 20.21875 9.570312 19.679688 9.957031 19.160156 10.363281 C 17.46875 11.703125 16.09375 13.308594 15.277344 15.316406 C 14.242188 17.871094 13.742188 20.542969 13.800781 23.300781 C 13.824219 24.234375 14.074219 25.140625 14.28125 26.046875 C 14.46875 26.875 14.753906 27.679688 15.097656 28.453125 C 15.753906 29.949219 16.515625 31.402344 17.453125 32.734375 C 18.335938 33.984375 19.4375 35.011719 20.859375 35.675781 C 22.566406 36.472656 24.308594 37.144531 26.15625 37.539062 C 27.203125 37.757812 28.265625 37.714844 29.324219 37.71875 C 30.46875 37.726562 31.609375 37.660156 32.71875 37.332031 C 32.894531 37.28125 33.1875 37.316406 33.207031 37.109375 C 33.234375 36.84375 33.132812 36.554688 32.863281 36.394531 C 32.558594 36.207031 32.257812 36.003906 31.933594 35.851562 C 31.675781 35.726562 31.453125 35.585938 31.316406 35.328125 C 31.226562 35.160156 31.09375 35.050781 30.910156 35 C 30.699219 34.941406 30.523438 34.816406 30.40625 34.632812 C 30.109375 34.179688 29.675781 33.894531 29.21875 33.632812 C 29.019531 33.519531 28.832031 33.398438 28.671875 33.226562 C 28.246094 32.78125 28.105469 32.28125 28.371094 31.730469 C 28.300781 31.609375 28.214844 31.625 28.140625 31.636719 C 27.300781 31.773438 26.523438 31.542969 25.757812 31.242188 C 25.394531 31.097656 25.023438 30.980469 24.652344 30.851562 C 22.886719 30.234375 21.441406 29.199219 20.542969 27.507812 C 20.523438 27.464844 20.511719 27.417969 20.503906 27.371094 C 20.5 27.359375 20.515625 27.34375 20.53125 27.304688 C 20.703125 27.355469 20.765625 27.511719 20.851562 27.636719 C 21.375 28.414062 22.027344 29.066406 22.761719 29.652344 C 23.347656 30.117188 23.996094 30.441406 24.703125 30.65625 C 25.0625 30.761719 25.417969 30.882812 25.765625 31.023438 C 26.550781 31.339844 27.375 31.425781 28.214844 31.417969 C 28.402344 31.414062 28.519531 31.351562 28.582031 31.171875 C 28.703125 30.8125 28.832031 30.464844 28.695312 30.078125 C 28.589844 29.773438 28.648438 29.460938 28.738281 29.160156 C 28.863281 28.738281 28.996094 28.320312 29.140625 27.902344 C 29.421875 27.097656 29.453125 26.277344 29.296875 25.441406 C 29.277344 25.332031 29.226562 25.21875 29.316406 25.089844 C 29.585938 25.175781 29.605469 25.433594 29.628906 25.632812 C 29.722656 26.347656 29.78125 27.066406 29.613281 27.773438 C 29.519531 28.171875 29.390625 28.558594 29.269531 28.949219 C 29.144531 29.355469 29.050781 29.757812 29.183594 30.195312 C 29.273438 30.492188 29.226562 30.8125 29.140625 31.113281 C 29.054688 31.429688 28.953125 31.738281 28.863281 32.050781 C 28.71875 32.53125 28.960938 33.105469 29.390625 33.34375 C 29.890625 33.621094 30.320312 33.984375 30.75 34.363281 C 31.140625 34.710938 31.582031 34.996094 31.953125 35.382812 C 32.144531 35.582031 32.488281 35.679688 32.769531 35.808594 C 33.308594 36.0625 33.625 36.476562 33.792969 37.03125 C 33.8125 37.089844 33.792969 37.164062 33.84375 37.210938 C 33.910156 37.277344 33.980469 37.371094 34.089844 37.3125 C 34.175781 37.269531 34.179688 37.167969 34.152344 37.097656 C 34.019531 36.707031 33.980469 36.300781 33.878906 35.90625 C 33.707031 35.253906 33.8125 34.632812 34.132812 34.0625 C 34.523438 33.375 34.722656 32.613281 35.042969 31.898438 C 35.09375 31.78125 35.125 31.644531 35.125 31.519531 C 35.113281 31.082031 35.296875 30.730469 35.5625 30.40625 C 35.738281 30.191406 35.917969 29.980469 36.046875 29.734375 C 36.304688 29.253906 36.230469 28.726562 35.765625 28.441406 C 35.171875 28.074219 34.699219 27.523438 34.027344 27.269531 C 33.777344 27.175781 33.605469 26.960938 33.496094 26.71875 C 33.289062 26.246094 32.933594 25.945312 32.472656 25.722656 C 31.726562 25.359375 31.238281 24.738281 31.003906 23.953125 C 30.816406 24.007812 30.738281 24.167969 30.648438 24.3125 C 30.378906 24.734375 30.015625 24.953125 29.5 24.878906 C 29.226562 24.835938 28.949219 24.820312 28.675781 24.917969 C 28.5 24.980469 28.320312 24.917969 28.15625 24.835938 C 27.96875 24.738281 27.769531 24.65625 27.597656 24.539062 C 27.398438 24.398438 27.195312 24.355469 26.957031 24.355469 C 26.492188 24.359375 26.265625 24.195312 26.121094 23.753906 C 26.003906 23.402344 25.839844 23.042969 26.003906 22.660156 C 26.0625 22.523438 25.996094 22.453125 25.898438 22.378906 C 25.648438 22.183594 25.527344 21.925781 25.542969 21.613281 C 25.550781 21.460938 25.472656 21.375 25.351562 21.300781 C 24.9375 21.039062 24.609375 20.664062 24.179688 20.417969 C 23.964844 20.292969 23.816406 20.09375 23.691406 19.878906 C 23.546875 19.632812 23.332031 19.492188 23.050781 19.503906 C 21.949219 19.566406 21.183594 19.046875 20.632812 18.140625 C 20.625 18.125 20.605469 18.121094 20.589844 18.113281 Z M 33.003906 22.21875 C 33.199219 22.234375 33.316406 22.375 33.453125 22.488281 C 34.082031 23.011719 34.707031 23.535156 35.339844 24.046875 C 35.785156 24.410156 36.273438 24.707031 36.816406 24.902344 C 37.050781 24.988281 37.261719 25.113281 37.449219 25.269531 C 37.789062 25.558594 38.167969 25.777344 38.574219 25.953125 C 39 26.136719 39.371094 26.398438 39.71875 26.695312 C 40.214844 27.117188 40.65625 27.597656 41.160156 28.011719 C 41.546875 28.332031 41.867188 28.734375 42.117188 29.183594 C 42.171875 29.273438 42.171875 29.40625 42.359375 29.449219 C 42.546875 29.027344 42.855469 28.664062 43.019531 28.21875 C 43.550781 26.769531 43.894531 25.28125 43.890625 23.730469 C 43.890625 23.417969 43.855469 23.109375 43.878906 22.800781 C 44.03125 20.714844 43.574219 18.75 42.703125 16.867188 C 42.425781 16.277344 42.140625 15.691406 41.835938 15.113281 C 41.347656 14.183594 40.777344 13.324219 39.949219 12.644531 C 38.761719 11.671875 37.621094 10.644531 36.445312 9.664062 C 35.828125 9.148438 35.121094 8.777344 34.34375 8.546875 C 33.609375 8.324219 32.886719 8.074219 32.148438 7.859375 C 31.714844 7.730469 31.269531 7.648438 30.773438 7.53125 C 31 7.890625 31.203125 8.1875 31.375 8.5 C 31.546875 8.804688 31.757812 9.058594 32.039062 9.269531 C 32.539062 9.644531 32.917969 10.128906 33.253906 10.660156 C 33.636719 11.269531 33.738281 11.90625 33.503906 12.578125 C 33 14.039062 32.675781 15.5625 32.09375 16.996094 C 32.035156 17.140625 32 17.261719 32.101562 17.40625 C 32.28125 17.660156 32.441406 17.929688 32.5 18.242188 C 32.515625 18.328125 32.566406 18.375 32.652344 18.40625 C 33.148438 18.597656 33.28125 19.035156 33.386719 19.488281 C 33.429688 19.679688 33.449219 19.875 33.601562 20.019531 C 33.792969 20.199219 33.796875 20.425781 33.738281 20.65625 C 33.640625 21.054688 33.480469 21.425781 33.234375 21.757812 C 33.128906 21.894531 32.972656 22.019531 33.011719 22.226562 C 32.984375 22.238281 32.941406 22.242188 32.925781 22.261719 C 32.523438 22.832031 32.0625 23.320312 31.382812 23.566406 C 31.1875 23.636719 31.242188 23.78125 31.332031 23.921875 C 31.714844 24.550781 32.238281 25.03125 32.882812 25.378906 C 33.128906 25.511719 33.371094 25.644531 33.574219 25.832031 C 33.976562 26.210938 34.363281 26.601562 34.925781 26.753906 C 35.101562 26.800781 35.25 26.964844 35.402344 27.085938 C 35.605469 27.25 35.789062 27.445312 36 27.589844 C 36.667969 28.050781 36.777344 28.667969 36.5625 29.402344 C 36.460938 29.75 36.3125 30.074219 36.113281 30.375 C 35.988281 30.5625 35.855469 30.75 35.722656 30.9375 C 35.515625 31.222656 35.367188 31.511719 35.480469 31.886719 C 35.527344 32.03125 35.492188 32.210938 35.46875 32.371094 C 35.355469 33.101562 35.171875 33.804688 34.75 34.429688 C 34.539062 34.742188 34.378906 35.082031 34.238281 35.429688 C 34.191406 35.550781 34.121094 35.738281 34.238281 35.792969 C 34.492188 35.902344 34.617188 36.242188 34.851562 36.25 C 35.347656 36.261719 35.648438 36.5625 36.027344 36.800781 C 36.304688 36.976562 36.523438 37.144531 36.65625 37.429688 C 36.738281 37.601562 36.835938 37.738281 37.0625 37.714844 C 37.335938 37.683594 37.519531 37.839844 37.671875 38.046875 C 37.769531 38.175781 37.855469 38.363281 38.019531 38.367188 C 38.363281 38.375 38.511719 38.574219 38.617188 38.851562 C 38.671875 39 38.816406 39.054688 38.9375 39.140625 C 39.238281 39.34375 39.371094 39.625 39.347656 39.96875 C 39.09375 39.808594 39.097656 39.410156 38.765625 39.34375 C 38.414062 39.277344 38.339844 38.980469 38.222656 38.71875 C 38.210938 38.691406 38.171875 38.667969 38.144531 38.664062 C 37.925781 38.628906 37.824219 38.460938 37.714844 38.296875 C 37.546875 38.046875 37.320312 37.90625 37.003906 38.003906 C 36.691406 38.101562 36.472656 37.964844 36.382812 37.6875 C 36.207031 37.152344 35.550781 37.085938 35.34375 36.589844 C 35.328125 36.558594 35.253906 36.535156 35.210938 36.539062 C 34.835938 36.597656 34.570312 36.378906 34.3125 36.136719 C 34.222656 36.332031 34.320312 36.480469 34.359375 36.632812 C 34.40625 36.804688 34.507812 36.972656 34.472656 37.152344 C 34.421875 37.414062 34.554688 37.523438 34.75 37.65625 C 35.761719 38.339844 36.765625 39.039062 37.769531 39.738281 C 38.304688 40.109375 38.742188 40.601562 39.285156 40.972656 C 39.953125 41.421875 39.9375 41.445312 40.085938 40.667969 C 40.160156 40.300781 40.210938 39.914062 40.519531 39.652344 C 40.773438 39.441406 40.886719 39.160156 40.960938 38.855469 C 41.046875 38.503906 41.105469 38.152344 41.144531 37.792969 C 41.195312 37.324219 41.269531 36.855469 41.519531 36.4375 C 41.792969 35.96875 41.964844 35.457031 42.136719 34.949219 C 42.246094 34.636719 42.292969 34.3125 42.210938 33.988281 C 42.066406 33.425781 42.078125 32.859375 42.097656 32.285156 C 42.121094 31.714844 42.074219 31.144531 42.046875 30.574219 C 41.988281 29.441406 41.300781 28.640625 40.585938 27.882812 C 40.257812 27.535156 39.816406 27.269531 39.367188 27.03125 C 38.636719 26.644531 37.90625 26.230469 37.316406 25.628906 C 37.140625 25.449219 36.910156 25.355469 36.667969 25.296875 C 36.359375 25.226562 36.082031 25.097656 35.828125 24.914062 C 35.027344 24.347656 34.265625 23.734375 33.558594 23.058594 C 33.320312 22.824219 33.085938 22.570312 33.003906 22.21875 Z M 26.234375 22.234375 C 26.449219 21.789062 26.753906 21.425781 26.894531 20.960938 C 27.019531 20.542969 27.3125 20.226562 27.703125 20.023438 C 27.847656 19.949219 28.050781 19.78125 28.171875 20.007812 C 28.265625 20.195312 28.039062 20.285156 27.914062 20.359375 C 27.152344 20.824219 26.949219 21.6875 26.46875 22.351562 C 26.371094 22.480469 26.378906 22.695312 26.363281 22.871094 C 26.339844 23.167969 26.761719 23.886719 27.003906 23.890625 C 27.390625 23.898438 27.613281 24.132812 27.886719 24.335938 C 28.199219 24.570312 28.542969 24.875 28.988281 24.554688 C 29.070312 24.496094 29.175781 24.515625 29.273438 24.535156 C 29.71875 24.632812 30.019531 24.457031 30.246094 24.070312 C 30.558594 23.535156 31.03125 23.1875 31.578125 22.890625 C 32.386719 22.457031 32.902344 21.710938 33.378906 20.945312 C 33.445312 20.839844 33.46875 20.703125 33.488281 20.574219 C 33.503906 20.480469 33.515625 20.351562 33.464844 20.292969 C 33.152344 19.925781 32.996094 19.472656 32.738281 19.078125 C 32.652344 18.945312 32.550781 18.867188 32.375 18.898438 C 31.839844 18.992188 31.246094 18.929688 30.882812 19.464844 C 30.875 19.480469 30.855469 19.484375 30.84375 19.492188 C 30.785156 19.53125 30.722656 19.546875 30.664062 19.5 C 30.605469 19.449219 30.609375 19.378906 30.636719 19.320312 C 30.832031 18.902344 31.113281 18.585938 31.59375 18.488281 C 31.714844 18.464844 31.855469 18.507812 31.984375 18.394531 C 31.90625 18.246094 31.796875 18.097656 31.753906 17.933594 C 31.664062 17.585938 31.429688 17.472656 31.105469 17.457031 C 30.308594 17.410156 29.632812 17.691406 29.074219 18.246094 C 28.554688 18.769531 27.972656 19.148438 27.246094 19.3125 C 26.878906 19.394531 26.59375 19.625 26.496094 20.011719 C 26.410156 20.371094 26.261719 20.683594 26.03125 20.96875 C 25.917969 21.113281 25.839844 21.273438 25.996094 21.449219 C 26.0625 21.523438 26.09375 21.628906 25.949219 21.675781 C 25.8125 21.71875 25.835938 21.816406 25.878906 21.90625 C 25.949219 22.035156 26.023438 22.164062 26.234375 22.234375 Z M 28.082031 18.261719 C 27.894531 17.910156 27.609375 17.679688 27.273438 17.503906 C 26.527344 17.105469 25.792969 16.691406 25.007812 16.359375 C 24.632812 16.203125 24.296875 16.167969 23.925781 16.269531 C 23.753906 16.316406 23.582031 16.375 23.417969 16.441406 C 23.027344 16.605469 22.683594 16.523438 22.375 16.25 C 22.15625 16.054688 21.914062 15.890625 21.65625 15.746094 C 21.015625 15.386719 20.433594 14.953125 19.90625 14.386719 C 19.886719 14.660156 19.988281 14.867188 20.066406 15.078125 C 20.1875 15.398438 20.339844 15.710938 20.367188 16.054688 C 20.441406 16.9375 20.882812 17.65625 21.375 18.355469 C 21.679688 18.789062 22.101562 19.046875 22.636719 19.105469 C 22.765625 19.117188 22.894531 19.152344 23.023438 19.15625 C 23.363281 19.171875 23.636719 19.332031 23.777344 19.625 C 24.121094 20.347656 24.894531 20.539062 25.433594 21.015625 C 25.503906 21.078125 25.609375 21.109375 25.6875 20.996094 C 25.925781 20.652344 26.238281 20.371094 26.335938 19.921875 C 26.449219 19.414062 26.78125 19.03125 27.25 18.773438 C 27.53125 18.621094 27.855469 18.527344 28.082031 18.261719 Z M 28.082031 18.261719 " fill-opacity="1" fill-rule="nonzero"/><path fill="#4b4e40" d="M 24.589844 2.929688 C 24.613281 2.949219 24.644531 2.972656 24.667969 2.996094 C 24.90625 3.347656 25.175781 3.675781 25.496094 3.953125 C 26.007812 4.394531 26.441406 4.898438 26.816406 5.457031 C 27.078125 5.835938 27.378906 6.175781 27.753906 6.445312 C 28.101562 6.695312 28.328125 7.019531 28.457031 7.417969 C 28.566406 7.753906 28.746094 8.027344 29.042969 8.238281 C 29.25 8.382812 29.4375 8.582031 29.589844 8.789062 C 29.808594 9.078125 30.09375 9.28125 30.425781 9.347656 C 31.25 9.511719 31.542969 10.550781 31.273438 11.253906 C 31.125 11.652344 30.929688 12.03125 30.695312 12.382812 C 30.367188 12.871094 30.210938 13.402344 30.160156 13.984375 C 30.113281 14.539062 30.023438 15.085938 29.945312 15.632812 C 29.898438 15.96875 29.664062 16.21875 29.53125 16.515625 C 29.390625 16.835938 29.261719 17.167969 29.007812 17.433594 C 29.035156 16.960938 29.121094 16.507812 29.347656 16.101562 C 29.46875 15.875 29.519531 15.65625 29.519531 15.402344 C 29.527344 14.714844 29.636719 14.039062 29.738281 13.363281 C 29.839844 12.671875 30.230469 12.089844 30.554688 11.488281 C 30.71875 11.179688 30.839844 10.867188 30.835938 10.511719 C 30.828125 10.210938 30.71875 9.976562 30.4375 9.835938 C 30.292969 9.761719 30.15625 9.675781 30.007812 9.605469 C 29.761719 9.484375 29.554688 9.347656 29.535156 9.039062 C 29.523438 8.855469 29.40625 8.796875 29.238281 8.789062 C 29.09375 8.777344 28.949219 8.730469 28.804688 8.703125 C 28.332031 8.609375 27.992188 8.335938 27.859375 7.878906 C 27.714844 7.359375 27.425781 6.9375 27.105469 6.519531 C 26.90625 6.265625 26.726562 5.988281 26.542969 5.722656 C 26.320312 5.398438 26.113281 5.0625 25.839844 4.78125 C 25.359375 4.296875 24.84375 3.84375 24.496094 3.25 C 24.300781 3.308594 24.375 3.445312 24.371094 3.542969 C 24.347656 4.117188 24.238281 4.675781 24.019531 5.210938 C 23.621094 6.179688 23.140625 7.105469 22.511719 7.945312 C 22.144531 8.429688 21.8125 8.925781 21.648438 9.519531 C 21.589844 9.722656 21.488281 9.902344 21.335938 10.054688 C 21.484375 9.386719 21.683594 8.738281 22.015625 8.140625 C 22.492188 7.269531 22.914062 6.367188 23.335938 5.46875 C 23.667969 4.769531 23.941406 4.054688 24.003906 3.28125 C 24.042969 2.785156 24.207031 2.730469 24.589844 2.929688 Z M 24.589844 2.929688 " fill-opacity="1" fill-rule="nonzero"/><path fill="#4b4e40" d="M 27.128906 16.03125 C 26.914062 15.90625 26.835938 15.710938 26.75 15.519531 C 26.5625 15.085938 26.363281 14.65625 26.125 14.25 C 25.835938 13.757812 25.753906 13.207031 25.742188 12.652344 C 25.710938 11.296875 25.574219 9.957031 25.320312 8.625 C 25.246094 8.242188 25.257812 8.214844 25.347656 7.855469 C 25.511719 7.953125 25.535156 8.113281 25.582031 8.261719 C 25.992188 9.609375 26.285156 10.96875 26.179688 12.390625 C 26.128906 13.101562 26.257812 13.78125 26.535156 14.441406 C 26.757812 14.960938 26.933594 15.5 27.128906 16.03125 Z M 27.128906 16.03125 " fill-opacity="1" fill-rule="nonzero"/><path fill="#4b4e40" d="M 20.589844 18.121094 C 19.84375 19.449219 19.425781 20.878906 19.367188 22.398438 C 19.328125 23.488281 19.472656 24.570312 19.71875 25.640625 C 19.742188 25.730469 19.796875 25.820312 19.746094 25.925781 C 19.585938 25.804688 19.574219 25.613281 19.535156 25.449219 C 19.363281 24.722656 19.210938 23.988281 19.058594 23.257812 C 19.027344 23.113281 19.015625 22.964844 19.015625 22.820312 C 19.023438 21.488281 19.296875 20.207031 19.820312 18.980469 C 19.925781 18.738281 20.074219 18.523438 20.234375 18.320312 C 20.328125 18.203125 20.425781 18.089844 20.601562 18.132812 C 20.605469 18.132812 20.589844 18.121094 20.589844 18.121094 Z M 20.589844 18.121094 " fill-opacity="1" fill-rule="nonzero"/><path fill="#4b4e40" d="M 31.214844 31.488281 C 31.011719 31.335938 31.015625 31.113281 30.984375 30.914062 C 30.914062 30.449219 30.859375 29.984375 30.917969 29.507812 C 30.960938 29.136719 30.957031 28.757812 30.960938 28.386719 C 30.972656 27.652344 30.957031 26.917969 30.617188 26.242188 C 30.570312 26.15625 30.53125 26.046875 30.648438 25.992188 C 30.738281 25.949219 30.800781 26.027344 30.855469 26.085938 C 31.160156 26.449219 31.28125 26.890625 31.332031 27.347656 C 31.375 27.75 31.398438 28.160156 31.386719 28.5625 C 31.371094 29.050781 31.308594 29.535156 31.273438 30.023438 C 31.234375 30.507812 31.238281 30.992188 31.214844 31.488281 Z M 31.214844 31.488281 " fill-opacity="1" fill-rule="nonzero"/><path fill="#4b4e40" d="M 28.066406 16.199219 C 27.871094 15.992188 27.855469 15.800781 27.820312 15.613281 C 27.652344 14.691406 27.632812 13.785156 27.890625 12.859375 C 28.144531 11.953125 28.070312 11.019531 27.828125 9.863281 C 28.019531 10.015625 28.0625 10.203125 28.097656 10.378906 C 28.300781 11.328125 28.425781 12.28125 28.214844 13.242188 C 28.0625 13.917969 27.992188 14.589844 28.078125 15.28125 C 28.109375 15.558594 28.132812 15.847656 28.066406 16.199219 Z M 28.066406 16.199219 " fill-opacity="1" fill-rule="nonzero"/><path fill="#4b4e40" d="M 22.226562 11.730469 C 22.234375 11.695312 22.242188 11.664062 22.25 11.632812 C 22.308594 11.324219 22.511719 10.859375 22.71875 10.597656 C 22.792969 10.5 22.828125 10.398438 22.820312 10.28125 C 22.8125 10.132812 22.808594 9.984375 22.792969 9.839844 C 22.742188 9.347656 22.859375 8.949219 23.324219 8.683594 C 23.65625 8.492188 23.820312 8.21875 23.59375 7.824219 C 23.480469 7.628906 23.59375 7.449219 23.722656 7.289062 C 23.863281 7.113281 24.015625 6.9375 24.144531 6.75 C 24.332031 6.488281 24.433594 6.203125 24.308594 5.878906 C 24.234375 5.683594 24.277344 5.496094 24.355469 5.308594 C 24.433594 5.113281 24.503906 4.917969 24.527344 4.699219 C 24.621094 4.730469 24.601562 4.804688 24.59375 4.851562 C 24.507812 5.296875 24.429688 5.726562 24.625 6.183594 C 24.734375 6.4375 24.574219 6.722656 24.414062 6.957031 C 24.300781 7.117188 24.175781 7.269531 24.046875 7.417969 C 23.960938 7.519531 23.871094 7.617188 23.902344 7.761719 C 23.984375 8.1875 23.773438 8.5 23.472656 8.738281 C 23.082031 9.046875 22.957031 9.421875 23.015625 9.894531 C 23.066406 10.300781 23.007812 10.671875 22.628906 10.929688 C 22.492188 11.023438 22.433594 11.171875 22.449219 11.355469 C 22.460938 11.515625 22.433594 11.6875 22.214844 11.714844 Z M 22.226562 11.730469 " fill-opacity="1" fill-rule="nonzero"/><path fill="#4b4e40" d="M 23.507812 11.96875 C 23.796875 12.648438 23.960938 13.316406 24.347656 13.890625 C 24.722656 14.449219 25.324219 14.820312 25.625 15.4375 C 24.429688 14.757812 23.585938 13.824219 23.421875 12.40625 C 23.40625 12.28125 23.359375 12.152344 23.507812 11.96875 Z M 23.507812 11.96875 " fill-opacity="1" fill-rule="nonzero"/><path fill="#4b4e40" d="M 31.949219 30.359375 C 32.152344 30.484375 32.207031 30.695312 32.269531 30.894531 C 32.441406 31.449219 32.597656 32.015625 32.761719 32.574219 C 32.789062 32.675781 32.800781 32.773438 32.679688 32.816406 C 32.589844 32.847656 32.523438 32.796875 32.46875 32.734375 C 32.4375 32.695312 32.410156 32.652344 32.390625 32.609375 C 32.070312 31.945312 31.867188 31.246094 31.847656 30.503906 C 31.847656 30.457031 31.855469 30.410156 31.949219 30.359375 Z M 31.949219 30.359375 " fill-opacity="1" fill-rule="nonzero"/><path fill="#4b4e40" d="M 33.523438 29.980469 C 33.371094 29.648438 33.265625 29.402344 33.144531 29.167969 C 32.875 28.648438 32.542969 28.164062 32.21875 27.679688 C 32.144531 27.570312 31.980469 27.417969 32.136719 27.304688 C 32.277344 27.203125 32.398438 27.382812 32.484375 27.492188 C 32.921875 28.039062 33.285156 28.632812 33.519531 29.296875 C 33.585938 29.480469 33.628906 29.667969 33.523438 29.980469 Z M 33.523438 29.980469 " fill-opacity="1" fill-rule="nonzero"/><path fill="#4b4e40" d="M 22.214844 11.71875 C 22.167969 11.957031 21.996094 12.171875 22.089844 12.449219 C 22.136719 12.589844 22.019531 12.726562 21.90625 12.828125 C 21.585938 13.125 21.535156 13.464844 21.757812 13.839844 C 21.824219 13.957031 21.867188 14.078125 21.851562 14.210938 C 21.8125 14.503906 21.851562 14.792969 21.902344 15.085938 C 21.730469 14.859375 21.601562 14.617188 21.589844 14.328125 C 21.585938 14.191406 21.554688 14.074219 21.488281 13.957031 C 21.257812 13.5625 21.351562 13.195312 21.632812 12.878906 C 21.816406 12.679688 21.980469 12.515625 21.929688 12.203125 C 21.894531 12 22.085938 11.863281 22.230469 11.730469 C 22.226562 11.730469 22.214844 11.71875 22.214844 11.71875 Z M 22.214844 11.71875 " fill-opacity="1" fill-rule="nonzero"/><path fill="#4b4e40" d="M 26.792969 6.425781 C 26.105469 6.160156 25.441406 5.863281 25.160156 5.097656 C 25.128906 5.011719 25.050781 4.933594 24.972656 4.878906 C 24.652344 4.65625 24.566406 4.351562 24.605469 3.988281 C 24.730469 3.933594 24.753906 4.027344 24.769531 4.097656 C 24.90625 4.664062 25.367188 5.039062 25.617188 5.539062 C 25.765625 5.832031 26.042969 5.972656 26.34375 6.085938 C 26.519531 6.148438 26.710938 6.214844 26.792969 6.425781 Z M 26.792969 6.425781 " fill-opacity="1" fill-rule="nonzero"/><path fill="#4b4e40" d="M 29.054688 10.1875 C 29.230469 10.550781 29.261719 10.941406 29.269531 11.335938 C 29.269531 11.355469 29.234375 11.386719 29.210938 11.398438 C 29.132812 11.429688 29.074219 11.375 29.046875 11.324219 C 28.851562 10.949219 28.867188 10.570312 29.054688 10.1875 Z M 29.054688 10.1875 " fill-opacity="1" fill-rule="nonzero"/><path fill="#4b4e40" d="M 38.023438 25.378906 C 38.671875 22.855469 38.773438 20.398438 37.582031 18 C 37.777344 17.992188 37.792969 18.101562 37.832031 18.171875 C 38.597656 19.628906 38.902344 21.171875 38.710938 22.808594 C 38.632812 23.472656 38.601562 24.144531 38.375 24.78125 C 38.300781 24.988281 38.253906 25.21875 38.023438 25.378906 Z M 38.023438 25.378906 " fill-opacity="1" fill-rule="nonzero"/><path fill="#4b4e40" d="M 33.269531 13.976562 C 33.476562 13.855469 33.605469 13.941406 33.734375 14 C 34.75 14.46875 35.679688 15.0625 36.46875 15.863281 C 36.917969 16.320312 37.152344 16.769531 37.273438 17.441406 C 36.34375 15.785156 34.90625 14.785156 33.269531 13.976562 Z M 33.269531 13.976562 " fill-opacity="1" fill-rule="nonzero"/><path fill="#4b4e40" d="M 40.109375 33.484375 C 39.835938 33.355469 39.785156 33.140625 39.703125 32.957031 C 39.550781 32.617188 39.414062 32.265625 39.265625 31.925781 C 39.175781 31.726562 39.15625 31.515625 39.152344 31.304688 C 39.136719 30.714844 38.867188 30.242188 38.476562 29.828125 C 38.242188 29.582031 37.976562 29.367188 37.691406 29.171875 C 37.449219 29.007812 37.210938 28.832031 37.015625 28.613281 C 36.828125 28.402344 36.679688 28.171875 36.636719 27.886719 C 36.617188 27.753906 36.613281 27.609375 36.761719 27.550781 C 36.890625 27.5 36.96875 27.617188 37.035156 27.707031 C 37.339844 28.121094 37.746094 28.417969 38.15625 28.714844 C 38.367188 28.871094 38.554688 29.046875 38.726562 29.25 C 39.085938 29.675781 39.292969 30.15625 39.238281 30.726562 C 39.214844 30.972656 39.214844 31.222656 39.359375 31.4375 C 39.640625 31.851562 39.761719 32.320312 39.882812 32.792969 C 39.941406 33.007812 40.019531 33.214844 40.109375 33.484375 Z M 40.109375 33.484375 " fill-opacity="1" fill-rule="nonzero"/><path fill="#4b4e40" d="M 37.015625 26.527344 C 37.0625 26.613281 37.113281 26.695312 37.214844 26.863281 C 36.703125 26.546875 36.207031 26.484375 35.726562 26.375 C 34.984375 26.199219 34.410156 25.757812 33.914062 25.199219 C 33.535156 24.777344 33.222656 24.289062 32.742188 23.964844 C 32.683594 23.925781 32.640625 23.871094 32.652344 23.804688 C 32.667969 23.710938 32.75 23.679688 32.832031 23.667969 C 33.035156 23.640625 33.21875 23.707031 33.390625 23.804688 C 33.707031 23.980469 33.964844 24.230469 34.210938 24.488281 C 34.515625 24.804688 34.839844 25.101562 35.125 25.433594 C 35.605469 25.992188 36.238281 26.257812 36.925781 26.433594 C 36.957031 26.46875 36.984375 26.5 37.015625 26.527344 Z M 37.015625 26.527344 " fill-opacity="1" fill-rule="nonzero"/><path fill="#4b4e40" d="M 38.273438 35.808594 C 38.09375 35.132812 37.90625 34.527344 37.894531 33.890625 C 37.886719 33.566406 37.894531 33.238281 37.90625 32.914062 C 37.929688 32.402344 37.839844 31.910156 37.640625 31.4375 C 37.621094 31.394531 37.605469 31.347656 37.589844 31.300781 C 37.554688 31.1875 37.429688 31.046875 37.582031 30.960938 C 37.699219 30.898438 37.785156 31.039062 37.851562 31.125 C 38.21875 31.578125 38.464844 32.085938 38.492188 32.679688 C 38.503906 32.9375 38.492188 33.199219 38.464844 33.457031 C 38.390625 34.105469 38.351562 34.757812 38.390625 35.410156 C 38.398438 35.511719 38.441406 35.632812 38.273438 35.808594 Z M 38.273438 35.808594 " fill-opacity="1" fill-rule="nonzero"/><path fill="#4b4e40" d="M 37.015625 26.527344 C 36.984375 26.5 36.957031 26.46875 36.925781 26.4375 C 36.878906 26.347656 36.742188 26.214844 36.972656 26.222656 C 37.234375 26.230469 37.484375 26.3125 37.722656 26.421875 C 38.726562 26.882812 39.425781 27.65625 39.984375 28.578125 C 40.015625 28.632812 40.042969 28.695312 40.066406 28.757812 C 40.105469 28.863281 40.160156 28.980469 40.019531 29.050781 C 39.90625 29.105469 39.84375 29.011719 39.777344 28.941406 C 39.359375 28.484375 38.933594 28.035156 38.523438 27.578125 C 38.101562 27.105469 37.59375 26.769531 37.015625 26.527344 Z M 37.015625 26.527344 " fill-opacity="1" fill-rule="nonzero"/><path fill="#4b4e40" d="M 41.085938 36.167969 C 41.222656 35.960938 41.355469 35.769531 41.253906 35.484375 C 41.175781 35.265625 41.269531 35.03125 41.34375 34.816406 C 41.449219 34.515625 41.484375 34.222656 41.371094 33.910156 C 41.289062 33.691406 41.300781 33.457031 41.425781 33.25 C 41.59375 32.957031 41.589844 32.664062 41.476562 32.355469 C 41.382812 32.105469 41.359375 31.847656 41.464844 31.59375 C 41.566406 31.355469 41.535156 31.152344 41.363281 30.964844 C 41.273438 30.863281 41.234375 30.738281 41.195312 30.613281 L 41.195312 30.617188 C 41.589844 30.832031 41.726562 31.160156 41.636719 31.585938 C 41.570312 31.890625 41.519531 32.179688 41.605469 32.496094 C 41.675781 32.761719 41.621094 33.046875 41.496094 33.304688 C 41.402344 33.507812 41.378906 33.710938 41.472656 33.917969 C 41.609375 34.222656 41.582031 34.515625 41.464844 34.816406 C 41.34375 35.121094 41.25 35.421875 41.394531 35.761719 C 41.507812 36.027344 41.222656 36.058594 41.074219 36.160156 Z M 41.085938 36.167969 " fill-opacity="1" fill-rule="nonzero"/><path fill="#4b4e40" d="M 41.074219 36.160156 C 40.953125 36.21875 40.828125 36.292969 40.796875 36.421875 C 40.679688 36.902344 40.417969 37.363281 40.539062 37.878906 C 40.578125 38.042969 40.488281 38.128906 40.390625 38.210938 C 40.15625 38.402344 40.09375 38.65625 40.089844 38.949219 C 40.082031 39.351562 40.089844 39.757812 39.914062 40.164062 C 39.855469 39.898438 39.894531 38.738281 39.960938 38.542969 C 39.964844 38.53125 39.964844 38.507812 39.972656 38.5 C 40.480469 37.984375 40.371094 37.269531 40.582031 36.65625 C 40.667969 36.414062 40.730469 36.144531 41.082031 36.167969 C 41.085938 36.167969 41.074219 36.160156 41.074219 36.160156 Z M 41.074219 36.160156 " fill-opacity="1" fill-rule="nonzero"/><path fill="#4b4e40" d="M 39.652344 37.851562 C 39.398438 37.1875 39.113281 36.535156 39.082031 35.78125 C 39.460938 36.070312 39.800781 37.246094 39.652344 37.851562 Z M 39.652344 37.851562 " fill-opacity="1" fill-rule="nonzero"/><path fill="#4b4e40" d="M 41.195312 30.613281 C 41.148438 30.261719 41.101562 29.910156 41.0625 29.558594 C 41.046875 29.433594 40.984375 29.347656 40.882812 29.285156 C 40.445312 29.027344 40.449219 28.609375 40.457031 28.179688 C 40.617188 28.179688 40.625 28.285156 40.648438 28.378906 C 40.726562 28.691406 40.789062 29 41.050781 29.238281 C 41.195312 29.367188 41.195312 29.597656 41.199219 29.789062 C 41.207031 30.066406 41.199219 30.339844 41.199219 30.617188 C 41.195312 30.617188 41.195312 30.613281 41.195312 30.613281 Z M 41.195312 30.613281 " fill-opacity="1" fill-rule="nonzero"/><path fill="#4b4e40" d="M 29.488281 23.5 C 29.480469 23.496094 29.421875 23.484375 29.398438 23.449219 C 29.363281 23.390625 29.386719 23.324219 29.429688 23.273438 C 29.609375 23.0625 29.777344 22.839844 29.972656 22.644531 C 30.5625 22.066406 31.175781 21.507812 31.574219 20.765625 C 31.617188 20.6875 31.695312 20.652344 31.78125 20.667969 C 31.894531 20.6875 31.9375 20.773438 31.945312 20.878906 C 31.960938 21.050781 31.871094 21.191406 31.785156 21.328125 C 31.546875 21.703125 31.273438 22.046875 30.953125 22.351562 C 30.578125 22.710938 30.175781 23.042969 29.78125 23.382812 C 29.707031 23.445312 29.632812 23.511719 29.488281 23.5 Z M 29.488281 23.5 " fill-opacity="1" fill-rule="nonzero"/><path fill="#4b4e40" d="M 28.464844 23.976562 C 28.285156 23.1875 28.628906 22.601562 29.242188 22.175781 C 29.757812 21.820312 30.347656 21.582031 30.796875 21.113281 C 30.640625 21.585938 30.300781 21.898438 29.960938 22.210938 C 29.855469 22.308594 29.722656 22.382812 29.609375 22.472656 C 29.066406 22.882812 28.683594 23.382812 28.777344 24.101562 C 28.601562 24.164062 28.578125 23.972656 28.464844 23.972656 Z M 28.464844 23.976562 " fill-opacity="1" fill-rule="nonzero"/><path fill="#4b4e40" d="M 28.464844 23.972656 C 27.945312 24.089844 27.59375 23.734375 27.679688 23.191406 C 27.691406 23.128906 27.730469 23.042969 27.703125 23.007812 C 27.351562 22.527344 27.703125 22.152344 27.886719 21.753906 C 27.945312 21.625 28.035156 21.5 28.128906 21.386719 C 28.234375 21.253906 28.351562 21.042969 28.554688 21.183594 C 28.761719 21.328125 28.601562 21.503906 28.496094 21.644531 C 28.304688 21.90625 28.085938 22.148438 27.9375 22.4375 C 27.699219 22.898438 27.773438 23.320312 28.148438 23.671875 C 28.253906 23.773438 28.359375 23.875 28.464844 23.972656 C 28.464844 23.976562 28.464844 23.972656 28.464844 23.972656 Z M 28.464844 23.972656 " fill-opacity="1" fill-rule="nonzero"/><path fill="#4b4e40" d="M 29.25 20.136719 C 29.484375 20.246094 29.703125 20.113281 29.96875 20.097656 C 29.757812 20.261719 29.558594 20.332031 29.355469 20.382812 C 29.222656 20.414062 29.09375 20.410156 29 20.292969 C 28.902344 20.167969 28.9375 20.023438 29.027344 19.933594 C 29.300781 19.65625 29.347656 19.289062 29.453125 18.9375 C 29.277344 18.96875 29.199219 19.140625 29.027344 19.222656 C 29.023438 19.054688 29.125 18.96875 29.210938 18.886719 C 29.519531 18.589844 29.878906 18.371094 30.265625 18.191406 C 30.359375 18.148438 30.460938 18.117188 30.527344 18.21875 C 30.59375 18.3125 30.535156 18.402344 30.457031 18.46875 C 30.285156 18.617188 30.105469 18.757812 29.933594 18.910156 C 29.742188 19.078125 29.546875 19.238281 29.542969 19.542969 C 29.539062 19.765625 29.257812 19.890625 29.25 20.136719 Z M 29.25 20.136719 " fill-opacity="1" fill-rule="nonzero"/><path fill="#4b4e40" d="M 30.09375 20.960938 C 29.980469 20.957031 29.953125 20.898438 29.953125 20.832031 C 29.953125 20.726562 30.007812 20.644531 30.082031 20.578125 C 30.566406 20.144531 31.089844 19.769531 31.667969 19.46875 C 31.742188 19.429688 31.824219 19.414062 31.890625 19.488281 C 31.96875 19.574219 31.949219 19.675781 31.878906 19.75 C 31.777344 19.851562 31.664062 19.949219 31.542969 20.027344 C 31.109375 20.316406 30.671875 20.597656 30.238281 20.878906 C 30.183594 20.914062 30.125 20.941406 30.09375 20.960938 Z M 30.09375 20.960938 " fill-opacity="1" fill-rule="nonzero"/><path fill="#4b4e40" d="M 21.695312 16.824219 C 22.101562 17.097656 22.464844 17.339844 22.828125 17.582031 C 23.390625 17.964844 23.980469 18.246094 24.691406 18.203125 C 25.167969 18.175781 25.566406 18.421875 25.941406 18.6875 C 25.996094 18.726562 26.046875 18.777344 26.023438 18.851562 C 25.988281 18.960938 25.898438 18.929688 25.824219 18.902344 C 25.699219 18.863281 25.574219 18.820312 25.457031 18.765625 C 25.171875 18.632812 24.875 18.5625 24.558594 18.585938 C 23.871094 18.640625 23.277344 18.410156 22.730469 18.023438 C 22.4375 17.816406 22.144531 17.609375 21.890625 17.355469 C 21.765625 17.234375 21.617188 17.113281 21.695312 16.824219 Z M 21.695312 16.824219 " fill-opacity="1" fill-rule="nonzero"/><path fill="#4b4e40" d="M 24.183594 17.0625 C 25.222656 16.933594 26.4375 17.695312 26.792969 18.679688 C 26.546875 18.441406 26.3125 18.191406 26.054688 17.96875 C 25.792969 17.742188 25.488281 17.582031 25.175781 17.445312 C 24.847656 17.304688 24.515625 17.1875 24.183594 17.0625 Z M 24.183594 17.0625 " fill-opacity="1" fill-rule="nonzero"/><path fill="#4b4e40" d="M 26.171875 19.753906 C 26.167969 19.847656 26.105469 19.925781 26.023438 19.886719 C 25.777344 19.777344 25.535156 19.648438 25.300781 19.515625 C 25.242188 19.480469 25.265625 19.398438 25.328125 19.355469 C 25.574219 19.179688 26.144531 19.449219 26.171875 19.753906 Z M 26.171875 19.753906 " fill-opacity="1" fill-rule="nonzero"/></svg>