<svg xmlns="http://www.w3.org/2000/svg" xmlns:xlink="http://www.w3.org/1999/xlink" zoomAndPan="magnify" viewBox="0 0 64.08 55.92" preserveAspectRatio="xMidYMid meet" version="1.0"><defs><clipPath id="6483d2c28c"><path d="M 13.214844 1.226562 L 49.445312 1.226562 L 49.445312 47.808594 L 13.214844 47.808594 Z M 13.214844 1.226562 " clip-rule="nonzero"/></clipPath></defs><g clip-path="url(#6483d2c28c)"><path fill="#4b4e40" d="M 17.792969 17.980469 C 17.585938 17.824219 17.355469 17.75 17.125 17.679688 C 16.789062 17.585938 16.453125 17.472656 16.09375 17.492188 C 16.03125 17.492188 15.972656 17.472656 15.921875 17.40625 C 16.058594 17.328125 16.195312 17.335938 16.332031 17.328125 C 16.882812 17.328125 17.3125 17.078125 17.699219 16.71875 C 18.101562 16.339844 18.394531 15.867188 18.667969 15.394531 C 18.9375 14.929688 19.167969 14.449219 19.339844 13.941406 C 19.355469 13.882812 19.382812 13.824219 19.417969 13.761719 C 19.484375 13.652344 19.582031 13.660156 19.667969 13.761719 C 19.785156 13.917969 19.8125 14.105469 19.855469 14.285156 C 19.949219 14.707031 20.105469 15.113281 20.277344 15.507812 C 20.292969 15.550781 20.308594 15.601562 20.351562 15.625 C 20.492188 15.53125 20.59375 15.402344 20.714844 15.292969 C 21.253906 14.8125 21.855469 14.414062 22.492188 14.054688 C 23.359375 13.566406 24.277344 13.171875 25.222656 12.851562 C 26.050781 12.578125 26.890625 12.34375 27.75 12.171875 C 27.878906 12.148438 27.9375 12.148438 28.042969 12.078125 C 28.144531 12.011719 28.246094 11.820312 28.324219 11.71875 C 28.566406 11.390625 28.859375 11.109375 29.175781 10.859375 C 29.433594 10.652344 29.726562 10.488281 30.0625 10.4375 C 30.171875 10.421875 30.285156 10.414062 30.394531 10.414062 C 30.671875 10.414062 30.945312 10.386719 31.21875 10.394531 C 31.238281 10.394531 31.289062 9.21875 31.261719 8.644531 C 31.238281 7.9375 31.230469 7.242188 31.238281 6.539062 C 31.238281 6.082031 31.253906 5.636719 31.28125 5.179688 C 31.304688 4.761719 31.324219 4.339844 31.339844 3.925781 C 31.367188 3.429688 31.402344 2.929688 31.433594 2.433594 C 31.453125 2.148438 31.503906 1.839844 31.519531 1.753906 C 31.539062 1.667969 31.589844 1.382812 31.625 1.273438 C 31.625 1.246094 31.753906 1.238281 31.789062 1.238281 C 31.820312 1.238281 32.019531 1.273438 32.027344 1.296875 C 32.121094 1.753906 32.070312 2.183594 32.035156 2.65625 C 32.003906 3.058594 31.992188 3.460938 31.96875 3.867188 C 31.933594 4.398438 31.882812 4.933594 31.847656 5.457031 C 31.804688 6.074219 31.753906 6.691406 31.734375 7.3125 C 31.726562 7.730469 31.734375 8.152344 31.703125 8.574219 C 31.675781 9.03125 31.632812 10.242188 31.625 10.394531 C 31.796875 10.402344 31.984375 10.402344 32.183594 10.429688 C 32.515625 10.472656 32.851562 10.429688 33.179688 10.480469 C 33.308594 10.507812 33.445312 10.53125 33.574219 10.558594 C 33.890625 10.628906 34.148438 10.78125 34.363281 11.03125 C 34.570312 11.269531 34.800781 11.476562 34.957031 11.761719 C 34.992188 11.820312 35.027344 11.882812 35.015625 11.957031 C 35.007812 12.035156 35.035156 12.0625 35.113281 12.078125 C 35.617188 12.183594 36.089844 12.355469 36.570312 12.550781 C 36.761719 12.628906 36.96875 12.664062 37.164062 12.714844 C 37.84375 12.894531 38.488281 13.179688 39.125 13.460938 C 40.730469 14.183594 42.171875 15.164062 43.488281 16.332031 C 44.871094 17.558594 46.046875 18.953125 46.984375 20.539062 C 47.730469 21.8125 48.339844 23.136719 48.726562 24.5625 C 48.804688 24.835938 48.863281 25.109375 48.917969 25.394531 C 48.96875 25.703125 49.070312 25.996094 49.113281 26.3125 C 49.15625 26.632812 49.199219 26.949219 49.234375 27.273438 C 49.292969 27.808594 49.335938 28.339844 49.355469 28.863281 C 49.371094 29.40625 49.378906 29.957031 49.347656 30.496094 C 49.328125 30.746094 49.320312 31.003906 49.304688 31.253906 C 49.226562 32.242188 49.089844 33.21875 48.855469 34.183594 C 48.5625 35.394531 48.195312 36.570312 47.679688 37.703125 C 47.59375 37.894531 47.507812 38.089844 47.414062 38.269531 C 47.378906 38.332031 47.394531 38.367188 47.449219 38.398438 C 47.921875 38.742188 48.445312 38.949219 49.027344 39.011719 C 49.191406 39.027344 49.347656 39.042969 49.5 39.097656 C 49.535156 39.105469 49.5625 39.113281 49.585938 39.128906 C 49.628906 39.164062 49.621094 39.207031 49.570312 39.234375 C 49.542969 39.242188 49.507812 39.25 49.476562 39.257812 C 48.5625 39.480469 47.765625 39.902344 47.070312 40.53125 C 46.449219 41.097656 45.96875 41.757812 45.703125 42.558594 C 45.601562 42.859375 45.464844 43.140625 45.386719 43.449219 C 45.386719 43.476562 45.359375 43.503906 45.335938 43.503906 C 45.292969 43.503906 45.292969 43.46875 45.28125 43.433594 C 45.257812 43.355469 45.265625 43.269531 45.265625 43.195312 C 45.265625 42.78125 45.035156 42.109375 44.765625 41.785156 C 44.671875 41.886719 44.585938 41.992188 44.492188 42.09375 C 44.277344 42.34375 44.019531 42.558594 43.796875 42.789062 C 43.324219 43.261719 42.765625 43.621094 42.242188 44.027344 C 40.902344 45.074219 39.398438 45.8125 37.828125 46.414062 C 36.898438 46.765625 35.9375 46.980469 34.964844 47.164062 C 34.167969 47.308594 33.367188 47.402344 32.570312 47.480469 C 32.199219 47.515625 31.832031 47.53125 31.453125 47.53125 C 31.058594 47.53125 30.660156 47.472656 30.257812 47.445312 C 28.738281 47.34375 27.292969 46.914062 25.851562 46.464844 C 25.757812 46.441406 25.671875 46.40625 25.578125 46.371094 C 25.515625 46.355469 25.464844 46.3125 25.40625 46.390625 C 25.371094 46.433594 25.265625 46.40625 25.242188 46.335938 C 25.207031 46.234375 25.121094 46.207031 25.035156 46.175781 C 24.054688 45.8125 23.144531 45.304688 22.25 44.773438 C 21.867188 44.542969 21.480469 44.300781 21.109375 44.035156 C 21.03125 43.976562 20.929688 43.992188 20.859375 43.949219 C 20.792969 43.90625 20.792969 43.804688 20.714844 43.75 C 20.121094 43.3125 19.582031 42.816406 19.054688 42.308594 C 18.667969 41.9375 18.292969 41.5625 17.921875 41.175781 C 17.304688 40.523438 16.738281 39.835938 16.273438 39.070312 C 16.066406 38.734375 15.828125 38.433594 15.628906 38.097656 C 14.957031 37.007812 14.460938 35.839844 14.082031 34.621094 C 13.816406 33.777344 13.644531 32.910156 13.488281 32.042969 C 13.394531 31.492188 13.308594 30.933594 13.273438 30.375 C 13.25 29.957031 13.214844 29.527344 13.25 29.097656 C 13.273438 28.804688 13.273438 28.503906 13.292969 28.210938 C 13.34375 27.523438 13.429688 26.847656 13.558594 26.167969 C 13.789062 24.957031 14.132812 23.769531 14.613281 22.628906 C 14.710938 22.394531 14.8125 22.171875 14.941406 21.957031 C 15.226562 21.476562 15.441406 20.960938 15.730469 20.488281 C 16.203125 19.734375 16.710938 19.003906 17.3125 18.351562 C 17.449219 18.195312 17.597656 18.058594 17.757812 17.921875 Z M 39.972656 30.902344 C 40.027344 30.953125 40.035156 31.003906 40.035156 31.046875 C 40.078125 31.605469 40.121094 32.164062 40.164062 32.722656 C 40.171875 32.859375 40.164062 32.867188 40.308594 32.859375 C 40.574219 32.859375 40.851562 32.84375 41.117188 32.824219 C 41.570312 32.800781 42.019531 32.765625 42.472656 32.730469 C 42.980469 32.695312 43.480469 32.652344 43.984375 32.601562 C 44.054688 32.601562 44.082031 32.585938 44.089844 32.507812 C 44.089844 32.414062 44.105469 32.328125 44.113281 32.230469 C 44.140625 31.914062 44.15625 31.585938 44.191406 31.269531 C 44.234375 30.875 44.25 30.488281 44.269531 30.09375 C 44.292969 29.707031 44.304688 29.320312 44.3125 28.933594 C 44.320312 28.304688 44.320312 27.679688 44.3125 27.050781 C 44.3125 26.976562 44.277344 26.949219 44.207031 26.941406 C 44.105469 26.941406 43.996094 26.914062 43.890625 26.90625 C 43.4375 26.855469 42.980469 26.804688 42.523438 26.769531 C 42.054688 26.726562 41.582031 26.699219 41.109375 26.65625 C 40.859375 26.640625 40.601562 26.621094 40.351562 26.605469 C 40.28125 26.605469 40.238281 26.613281 40.230469 26.699219 C 40.230469 26.792969 40.222656 26.878906 40.207031 26.976562 C 40.164062 27.335938 40.121094 27.6875 40.078125 28.046875 C 40.078125 28.082031 40.078125 28.125 40.015625 28.125 C 39.992188 28.082031 39.984375 28.039062 39.972656 27.988281 C 39.921875 27.558594 39.863281 27.121094 39.8125 26.691406 C 39.800781 26.605469 39.777344 26.570312 39.691406 26.570312 C 39.339844 26.554688 38.996094 26.527344 38.640625 26.503906 C 38.230469 26.476562 37.816406 26.441406 37.40625 26.417969 C 37.011719 26.390625 36.605469 26.363281 36.210938 26.339844 C 35.875 26.320312 35.53125 26.304688 35.199219 26.289062 C 35.171875 26.3125 35.171875 26.339844 35.171875 26.363281 C 35.171875 26.519531 35.179688 26.683594 35.171875 26.835938 C 35.136719 27.242188 35.15625 27.644531 35.121094 28.046875 C 35.09375 28.339844 35.09375 28.640625 35.050781 28.933594 C 35.050781 28.96875 35.050781 29.003906 35.007812 29.003906 C 34.972656 29.003906 34.949219 28.984375 34.929688 28.960938 C 34.886719 28.898438 34.898438 28.820312 34.898438 28.753906 C 34.898438 28.023438 34.898438 27.292969 34.886719 26.570312 C 34.886719 26.503906 34.878906 26.441406 34.871094 26.382812 C 34.871094 26.296875 34.820312 26.277344 34.742188 26.277344 C 34.347656 26.277344 33.945312 26.253906 33.546875 26.246094 C 32.902344 26.234375 32.25 26.226562 31.605469 26.226562 C 30.953125 26.226562 30.300781 26.234375 29.648438 26.246094 C 29.234375 26.246094 28.816406 26.253906 28.402344 26.261719 C 28.351562 26.261719 28.300781 26.269531 28.238281 26.277344 C 28.179688 26.277344 28.152344 26.3125 28.152344 26.375 C 28.152344 26.527344 28.128906 26.683594 28.128906 26.835938 C 28.109375 27.207031 28.109375 27.566406 28.101562 27.9375 C 28.078125 28.753906 28.09375 29.570312 28.066406 30.375 C 28.050781 31.019531 28.066406 31.671875 28.035156 32.316406 C 28.035156 32.445312 28.035156 32.574219 28.035156 32.703125 C 28.035156 32.789062 28.066406 32.816406 28.144531 32.816406 C 28.230469 32.816406 28.316406 32.816406 28.402344 32.816406 C 28.96875 32.832031 29.535156 32.859375 30.09375 32.875 C 30.558594 32.894531 31.023438 32.894531 31.488281 32.910156 C 31.746094 32.917969 31.992188 32.910156 32.25 32.929688 C 33.03125 32.953125 33.816406 32.960938 34.597656 32.953125 C 34.714844 32.953125 34.707031 32.953125 34.726562 32.824219 C 34.792969 32.113281 34.863281 31.390625 34.929688 30.675781 C 34.929688 30.601562 34.929688 30.503906 34.992188 30.429688 C 35.035156 30.503906 35.042969 30.574219 35.042969 30.644531 C 35.042969 30.890625 35.058594 31.148438 35.078125 31.398438 C 35.101562 31.863281 35.113281 32.335938 35.121094 32.808594 C 35.121094 32.972656 35.121094 32.960938 35.285156 32.960938 C 35.285156 32.960938 35.292969 32.960938 35.300781 32.960938 C 36.175781 32.960938 37.0625 32.960938 37.9375 32.9375 C 38.460938 32.917969 38.996094 32.902344 39.519531 32.902344 C 39.554688 32.902344 39.597656 32.902344 39.628906 32.902344 C 39.707031 32.902344 39.742188 32.859375 39.75 32.78125 C 39.800781 32.222656 39.863281 31.664062 39.914062 31.117188 C 39.914062 31.054688 39.929688 30.988281 39.964844 30.917969 Z M 20.601562 43.261719 C 20.601562 43.210938 20.59375 43.195312 20.585938 43.167969 C 20.351562 42.472656 20.148438 41.757812 19.976562 41.039062 C 19.957031 40.96875 19.925781 40.941406 19.863281 40.917969 C 19.5625 40.789062 19.253906 40.667969 18.953125 40.539062 C 18.925781 40.53125 18.894531 40.511719 18.867188 40.503906 C 18.851562 40.503906 18.839844 40.488281 18.839844 40.46875 C 18.839844 40.445312 18.867188 40.4375 18.882812 40.4375 C 18.953125 40.445312 19.023438 40.460938 19.089844 40.480469 C 19.347656 40.539062 19.597656 40.597656 19.847656 40.660156 C 19.871094 40.609375 19.855469 40.574219 19.847656 40.539062 C 19.65625 39.707031 19.460938 38.871094 19.3125 38.03125 C 19.296875 37.917969 19.246094 37.882812 19.140625 37.851562 C 18.695312 37.710938 18.257812 37.574219 17.820312 37.4375 C 17.785156 37.429688 17.734375 37.421875 17.714844 37.378906 C 17.75 37.324219 17.800781 37.351562 17.84375 37.351562 C 18.144531 37.386719 18.445312 37.429688 18.738281 37.464844 C 18.894531 37.480469 19.046875 37.523438 19.210938 37.496094 C 19.132812 37.027344 19.074219 36.554688 19.03125 36.082031 C 18.988281 35.617188 18.96875 35.144531 18.960938 34.679688 C 18.960938 34.214844 18.960938 33.742188 19.003906 33.246094 C 19.074219 33.347656 19.074219 33.425781 19.082031 33.503906 C 19.140625 33.90625 19.203125 34.3125 19.269531 34.714844 C 19.347656 35.230469 19.425781 35.746094 19.46875 36.269531 C 19.503906 36.664062 19.554688 37.058594 19.597656 37.453125 C 19.605469 37.550781 19.648438 37.582031 19.734375 37.59375 C 19.882812 37.609375 20.027344 37.625 20.164062 37.652344 C 20.902344 37.78125 21.652344 37.910156 22.390625 38.039062 C 22.585938 38.074219 22.792969 38.097656 23 38.132812 C 23.085938 38.140625 23.09375 38.132812 23.085938 38.046875 C 23.085938 38.03125 23.078125 38.003906 23.066406 37.988281 C 23.035156 37.746094 22.992188 37.496094 22.964844 37.25 C 22.9375 36.878906 22.949219 36.5 22.964844 36.132812 C 22.964844 36.097656 22.964844 36.054688 23 36.027344 C 23.058594 36.054688 23.058594 36.113281 23.066406 36.167969 C 23.152344 36.441406 23.230469 36.714844 23.308594 36.992188 C 23.410156 37.351562 23.464844 37.730469 23.523438 38.097656 C 23.539062 38.183594 23.566406 38.210938 23.652344 38.226562 C 24.183594 38.296875 24.71875 38.355469 25.257812 38.398438 C 25.722656 38.441406 26.175781 38.46875 26.640625 38.503906 C 27.003906 38.527344 27.363281 38.546875 27.722656 38.554688 C 27.886719 38.554688 27.886719 38.5625 27.90625 38.410156 C 27.90625 38.410156 27.921875 38.398438 27.929688 38.390625 C 27.957031 38.390625 27.964844 38.417969 27.964844 38.433594 C 28 38.589844 28.015625 38.5625 28.136719 38.5625 C 28.515625 38.570312 28.890625 38.589844 29.269531 38.597656 C 30.488281 38.597656 31.710938 38.613281 32.929688 38.554688 C 33.367188 38.527344 33.816406 38.511719 34.253906 38.484375 C 34.320312 38.484375 34.347656 38.453125 34.347656 38.390625 C 34.363281 38.117188 34.390625 37.839844 34.40625 37.566406 C 34.425781 37.28125 34.433594 37.007812 34.449219 36.726562 C 34.476562 36.277344 34.511719 35.832031 34.535156 35.382812 C 34.554688 35.117188 34.5625 34.84375 34.578125 34.578125 C 34.597656 34.234375 34.613281 33.890625 34.640625 33.546875 C 34.648438 33.410156 34.613281 33.425781 34.519531 33.425781 C 34.355469 33.425781 34.191406 33.433594 34.039062 33.441406 C 32.964844 33.441406 31.890625 33.425781 30.816406 33.410156 C 30.34375 33.410156 29.878906 33.410156 29.40625 33.382812 C 29.105469 33.375 28.804688 33.382812 28.503906 33.355469 C 28.367188 33.339844 28.222656 33.355469 28.085938 33.355469 C 28.035156 33.355469 28.007812 33.375 28.007812 33.433594 C 28.007812 33.613281 27.992188 33.785156 27.992188 33.96875 C 27.980469 34.355469 27.972656 34.742188 27.957031 35.136719 C 27.9375 35.710938 27.9375 36.285156 27.921875 36.863281 C 27.921875 36.992188 27.886719 37.121094 27.921875 37.25 C 27.929688 37.292969 27.894531 37.335938 27.84375 37.335938 C 27.785156 37.335938 27.777344 37.300781 27.777344 37.25 C 27.777344 37.222656 27.777344 37.195312 27.777344 37.171875 C 27.777344 37.035156 27.777344 36.886719 27.777344 36.75 C 27.742188 36.304688 27.742188 35.855469 27.722656 35.410156 C 27.699219 34.765625 27.699219 34.113281 27.691406 33.46875 C 27.691406 33.460938 27.691406 33.441406 27.691406 33.433594 C 27.691406 33.367188 27.65625 33.339844 27.59375 33.339844 C 27.433594 33.339844 27.269531 33.324219 27.113281 33.324219 C 26.746094 33.324219 26.382812 33.304688 26.015625 33.289062 C 25.59375 33.269531 25.164062 33.246094 24.742188 33.226562 C 24.476562 33.210938 24.203125 33.203125 23.9375 33.183594 C 23.515625 33.160156 23.101562 33.132812 22.691406 33.109375 C 22.664062 33.152344 22.671875 33.183594 22.679688 33.226562 C 22.734375 33.65625 22.777344 34.078125 22.828125 34.507812 C 22.835938 34.601562 22.835938 34.707031 22.828125 34.800781 C 22.828125 34.835938 22.800781 34.878906 22.757812 34.871094 C 22.714844 34.871094 22.691406 34.84375 22.691406 34.792969 C 22.691406 34.757812 22.691406 34.722656 22.691406 34.699219 C 22.691406 34.613281 22.679688 34.527344 22.664062 34.441406 C 22.605469 34.027344 22.542969 33.625 22.492188 33.210938 C 22.484375 33.117188 22.449219 33.089844 22.355469 33.082031 C 21.804688 33.039062 21.265625 32.988281 20.714844 32.929688 C 19.96875 32.851562 19.226562 32.757812 18.488281 32.644531 C 17.855469 32.542969 17.226562 32.445312 16.597656 32.292969 C 16.359375 32.230469 16.109375 32.164062 15.871094 32.101562 C 15.84375 32.136719 15.851562 32.171875 15.851562 32.207031 C 15.894531 32.609375 15.929688 33.003906 15.972656 33.410156 C 16.03125 33.984375 16.117188 34.558594 16.210938 35.136719 C 16.367188 36.019531 16.546875 36.90625 16.753906 37.773438 C 16.933594 38.527344 17.113281 39.292969 17.371094 40.03125 C 17.398438 40.109375 17.433594 40.179688 17.484375 40.246094 C 17.734375 40.539062 17.984375 40.824219 18.257812 41.097656 C 18.796875 41.65625 19.347656 42.207031 19.925781 42.722656 C 20.128906 42.910156 20.34375 43.089844 20.59375 43.277344 Z M 22.734375 25.773438 C 22.851562 25.773438 22.957031 25.773438 23.058594 25.773438 C 23.6875 25.738281 24.320312 25.695312 24.949219 25.675781 C 25.609375 25.660156 26.273438 25.625 26.941406 25.625 C 27.164062 25.625 27.398438 25.609375 27.621094 25.609375 C 27.699219 25.609375 27.742188 25.589844 27.742188 25.503906 C 27.742188 25.179688 27.777344 24.851562 27.800781 24.527344 C 27.835938 24.011719 27.878906 23.496094 27.929688 22.980469 C 27.980469 22.472656 28.023438 21.976562 28.09375 21.476562 C 28.101562 21.390625 28.074219 21.355469 27.992188 21.355469 C 27.835938 21.339844 27.679688 21.320312 27.527344 21.296875 C 27.484375 21.296875 27.414062 21.296875 27.40625 21.246094 C 27.40625 21.183594 27.464844 21.183594 27.519531 21.175781 C 27.671875 21.140625 27.828125 21.109375 27.972656 21.082031 C 28.128906 21.046875 28.136719 21.054688 28.152344 20.894531 C 28.179688 20.679688 28.195312 20.464844 28.222656 20.25 C 28.28125 19.777344 28.332031 19.3125 28.394531 18.839844 C 28.472656 18.265625 28.539062 17.6875 28.625 17.113281 C 28.632812 17.035156 28.625 17.019531 28.546875 17.019531 C 28.136719 17.054688 27.722656 17.078125 27.3125 17.105469 C 26.898438 17.128906 26.488281 17.179688 26.066406 17.171875 C 25.757812 17.171875 25.457031 17.15625 25.148438 17.140625 C 24.921875 17.128906 24.707031 17.113281 24.484375 17.097656 C 24.441406 17.097656 24.363281 17.113281 24.363281 17.054688 C 24.363281 16.992188 24.433594 16.992188 24.476562 16.984375 C 24.855469 16.882812 25.242188 16.785156 25.621094 16.683594 C 26.015625 16.582031 26.410156 16.503906 26.8125 16.476562 C 27.414062 16.433594 28.015625 16.375 28.617188 16.367188 C 28.738281 16.367188 28.738281 16.355469 28.753906 16.238281 C 28.859375 15.574219 28.96875 14.914062 29.089844 14.253906 C 29.105469 14.140625 29.097656 14.132812 28.988281 14.140625 C 28.445312 14.183594 27.90625 14.253906 27.371094 14.339844 C 26.546875 14.476562 25.730469 14.65625 24.933594 14.878906 C 24.863281 14.898438 24.820312 14.929688 24.804688 15 C 24.777344 15.09375 24.742188 15.195312 24.71875 15.292969 C 24.433594 16.21875 24.226562 17.164062 24.003906 18.109375 C 23.925781 18.453125 23.839844 18.789062 23.789062 19.140625 C 23.789062 19.183594 23.753906 19.234375 23.824219 19.261719 C 23.902344 19.292969 23.925781 19.363281 23.945312 19.441406 C 24.011719 19.664062 24.074219 19.886719 24.160156 20.101562 C 24.332031 20.523438 24.597656 20.839844 25.0625 20.953125 C 25.199219 20.988281 25.328125 21.054688 25.449219 21.152344 C 25.492188 21.183594 25.5 21.21875 25.449219 21.253906 C 25.378906 21.296875 25.308594 21.339844 25.234375 21.363281 C 24.769531 21.519531 24.382812 21.792969 24.082031 22.164062 C 23.839844 22.464844 23.652344 22.792969 23.582031 23.1875 C 23.566406 23.273438 23.574219 23.359375 23.539062 23.433594 C 23.515625 23.503906 23.472656 23.519531 23.421875 23.476562 C 23.34375 23.410156 23.28125 23.339844 23.292969 23.230469 C 23.292969 23.1875 23.292969 23.144531 23.273438 23.109375 C 23.230469 23.015625 23.214844 22.910156 23.179688 22.816406 C 23.164062 22.75 23.144531 22.679688 23.078125 22.59375 C 22.957031 23.667969 22.820312 24.714844 22.742188 25.761719 Z M 23.195312 17.292969 C 22.9375 17.492188 22.722656 17.671875 22.457031 17.773438 C 22.054688 17.929688 21.675781 18.125 21.332031 18.402344 C 20.835938 18.804688 20.414062 19.277344 20.0625 19.820312 C 19.804688 20.207031 19.554688 20.59375 19.496094 21.074219 C 19.453125 21.398438 19.390625 21.726562 19.332031 22.0625 C 19.355469 22.0625 19.367188 22.070312 19.382812 22.070312 C 19.761719 22.007812 20.136719 21.992188 20.523438 21.976562 C 20.738281 21.976562 20.953125 21.921875 21.167969 21.941406 C 21.324219 21.949219 21.46875 21.957031 21.640625 22.042969 C 21.4375 22.136719 21.246094 22.207031 21.050781 22.222656 C 20.480469 22.277344 19.925781 22.363281 19.367188 22.429688 C 19.269531 22.4375 19.238281 22.472656 19.226562 22.566406 C 19.140625 23.101562 19.066406 23.632812 19.003906 24.164062 C 18.9375 24.777344 18.910156 25.386719 18.867188 26.003906 C 18.867188 26.132812 18.867188 26.125 18.988281 26.117188 C 19.390625 26.074219 19.804688 26.011719 20.207031 25.976562 C 20.816406 25.925781 21.417969 25.882812 22.027344 25.832031 C 22.140625 25.832031 22.285156 25.867188 22.355469 25.78125 C 22.421875 25.703125 22.390625 25.566406 22.398438 25.453125 C 22.449219 24.828125 22.507812 24.199219 22.59375 23.582031 C 22.648438 23.195312 22.691406 22.800781 22.792969 22.421875 C 22.835938 22.265625 22.792969 22.171875 22.679688 22.070312 C 22.40625 21.8125 22.105469 21.613281 21.753906 21.503906 C 21.683594 21.476562 21.632812 21.441406 21.582031 21.382812 C 21.554688 21.347656 21.566406 21.320312 21.609375 21.3125 C 21.640625 21.3125 21.675781 21.3125 21.703125 21.3125 C 21.925781 21.296875 22.148438 21.253906 22.347656 21.125 C 22.492188 21.023438 22.613281 20.894531 22.734375 20.753906 C 23.042969 20.386719 23.292969 19.972656 23.488281 19.535156 C 23.53125 19.441406 23.617188 19.371094 23.652344 19.277344 C 23.679688 19.183594 23.660156 19.070312 23.667969 18.96875 C 23.710938 18.539062 23.78125 18.101562 23.851562 17.671875 C 23.960938 16.925781 24.097656 16.175781 24.296875 15.4375 C 24.332031 15.308594 24.363281 15.179688 24.390625 15.050781 C 24.320312 15.035156 24.277344 15.050781 24.234375 15.058594 C 23.617188 15.199219 23 15.273438 22.371094 15.367188 C 22.328125 15.367188 22.277344 15.402344 22.261719 15.351562 C 22.242188 15.300781 22.304688 15.292969 22.335938 15.265625 C 22.347656 15.265625 22.355469 15.257812 22.363281 15.25 C 23.085938 14.898438 23.789062 14.5 24.5625 14.277344 C 24.613281 14.261719 24.648438 14.242188 24.664062 14.191406 C 24.742188 13.941406 24.820312 13.695312 24.878906 13.4375 C 24.820312 13.417969 24.777344 13.445312 24.734375 13.460938 C 24.511719 13.546875 24.277344 13.632812 24.054688 13.71875 C 22.792969 14.234375 21.617188 14.886719 20.550781 15.738281 C 20.449219 15.824219 20.449219 15.824219 20.523438 15.925781 C 20.886719 16.410156 21.339844 16.785156 21.898438 17.027344 C 22.054688 17.097656 22.207031 17.113281 22.371094 17.121094 C 22.441406 17.121094 22.507812 17.121094 22.578125 17.121094 C 22.785156 17.140625 22.980469 17.183594 23.195312 17.285156 Z M 18.4375 26.964844 C 18.351562 26.964844 18.292969 26.964844 18.230469 26.976562 C 17.628906 27.0625 17.027344 27.09375 16.425781 27.121094 C 16.222656 27.128906 16.015625 27.148438 15.816406 27.15625 C 15.742188 27.15625 15.699219 27.179688 15.699219 27.265625 C 15.699219 27.609375 15.671875 27.945312 15.671875 28.289062 C 15.671875 28.597656 15.671875 28.90625 15.6875 29.207031 C 15.707031 29.5 15.707031 29.792969 15.722656 30.085938 C 15.75 30.546875 15.785156 31.011719 15.800781 31.46875 C 15.800781 31.621094 15.828125 31.640625 15.980469 31.65625 C 16.523438 31.691406 17.0625 31.769531 17.597656 31.855469 C 19.117188 32.121094 20.644531 32.308594 22.175781 32.445312 C 22.464844 32.472656 22.414062 32.472656 22.390625 32.230469 C 22.328125 31.605469 22.304688 30.976562 22.277344 30.351562 C 22.25 29.515625 22.269531 28.691406 22.277344 27.859375 C 22.277344 27.816406 22.277344 27.773438 22.277344 27.730469 C 22.304688 27.378906 22.285156 27.019531 22.320312 26.664062 C 22.328125 26.570312 22.304688 26.554688 22.207031 26.5625 C 22.003906 26.578125 21.789062 26.589844 21.582031 26.613281 C 20.9375 26.675781 20.285156 26.742188 19.640625 26.804688 C 19.398438 26.828125 19.160156 26.863281 18.917969 26.890625 C 18.839844 26.890625 18.808594 26.921875 18.808594 27.007812 C 18.808594 27.105469 18.808594 27.207031 18.796875 27.300781 C 18.765625 27.765625 18.746094 28.238281 18.746094 28.710938 C 18.746094 28.839844 18.746094 28.96875 18.746094 29.097656 C 18.746094 29.585938 18.738281 30.074219 18.773438 30.566406 C 18.796875 30.882812 18.746094 31.203125 18.78125 31.519531 C 18.78125 31.554688 18.773438 31.570312 18.738281 31.570312 C 18.722656 31.570312 18.695312 31.5625 18.6875 31.535156 C 18.667969 31.476562 18.660156 31.40625 18.652344 31.347656 C 18.601562 30.960938 18.582031 30.566406 18.550781 30.171875 C 18.507812 29.644531 18.480469 29.132812 18.464844 28.605469 C 18.445312 28.152344 18.453125 27.695312 18.445312 27.25 C 18.445312 27.15625 18.445312 27.070312 18.445312 26.964844 Z M 22.5625 30.273438 C 22.578125 30.710938 22.542969 31.148438 22.578125 31.578125 C 22.59375 31.84375 22.59375 32.121094 22.613281 32.386719 C 22.613281 32.464844 22.636719 32.5 22.722656 32.5 C 22.886719 32.5 23.050781 32.515625 23.207031 32.53125 C 23.738281 32.585938 24.269531 32.609375 24.804688 32.644531 C 25.128906 32.660156 25.449219 32.671875 25.773438 32.695312 C 26.382812 32.738281 27.003906 32.746094 27.613281 32.78125 C 27.691406 32.78125 27.707031 32.746094 27.699219 32.6875 C 27.699219 32.566406 27.679688 32.445312 27.679688 32.335938 C 27.679688 31.492188 27.664062 30.652344 27.648438 29.808594 C 27.636719 29.011719 27.648438 28.210938 27.648438 27.414062 C 27.648438 27.351562 27.648438 27.292969 27.648438 27.230469 C 27.679688 26.949219 27.65625 26.675781 27.671875 26.390625 C 27.671875 26.277344 27.671875 26.269531 27.5625 26.269531 C 27.320312 26.269531 27.089844 26.277344 26.847656 26.289062 C 26.554688 26.296875 26.253906 26.3125 25.964844 26.320312 C 25.566406 26.339844 25.164062 26.363281 24.769531 26.382812 C 24.460938 26.398438 24.140625 26.417969 23.832031 26.433594 C 23.539062 26.449219 23.25 26.46875 22.964844 26.492188 C 22.621094 26.527344 22.699219 26.449219 22.664062 26.804688 C 22.636719 27.078125 22.636719 27.351562 22.621094 27.628906 C 22.605469 28.152344 22.578125 28.683594 22.5625 29.207031 C 22.550781 29.558594 22.5625 29.914062 22.5625 30.257812 Z M 28.203125 25.589844 C 28.265625 25.617188 28.308594 25.609375 28.351562 25.609375 C 29.140625 25.609375 29.921875 25.609375 30.714844 25.609375 C 31.082031 25.609375 31.445312 25.617188 31.8125 25.625 C 32.464844 25.644531 33.128906 25.667969 33.78125 25.6875 C 34.0625 25.695312 34.347656 25.710938 34.640625 25.730469 C 34.691406 25.730469 34.734375 25.730469 34.785156 25.730469 C 34.835938 25.730469 34.863281 25.703125 34.863281 25.652344 C 34.863281 25.558594 34.84375 25.472656 34.84375 25.375 C 34.84375 24.964844 34.800781 24.5625 34.769531 24.148438 C 34.734375 23.683594 34.683594 23.230469 34.640625 22.765625 C 34.605469 22.429688 34.578125 22.09375 34.542969 21.75 C 34.542969 21.683594 34.527344 21.640625 34.441406 21.640625 C 34.234375 21.640625 34.019531 21.613281 33.816406 21.605469 C 33.53125 21.597656 33.246094 21.578125 32.957031 21.570312 C 32.398438 21.554688 31.847656 21.519531 31.289062 21.511719 C 30.730469 21.503906 30.164062 21.503906 29.605469 21.492188 C 29.5625 21.492188 29.519531 21.492188 29.476562 21.484375 C 29.210938 21.476562 28.953125 21.449219 28.6875 21.417969 C 28.617188 21.40625 28.574219 21.433594 28.574219 21.511719 C 28.566406 21.632812 28.546875 21.761719 28.53125 21.878906 C 28.488281 22.300781 28.445312 22.722656 28.394531 23.144531 C 28.332031 23.683594 28.289062 24.226562 28.246094 24.765625 C 28.222656 25.035156 28.214844 25.300781 28.1875 25.574219 Z M 39.476562 33.28125 C 39.347656 33.28125 39.242188 33.289062 39.132812 33.296875 C 38.566406 33.324219 38 33.347656 37.441406 33.367188 C 36.914062 33.382812 36.382812 33.382812 35.859375 33.398438 C 35.652344 33.398438 35.445312 33.417969 35.242188 33.410156 C 35.15625 33.410156 35.128906 33.433594 35.128906 33.519531 C 35.128906 33.941406 35.128906 34.363281 35.09375 34.785156 C 35.078125 35.101562 35.070312 35.417969 35.050781 35.738281 C 35.027344 36.148438 35 36.5625 34.964844 36.972656 C 34.949219 37.230469 34.921875 37.488281 34.90625 37.746094 C 34.886719 37.9375 34.878906 38.132812 34.863281 38.324219 C 34.863281 38.390625 34.878906 38.425781 34.949219 38.417969 C 34.972656 38.417969 35 38.417969 35.027344 38.417969 C 35.378906 38.390625 35.722656 38.355469 36.074219 38.324219 C 36.582031 38.269531 37.085938 38.226562 37.601562 38.167969 C 38.152344 38.109375 38.703125 38.03125 39.253906 37.945312 C 39.328125 37.9375 39.371094 37.910156 39.382812 37.816406 C 39.414062 37.429688 39.457031 37.042969 39.492188 36.664062 C 39.542969 36.113281 39.585938 35.574219 39.621094 35.023438 C 39.65625 34.527344 39.683594 34.027344 39.699219 33.519531 C 39.699219 33.441406 39.769531 33.347656 39.699219 33.289062 C 39.640625 33.226562 39.542969 33.289062 39.484375 33.289062 Z M 30.910156 16.957031 C 30.378906 16.941406 29.847656 16.957031 29.3125 16.976562 C 29.234375 16.976562 29.203125 17 29.191406 17.085938 C 29.148438 17.449219 29.089844 17.808594 29.039062 18.167969 C 28.96875 18.683594 28.890625 19.199219 28.824219 19.714844 C 28.773438 20.078125 28.730469 20.429688 28.6875 20.789062 C 28.667969 20.925781 28.675781 20.925781 28.804688 20.910156 C 29.160156 20.859375 29.511719 20.816406 29.871094 20.824219 C 30.351562 20.824219 30.84375 20.824219 31.324219 20.859375 C 31.703125 20.882812 32.085938 20.882812 32.464844 20.910156 C 33.101562 20.953125 33.746094 21.003906 34.382812 21.046875 C 34.476562 21.046875 34.484375 21.046875 34.476562 20.953125 C 34.476562 20.851562 34.457031 20.738281 34.449219 20.636719 C 34.425781 20.238281 34.398438 19.851562 34.382812 19.457031 C 34.355469 19.039062 34.339844 18.617188 34.320312 18.203125 C 34.304688 17.859375 34.285156 17.515625 34.277344 17.171875 C 34.277344 17.105469 34.253906 17.070312 34.175781 17.0625 C 33.503906 17.035156 32.835938 16.992188 32.15625 16.96875 C 31.746094 16.949219 31.324219 16.96875 30.910156 16.96875 Z M 30.085938 39.085938 C 29.957031 39.085938 29.828125 39.085938 29.699219 39.085938 C 29.226562 39.070312 28.753906 39.085938 28.273438 39.070312 C 28.128906 39.070312 28.128906 39.070312 28.152344 39.207031 C 28.324219 40.082031 28.410156 40.960938 28.488281 41.84375 C 28.503906 42.035156 28.523438 42.222656 28.546875 42.402344 C 28.566406 42.53125 28.566406 42.53125 28.695312 42.539062 C 29.417969 42.601562 30.144531 42.644531 30.867188 42.667969 C 31.691406 42.695312 32.515625 42.695312 33.34375 42.667969 C 33.515625 42.667969 33.6875 42.652344 33.859375 42.644531 C 34.019531 42.625 34.019531 42.625 34.03125 42.453125 C 34.046875 42.179688 34.074219 41.894531 34.097656 41.621094 C 34.148438 41.105469 34.199219 40.589844 34.242188 40.082031 C 34.277344 39.75 34.296875 39.40625 34.320312 39.070312 C 34.328125 38.941406 34.328125 38.933594 34.199219 38.941406 C 33.933594 38.957031 33.675781 38.96875 33.410156 38.992188 C 32.902344 39.035156 32.386719 39.054688 31.882812 39.070312 C 31.28125 39.097656 30.6875 39.085938 30.085938 39.097656 Z M 39.433594 41.90625 C 39.457031 41.921875 39.484375 41.90625 39.511719 41.90625 C 40.078125 41.777344 40.644531 41.65625 41.203125 41.484375 C 41.667969 41.335938 42.121094 41.175781 42.59375 41.0625 C 42.664062 41.046875 42.6875 41.011719 42.707031 40.953125 C 42.765625 40.683594 42.835938 40.417969 42.902344 40.152344 C 42.953125 39.929688 42.996094 39.964844 42.757812 39.867188 C 42.328125 39.679688 41.871094 39.558594 41.398438 39.507812 C 41.246094 39.492188 41.089844 39.429688 40.953125 39.351562 C 40.996094 39.285156 41.054688 39.277344 41.109375 39.257812 C 41.699219 39.042969 42.265625 38.769531 42.816406 38.460938 C 43.554688 38.039062 44.207031 37.515625 44.65625 36.769531 C 44.664062 36.75 44.679688 36.734375 44.691406 36.714844 C 44.886719 36.484375 45.007812 36.210938 45.121094 35.925781 C 45.207031 35.695312 45.265625 35.46875 45.207031 35.210938 C 45.171875 35.050781 45.207031 34.878906 45.273438 34.679688 C 45.402344 34.878906 45.496094 35.050781 45.550781 35.246094 C 45.625 35.546875 45.703125 35.847656 45.789062 36.15625 C 45.824219 36.277344 45.824219 36.277344 45.945312 36.261719 C 46.203125 36.21875 46.449219 36.175781 46.707031 36.140625 C 46.769531 36.132812 46.777344 36.089844 46.785156 36.039062 C 46.804688 35.71875 46.820312 35.402344 46.847656 35.085938 C 46.863281 34.859375 46.863281 34.644531 46.898438 34.421875 C 46.976562 33.871094 47.070312 33.3125 47.121094 32.757812 C 47.128906 32.671875 47.148438 32.574219 47.136719 32.480469 C 47.113281 32.480469 47.09375 32.472656 47.085938 32.480469 C 46.289062 32.628906 45.488281 32.746094 44.691406 32.84375 C 44.578125 32.859375 44.570312 32.867188 44.5625 32.988281 C 44.5 33.5625 44.421875 34.128906 44.328125 34.699219 C 44.21875 35.417969 44.089844 36.132812 43.867188 36.828125 C 43.855469 36.871094 43.824219 36.90625 43.855469 36.957031 C 44.054688 36.921875 44.25 36.886719 44.457031 36.863281 C 44.484375 36.863281 44.519531 36.84375 44.527344 36.878906 C 44.535156 36.914062 44.527344 36.941406 44.492188 36.964844 C 44.449219 36.992188 44.40625 37.015625 44.363281 37.027344 C 44.234375 37.058594 44.105469 37.113281 43.976562 37.128906 C 43.804688 37.15625 43.71875 37.238281 43.683594 37.410156 C 43.660156 37.53125 43.625 37.660156 43.554688 37.765625 C 43.511719 37.753906 43.511719 37.730469 43.511719 37.695312 C 43.511719 37.609375 43.511719 37.523438 43.53125 37.4375 C 43.546875 37.28125 43.546875 37.25 43.375 37.300781 C 42.257812 37.644531 41.140625 37.960938 40.007812 38.203125 C 39.871094 38.226562 39.871094 38.238281 39.863281 38.367188 C 39.828125 38.726562 39.792969 39.085938 39.75 39.4375 C 39.65625 40.222656 39.585938 41.011719 39.46875 41.792969 C 39.46875 41.835938 39.449219 41.878906 39.46875 41.921875 Z M 16 23.28125 C 15.921875 23.28125 15.871094 23.316406 15.816406 23.332031 C 15.507812 23.433594 15.214844 23.597656 14.882812 23.648438 C 14.769531 23.667969 14.71875 23.710938 14.683594 23.820312 C 14.476562 24.484375 14.28125 25.152344 14.132812 25.832031 C 13.953125 26.675781 13.84375 27.515625 13.773438 28.367188 C 13.746094 28.660156 13.746094 28.949219 13.722656 29.234375 C 13.6875 29.699219 13.722656 30.160156 13.746094 30.625 C 13.773438 31.132812 13.84375 31.628906 13.929688 32.128906 C 14.039062 32.816406 14.152344 33.503906 14.324219 34.171875 C 14.691406 35.609375 15.226562 36.972656 15.980469 38.246094 C 16.210938 38.640625 16.453125 39.035156 16.746094 39.386719 C 16.847656 39.507812 16.960938 39.628906 17.070312 39.75 C 16.976562 39.4375 16.875 39.148438 16.789062 38.847656 C 16.382812 37.507812 16.050781 36.15625 15.785156 34.785156 C 15.613281 33.882812 15.484375 32.980469 15.414062 32.070312 C 15.414062 31.984375 15.378906 31.949219 15.300781 31.921875 C 14.992188 31.835938 14.691406 31.734375 14.390625 31.640625 C 14.339844 31.621094 14.289062 31.621094 14.253906 31.554688 C 14.339844 31.511719 14.417969 31.535156 14.496094 31.535156 C 14.71875 31.554688 14.941406 31.578125 15.171875 31.597656 C 15.242188 31.597656 15.320312 31.640625 15.371094 31.585938 C 15.414062 31.542969 15.371094 31.476562 15.371094 31.414062 C 15.355469 30.976562 15.320312 30.53125 15.3125 30.09375 C 15.300781 29.363281 15.292969 28.625 15.335938 27.894531 C 15.34375 27.695312 15.363281 27.507812 15.371094 27.308594 C 15.371094 27.242188 15.378906 27.171875 15.277344 27.191406 C 15.25 27.191406 15.214844 27.191406 15.207031 27.15625 C 15.207031 27.113281 15.234375 27.09375 15.257812 27.085938 C 15.378906 27.0625 15.40625 26.976562 15.398438 26.871094 C 15.398438 26.828125 15.414062 26.785156 15.414062 26.742188 C 15.5 25.789062 15.679688 24.863281 15.859375 23.925781 C 15.902344 23.71875 15.9375 23.503906 15.980469 23.28125 Z M 45.625 19.226562 C 45.609375 19.277344 45.625 19.292969 45.625 19.320312 C 45.894531 20.164062 46.125 21.003906 46.363281 21.847656 C 46.460938 22.179688 46.554688 22.523438 46.648438 22.859375 C 46.664062 22.921875 46.675781 22.980469 46.761719 23.007812 C 47.035156 23.074219 47.300781 23.195312 47.59375 23.195312 C 47.609375 23.195312 47.636719 23.195312 47.644531 23.230469 C 47.636719 23.246094 47.601562 23.253906 47.578125 23.253906 C 47.292969 23.289062 47.027344 23.1875 46.75 23.144531 C 46.726562 23.203125 46.75 23.253906 46.769531 23.304688 C 47.105469 24.613281 47.414062 25.917969 47.585938 27.257812 C 47.585938 27.308594 47.59375 27.34375 47.664062 27.351562 C 47.714844 27.351562 47.714844 27.402344 47.679688 27.421875 C 47.59375 27.472656 47.621094 27.542969 47.628906 27.617188 C 47.671875 28.015625 47.707031 28.410156 47.730469 28.804688 C 47.757812 29.15625 47.765625 29.515625 47.773438 29.871094 C 47.792969 30.488281 47.773438 31.105469 47.714844 31.726562 C 47.707031 31.863281 47.695312 32 47.695312 32.128906 C 47.75 32.144531 47.78125 32.128906 47.816406 32.128906 C 47.851562 32.128906 47.894531 32.113281 47.910156 32.15625 C 47.9375 32.207031 47.921875 32.25 47.886719 32.285156 C 47.859375 32.308594 47.816406 32.328125 47.78125 32.328125 C 47.679688 32.328125 47.652344 32.394531 47.644531 32.488281 C 47.628906 32.757812 47.585938 33.023438 47.550781 33.289062 C 47.449219 34.148438 47.242188 34.972656 46.941406 35.78125 C 46.90625 35.882812 46.871094 35.976562 46.835938 36.089844 C 46.921875 36.089844 47 36.089844 47.078125 36.089844 C 47.265625 36.070312 47.457031 36.046875 47.636719 36.027344 C 47.6875 36.027344 47.738281 36.027344 47.757812 36.089844 C 47.773438 36.148438 47.738281 36.191406 47.6875 36.21875 C 47.628906 36.242188 47.566406 36.261719 47.507812 36.277344 C 47.035156 36.398438 46.546875 36.476562 46.074219 36.605469 C 45.945312 36.640625 45.945312 36.628906 45.996094 36.75 C 46.234375 37.308594 46.675781 37.710938 47.113281 38.132812 C 47.222656 37.894531 47.34375 37.667969 47.449219 37.4375 C 47.792969 36.683594 48.058594 35.910156 48.273438 35.109375 C 48.5625 34.027344 48.777344 32.929688 48.855469 31.8125 C 48.890625 31.371094 48.917969 30.945312 48.925781 30.503906 C 48.933594 29.644531 48.949219 28.777344 48.898438 27.917969 C 48.875 27.472656 48.839844 27.019531 48.804688 26.570312 C 48.777344 26.289062 48.746094 26.003906 48.683594 25.730469 C 48.574219 25.214844 48.390625 24.714844 48.230469 24.21875 C 47.722656 22.621094 46.949219 21.140625 46.003906 19.765625 C 45.882812 19.585938 45.765625 19.414062 45.609375 19.242188 Z M 34.984375 21.707031 C 35.007812 21.992188 35.035156 22.257812 35.042969 22.535156 C 35.070312 23.039062 35.113281 23.554688 35.136719 24.0625 C 35.15625 24.484375 35.1875 24.914062 35.171875 25.332031 C 35.171875 25.445312 35.171875 25.558594 35.171875 25.675781 C 35.171875 25.746094 35.1875 25.773438 35.265625 25.78125 C 35.515625 25.789062 35.765625 25.804688 36.003906 25.832031 C 36.570312 25.875 37.140625 25.925781 37.707031 25.976562 C 38.351562 26.039062 38.996094 26.097656 39.628906 26.160156 C 39.742188 26.167969 39.742188 26.167969 39.742188 26.046875 C 39.742188 25.804688 39.726562 25.574219 39.714844 25.332031 C 39.691406 24.878906 39.65625 24.421875 39.613281 23.96875 C 39.5625 23.382812 39.492188 22.800781 39.414062 22.222656 C 39.398438 22.085938 39.414062 22.085938 39.261719 22.070312 C 38.839844 22.027344 38.417969 21.992188 37.988281 21.949219 C 37.328125 21.890625 36.675781 21.828125 36.015625 21.777344 C 35.671875 21.75 35.328125 21.71875 34.964844 21.707031 Z M 34.414062 42.59375 C 34.492188 42.625 34.5625 42.609375 34.628906 42.609375 C 35.007812 42.574219 35.394531 42.550781 35.773438 42.507812 C 36.761719 42.402344 37.75 42.257812 38.726562 42.066406 C 38.976562 42.015625 38.976562 42.015625 39.003906 41.777344 C 39.082031 41.082031 39.140625 40.382812 39.199219 39.6875 C 39.242188 39.265625 39.277344 38.847656 39.320312 38.417969 C 39.320312 38.339844 39.320312 38.324219 39.234375 38.332031 C 39.21875 38.332031 39.199219 38.332031 39.183594 38.332031 C 38.015625 38.546875 36.839844 38.683594 35.660156 38.804688 C 35.414062 38.828125 35.15625 38.855469 34.90625 38.871094 C 34.835938 38.871094 34.800781 38.898438 34.792969 38.976562 C 34.75 39.429688 34.707031 39.886719 34.664062 40.339844 C 34.628906 40.683594 34.585938 41.039062 34.542969 41.378906 C 34.5 41.785156 34.457031 42.179688 34.40625 42.582031 Z M 34.792969 17.113281 C 34.820312 17.394531 34.8125 17.652344 34.820312 17.910156 C 34.84375 18.539062 34.863281 19.15625 34.886719 19.785156 C 34.90625 20.109375 34.914062 20.429688 34.929688 20.753906 C 34.929688 20.851562 34.929688 20.9375 34.949219 21.03125 C 34.957031 21.089844 34.972656 21.109375 35.035156 21.117188 C 35.1875 21.125 35.34375 21.152344 35.5 21.167969 C 36.332031 21.253906 37.15625 21.355469 37.980469 21.460938 C 38.394531 21.511719 38.804688 21.5625 39.21875 21.605469 C 39.339844 21.621094 39.347656 21.621094 39.328125 21.492188 C 39.3125 21.355469 39.285156 21.226562 39.269531 21.097656 C 39.105469 20 38.890625 18.917969 38.660156 17.835938 C 38.609375 17.578125 38.652344 17.636719 38.394531 17.59375 C 37.484375 17.449219 36.570312 17.308594 35.660156 17.207031 C 35.378906 17.171875 35.09375 17.148438 34.785156 17.121094 Z M 44.292969 26.332031 C 44.285156 26.203125 44.269531 26.074219 44.269531 25.945312 C 44.25 25.515625 44.207031 25.085938 44.175781 24.65625 C 44.113281 24.011719 44.027344 23.375 43.933594 22.730469 C 43.910156 22.585938 43.910156 22.578125 43.753906 22.558594 C 42.566406 22.386719 41.382812 22.25 40.195312 22.136719 C 40.121094 22.136719 40.035156 22.128906 39.957031 22.121094 C 39.90625 22.121094 39.886719 22.148438 39.898438 22.191406 C 39.898438 22.214844 39.90625 22.242188 39.914062 22.265625 C 40.042969 23.109375 40.136719 23.949219 40.207031 24.800781 C 40.238281 25.222656 40.25 25.652344 40.273438 26.074219 C 40.273438 26.191406 40.28125 26.203125 40.402344 26.210938 C 40.710938 26.234375 41.023438 26.261719 41.339844 26.296875 C 42.019531 26.355469 42.695312 26.433594 43.375 26.527344 C 43.652344 26.5625 43.933594 26.605469 44.207031 26.648438 C 44.277344 26.65625 44.3125 26.648438 44.304688 26.570312 C 44.304688 26.492188 44.304688 26.40625 44.304688 26.332031 Z M 44.027344 32.929688 C 43.996094 32.929688 43.96875 32.929688 43.953125 32.929688 C 43.617188 32.960938 43.273438 32.996094 42.9375 33.03125 C 42.070312 33.125 41.203125 33.1875 40.324219 33.238281 C 40.207031 33.238281 40.207031 33.238281 40.195312 33.367188 C 40.195312 33.640625 40.195312 33.914062 40.179688 34.191406 C 40.152344 34.707031 40.121094 35.222656 40.078125 35.738281 C 40.027344 36.398438 39.964844 37.050781 39.878906 37.710938 C 39.871094 37.816406 39.878906 37.832031 40 37.816406 C 40.1875 37.78125 40.367188 37.746094 40.558594 37.703125 C 41.496094 37.523438 42.421875 37.292969 43.351562 37.070312 C 43.496094 37.035156 43.488281 37.035156 43.523438 36.871094 C 43.539062 36.792969 43.53125 36.726562 43.539062 36.648438 C 43.554688 36.425781 43.554688 36.210938 43.589844 35.984375 C 43.726562 35.066406 43.898438 34.15625 44.003906 33.226562 C 44.011719 33.132812 44.039062 33.039062 44.019531 32.929688 Z M 43.832031 22.300781 C 43.847656 22.222656 43.832031 22.164062 43.824219 22.105469 C 43.71875 21.546875 43.609375 20.988281 43.480469 20.429688 C 43.324219 19.792969 43.167969 19.167969 43.015625 18.53125 C 42.996094 18.445312 42.953125 18.394531 42.859375 18.375 C 42.578125 18.324219 42.292969 18.246094 42.011719 18.195312 C 41.210938 18.039062 40.410156 17.910156 39.605469 17.773438 C 39.398438 17.738281 39.191406 17.707031 38.976562 17.671875 C 38.96875 17.765625 39.003906 17.84375 39.019531 17.921875 C 39.296875 19.046875 39.535156 20.179688 39.742188 21.3125 C 39.757812 21.425781 39.742188 21.554688 39.8125 21.640625 C 39.871094 21.726562 40.015625 21.699219 40.128906 21.707031 C 41.167969 21.835938 42.199219 22 43.222656 22.191406 C 43.417969 22.222656 43.625 22.257812 43.824219 22.300781 Z M 48.875 39.191406 C 48.863281 39.191406 48.855469 39.183594 48.839844 39.183594 C 48.253906 39.15625 47.722656 38.976562 47.234375 38.648438 C 46.992188 38.484375 46.785156 38.296875 46.570312 38.109375 C 46.234375 37.796875 45.945312 37.453125 45.746094 37.042969 C 45.617188 36.777344 45.523438 36.511719 45.445312 36.226562 C 45.410156 36.105469 45.394531 35.984375 45.335938 35.867188 C 45.324219 35.890625 45.308594 35.898438 45.308594 35.917969 C 45.238281 36.261719 45.085938 36.570312 44.9375 36.878906 C 44.742188 37.292969 44.484375 37.660156 44.140625 37.960938 C 43.503906 38.511719 42.765625 38.882812 41.96875 39.148438 C 41.925781 39.164062 41.871094 39.164062 41.847656 39.207031 C 41.863281 39.207031 41.871094 39.214844 41.882812 39.214844 C 42.523438 39.351562 43.109375 39.59375 43.632812 40.007812 C 44.320312 40.546875 44.792969 41.242188 45.164062 42.023438 C 45.25 42.214844 45.308594 42.410156 45.367188 42.617188 C 45.386719 42.601562 45.394531 42.59375 45.394531 42.582031 C 45.410156 42.53125 45.4375 42.480469 45.453125 42.429688 C 45.746094 41.578125 46.191406 40.832031 46.890625 40.238281 C 47.4375 39.765625 48.039062 39.386719 48.761719 39.242188 C 48.804688 39.242188 48.847656 39.242188 48.875 39.191406 Z M 31.175781 45.617188 C 31.347656 45.617188 31.519531 45.617188 31.691406 45.617188 C 32.335938 45.617188 32.972656 45.554688 33.609375 45.503906 C 33.703125 45.503906 33.738281 45.460938 33.753906 45.375 C 33.816406 45.050781 33.867188 44.714844 33.890625 44.386719 C 33.910156 44.171875 33.933594 43.957031 33.945312 43.742188 C 33.953125 43.535156 33.953125 43.320312 33.976562 43.117188 C 33.988281 43.039062 33.960938 43.011719 33.875 43.011719 C 33.675781 43.03125 33.480469 43.039062 33.28125 43.046875 C 32.699219 43.066406 32.105469 43.089844 31.519531 43.082031 C 31.160156 43.082031 30.800781 43.082031 30.4375 43.082031 C 29.863281 43.054688 29.289062 43.039062 28.710938 42.988281 C 28.589844 42.980469 28.574219 43.003906 28.582031 43.109375 C 28.625 43.554688 28.660156 44.007812 28.695312 44.457031 C 28.71875 44.757812 28.746094 45.058594 28.773438 45.359375 C 28.789062 45.53125 28.796875 45.53125 28.96875 45.539062 C 29.699219 45.597656 30.429688 45.625 31.167969 45.617188 Z M 28.171875 42.472656 C 28.203125 42.429688 28.1875 42.402344 28.1875 42.367188 C 28.144531 41.964844 28.09375 41.5625 28.050781 41.148438 C 28 40.738281 27.964844 40.324219 27.949219 39.910156 C 27.9375 39.664062 27.949219 39.414062 27.9375 39.164062 C 27.9375 39.035156 27.9375 39.035156 27.820312 39.035156 C 27.191406 39.027344 26.574219 38.984375 25.945312 38.941406 C 25.277344 38.890625 24.605469 38.828125 23.9375 38.753906 C 23.851562 38.742188 23.765625 38.710938 23.6875 38.753906 C 23.6875 38.761719 23.6875 38.769531 23.6875 38.769531 C 23.851562 39.75 24.039062 40.71875 24.226562 41.691406 C 24.246094 41.765625 24.289062 41.808594 24.363281 41.820312 C 24.535156 41.851562 24.707031 41.894531 24.890625 41.929688 C 25.84375 42.136719 26.796875 42.308594 27.765625 42.429688 C 27.914062 42.445312 28.050781 42.480469 28.1875 42.464844 Z M 47.265625 30.308594 C 47.234375 29.835938 47.242188 29.371094 47.207031 28.90625 C 47.179688 28.460938 47.136719 28.003906 47.09375 27.558594 C 47.078125 27.414062 47.078125 27.414062 46.949219 27.386719 C 46.546875 27.308594 46.132812 27.230469 45.730469 27.164062 C 45.453125 27.113281 45.179688 27.078125 44.894531 27.035156 C 44.820312 27.019531 44.785156 27.035156 44.792969 27.121094 C 44.792969 27.164062 44.792969 27.207031 44.792969 27.25 C 44.808594 27.824219 44.800781 28.390625 44.800781 28.96875 C 44.800781 29.199219 44.800781 29.429688 44.792969 29.664062 C 44.765625 30.160156 44.742188 30.660156 44.707031 31.160156 C 44.691406 31.414062 44.664062 31.671875 44.648438 31.929688 C 44.628906 32.101562 44.621094 32.273438 44.605469 32.445312 C 44.605469 32.507812 44.613281 32.542969 44.679688 32.53125 C 44.699219 32.53125 44.722656 32.53125 44.742188 32.53125 C 45.507812 32.457031 46.269531 32.351562 47.035156 32.25 C 47.15625 32.230469 47.171875 32.230469 47.171875 32.09375 C 47.171875 32.042969 47.191406 32 47.191406 31.949219 C 47.214844 31.398438 47.242188 30.847656 47.265625 30.308594 Z M 42.894531 18.144531 C 42.894531 18.101562 42.894531 18.074219 42.894531 18.058594 C 42.695312 17.34375 42.480469 16.632812 42.242188 15.925781 C 42.207031 15.832031 42.15625 15.753906 42.078125 15.695312 C 41.289062 15.085938 40.453125 14.535156 39.570312 14.0625 C 38.96875 13.746094 38.359375 13.445312 37.730469 13.179688 C 37.671875 13.152344 37.601562 13.109375 37.507812 13.109375 C 37.664062 13.4375 37.792969 13.746094 37.902344 14.0625 C 37.9375 14.167969 38 14.199219 38.09375 14.226562 C 38.933594 14.433594 39.75 14.726562 40.558594 15.042969 C 40.574219 15.042969 40.582031 15.050781 40.601562 15.058594 C 40.625 15.078125 40.652344 15.101562 40.644531 15.136719 C 40.636719 15.171875 40.601562 15.164062 40.574219 15.164062 C 40.488281 15.144531 40.402344 15.128906 40.324219 15.113281 C 39.8125 14.984375 39.304688 14.855469 38.789062 14.726562 C 38.566406 14.671875 38.339844 14.613281 38.117188 14.585938 C 38.117188 14.613281 38.117188 14.621094 38.117188 14.628906 C 38.382812 15.453125 38.625 16.28125 38.832031 17.113281 C 38.847656 17.183594 38.890625 17.207031 38.953125 17.214844 C 39.140625 17.25 39.320312 17.292969 39.5 17.328125 C 40.378906 17.507812 41.261719 17.6875 42.136719 17.910156 C 42.386719 17.972656 42.636719 18.050781 42.902344 18.117188 Z M 34.253906 16.152344 C 34.234375 15.773438 34.21875 15.386719 34.191406 15.007812 C 34.175781 14.742188 34.140625 14.484375 34.125 14.21875 C 34.125 14.148438 34.097656 14.097656 34.011719 14.089844 C 33.703125 14.070312 33.386719 14.046875 33.074219 14.039062 C 32.636719 14.027344 32.199219 14.019531 31.761719 14.019531 C 31.101562 14.019531 30.445312 14.019531 29.785156 14.0625 C 29.691406 14.0625 29.65625 14.097656 29.648438 14.191406 C 29.621094 14.40625 29.578125 14.613281 29.546875 14.828125 C 29.46875 15.292969 29.398438 15.753906 29.320312 16.210938 C 29.304688 16.296875 29.320312 16.324219 29.40625 16.3125 C 29.519531 16.3125 29.621094 16.296875 29.734375 16.296875 C 30.507812 16.289062 31.289062 16.304688 32.0625 16.332031 C 32.292969 16.332031 32.527344 16.347656 32.757812 16.367188 C 33.230469 16.398438 33.703125 16.433594 34.175781 16.476562 C 34.234375 16.476562 34.269531 16.460938 34.269531 16.398438 C 34.269531 16.3125 34.269531 16.226562 34.269531 16.140625 Z M 38.917969 42.292969 C 38.839844 42.308594 38.78125 42.316406 38.71875 42.324219 C 37.808594 42.515625 36.890625 42.679688 35.972656 42.796875 C 35.472656 42.859375 34.972656 42.917969 34.476562 42.953125 C 34.398438 42.953125 34.371094 42.980469 34.363281 43.054688 C 34.355469 43.21875 34.328125 43.390625 34.3125 43.554688 C 34.277344 43.90625 34.242188 44.257812 34.183594 44.609375 C 34.140625 44.886719 34.082031 45.160156 34.011719 45.425781 C 34.074219 45.460938 34.125 45.433594 34.175781 45.425781 C 34.878906 45.339844 35.585938 45.246094 36.289062 45.125 C 36.914062 45.015625 37.535156 44.894531 38.160156 44.765625 C 38.230469 44.75 38.28125 44.738281 38.296875 44.664062 C 38.46875 44.085938 38.667969 43.527344 38.796875 42.945312 C 38.839844 42.738281 38.890625 42.523438 38.910156 42.28125 Z M 23.839844 41.699219 C 23.859375 41.65625 23.839844 41.628906 23.839844 41.605469 C 23.78125 41.335938 23.722656 41.082031 23.660156 40.8125 C 23.507812 40.136719 23.359375 39.457031 23.238281 38.777344 C 23.222656 38.699219 23.195312 38.65625 23.101562 38.648438 C 22.964844 38.640625 22.835938 38.605469 22.707031 38.589844 C 21.746094 38.441406 20.78125 38.28125 19.839844 38.039062 C 19.804688 38.03125 19.761719 37.996094 19.71875 38.023438 C 19.691406 38.074219 19.71875 38.125 19.71875 38.167969 C 19.855469 38.984375 20.011719 39.800781 20.164062 40.609375 C 20.179688 40.695312 20.222656 40.738281 20.320312 40.761719 C 21.09375 40.941406 21.867188 41.148438 22.628906 41.371094 C 23.023438 41.492188 23.429688 41.59375 23.839844 41.691406 Z M 42.457031 16.03125 C 42.4375 16.066406 42.457031 16.089844 42.457031 16.117188 C 42.738281 16.796875 42.988281 17.480469 43.210938 18.179688 C 43.230469 18.238281 43.265625 18.28125 43.332031 18.296875 C 43.496094 18.351562 43.660156 18.410156 43.8125 18.488281 C 43.941406 18.546875 44.070312 18.609375 44.191406 18.667969 C 44.234375 18.695312 44.3125 18.710938 44.285156 18.78125 C 44.261719 18.855469 44.191406 18.796875 44.148438 18.78125 C 44.105469 18.769531 44.054688 18.746094 44.011719 18.726562 C 43.824219 18.660156 43.632812 18.597656 43.445312 18.539062 C 43.410156 18.53125 43.375 18.503906 43.339844 18.539062 C 43.339844 18.574219 43.339844 18.609375 43.359375 18.652344 C 43.726562 19.84375 44.039062 21.054688 44.269531 22.285156 C 44.285156 22.386719 44.328125 22.421875 44.433594 22.449219 C 44.992188 22.558594 45.539062 22.679688 46.082031 22.824219 C 46.125 22.835938 46.160156 22.859375 46.210938 22.824219 C 46.203125 22.773438 46.191406 22.722656 46.183594 22.671875 C 46.097656 22.300781 46.011719 21.921875 45.925781 21.554688 C 45.738281 20.695312 45.558594 19.835938 45.351562 18.984375 C 45.335938 18.898438 45.308594 18.824219 45.25 18.753906 C 44.90625 18.339844 44.542969 17.9375 44.164062 17.558594 C 43.710938 17.113281 43.238281 16.675781 42.738281 16.269531 C 42.644531 16.195312 42.558594 16.109375 42.457031 16.046875 Z M 18.78125 22.5 C 18.488281 22.550781 18.222656 22.550781 17.957031 22.621094 C 17.414062 22.765625 16.875 22.945312 16.339844 23.136719 C 16.265625 23.160156 16.230469 23.195312 16.210938 23.273438 C 16.082031 23.917969 15.964844 24.5625 15.878906 25.214844 C 15.835938 25.558594 15.792969 25.910156 15.765625 26.253906 C 15.75 26.46875 15.714844 26.683594 15.730469 26.898438 C 15.835938 26.898438 15.914062 26.847656 16 26.820312 C 16.769531 26.554688 17.542969 26.289062 18.367188 26.191406 C 18.464844 26.183594 18.472656 26.132812 18.472656 26.046875 C 18.472656 25.53125 18.496094 25.023438 18.53125 24.519531 C 18.566406 24.035156 18.617188 23.5625 18.695312 23.09375 C 18.730469 22.902344 18.753906 22.714844 18.78125 22.5 Z M 17.132812 17.394531 C 17.132812 17.414062 17.132812 17.421875 17.140625 17.421875 C 17.210938 17.4375 17.285156 17.464844 17.355469 17.480469 C 18.070312 17.652344 18.59375 18.058594 18.902344 18.738281 C 19.082031 19.132812 19.226562 19.535156 19.347656 19.949219 C 19.367188 20 19.367188 20.058594 19.410156 20.101562 C 19.425781 20.078125 19.433594 20.066406 19.441406 20.058594 C 19.742188 19.535156 20.09375 19.046875 20.5 18.597656 C 20.929688 18.136719 21.417969 17.765625 22.003906 17.542969 C 22.027344 17.535156 22.078125 17.542969 22.078125 17.480469 C 22.054688 17.4375 22.011719 17.4375 21.96875 17.429688 C 21.847656 17.414062 21.726562 17.363281 21.617188 17.320312 C 21.222656 17.164062 20.902344 16.90625 20.59375 16.625 C 20.492188 16.527344 20.40625 16.433594 20.320312 16.324219 C 20 15.875 19.742188 15.394531 19.632812 14.855469 C 19.605469 14.75 19.582031 14.648438 19.554688 14.535156 C 19.554688 14.5 19.554688 14.457031 19.503906 14.449219 C 19.496094 14.46875 19.484375 14.492188 19.476562 14.511719 C 19.28125 15.078125 18.996094 15.601562 18.652344 16.097656 C 18.367188 16.503906 18.050781 16.871094 17.628906 17.148438 C 17.46875 17.257812 17.285156 17.335938 17.105469 17.414062 Z M 28.402344 45.488281 C 28.574219 45.488281 28.574219 45.488281 28.558594 45.359375 C 28.496094 44.902344 28.4375 44.4375 28.386719 43.984375 C 28.351562 43.683594 28.316406 43.375 28.273438 43.074219 C 28.257812 42.945312 28.246094 42.945312 28.128906 42.9375 C 27.878906 42.910156 27.621094 42.882812 27.371094 42.859375 C 26.417969 42.738281 25.464844 42.574219 24.519531 42.359375 C 24.484375 42.359375 24.460938 42.351562 24.425781 42.34375 C 24.382812 42.34375 24.363281 42.359375 24.363281 42.402344 C 24.363281 42.429688 24.363281 42.453125 24.375 42.480469 C 24.546875 43.246094 24.707031 44 24.921875 44.757812 C 24.957031 44.886719 25.019531 44.945312 25.15625 44.980469 C 25.773438 45.117188 26.390625 45.230469 27.011719 45.324219 C 27.484375 45.390625 27.949219 45.453125 28.394531 45.496094 Z M 24.683594 44.835938 C 24.699219 44.792969 24.683594 44.765625 24.664062 44.730469 C 24.425781 43.984375 24.226562 43.21875 24.039062 42.464844 C 23.980469 42.207031 24.039062 42.257812 23.765625 42.195312 C 22.714844 41.9375 21.675781 41.648438 20.664062 41.25 C 20.542969 41.199219 20.414062 41.15625 20.292969 41.105469 C 20.257812 41.148438 20.277344 41.183594 20.292969 41.207031 C 20.449219 41.957031 20.636719 42.6875 20.859375 43.40625 C 20.878906 43.46875 20.910156 43.511719 20.964844 43.546875 C 21.179688 43.699219 21.394531 43.847656 21.617188 44 C 21.660156 44.027344 21.703125 44.042969 21.746094 44.050781 C 22.277344 44.164062 22.808594 44.277344 23.324219 44.4375 C 23.738281 44.566406 24.148438 44.714844 24.578125 44.816406 C 24.613281 44.824219 24.648438 44.851562 24.691406 44.824219 Z M 38.496094 17.148438 C 38.523438 17.105469 38.503906 17.085938 38.496094 17.0625 C 38.324219 16.269531 38.125 15.480469 37.921875 14.691406 C 37.894531 14.585938 37.84375 14.542969 37.742188 14.527344 C 36.734375 14.339844 35.714844 14.242188 34.699219 14.148438 C 34.628906 14.148438 34.613281 14.15625 34.621094 14.234375 C 34.699219 14.835938 34.742188 15.429688 34.757812 16.039062 C 34.757812 16.175781 34.769531 16.324219 34.769531 16.460938 C 34.769531 16.527344 34.785156 16.5625 34.863281 16.5625 C 34.886719 16.5625 34.914062 16.5625 34.941406 16.570312 C 35.886719 16.675781 36.828125 16.828125 37.765625 17.011719 C 38.007812 17.054688 38.246094 17.105469 38.496094 17.148438 Z M 44.355469 22.664062 C 44.355469 22.695312 44.355469 22.722656 44.355469 22.738281 C 44.398438 23.03125 44.449219 23.324219 44.492188 23.617188 C 44.578125 24.21875 44.648438 24.820312 44.699219 25.429688 C 44.734375 25.824219 44.75 26.21875 44.777344 26.621094 C 44.777344 26.734375 44.757812 26.75 44.921875 26.785156 C 45.34375 26.855469 45.753906 26.941406 46.175781 27.035156 C 46.460938 27.105469 46.75 27.164062 47.035156 27.230469 C 47.0625 27.164062 47.035156 27.09375 47.035156 27.035156 C 47 26.804688 46.976562 26.578125 46.933594 26.347656 C 46.761719 25.28125 46.527344 24.234375 46.304688 23.1875 C 46.277344 23.066406 46.21875 23.023438 46.105469 22.996094 C 45.53125 22.878906 44.957031 22.773438 44.355469 22.679688 Z M 42.601562 41.285156 C 42.550781 41.277344 42.523438 41.285156 42.492188 41.304688 C 41.496094 41.628906 40.496094 41.929688 39.476562 42.164062 C 39.382812 42.1875 39.347656 42.238281 39.328125 42.324219 C 39.226562 42.9375 39.039062 43.527344 38.804688 44.105469 C 38.726562 44.292969 38.660156 44.480469 38.589844 44.671875 C 38.625 44.6875 38.652344 44.679688 38.675781 44.671875 C 39.597656 44.464844 40.507812 44.234375 41.410156 43.941406 C 41.539062 43.898438 41.699219 43.878906 41.796875 43.792969 C 41.890625 43.699219 41.914062 43.546875 41.96875 43.417969 C 42.199219 42.816406 42.363281 42.195312 42.523438 41.578125 C 42.550781 41.484375 42.585938 41.398438 42.59375 41.285156 Z M 18.09375 18.222656 C 17.964844 18.445312 17.777344 18.617188 17.613281 18.804688 C 17.5625 18.855469 17.535156 18.917969 17.527344 18.984375 C 17.492188 19.175781 17.441406 19.355469 17.363281 19.527344 C 17.277344 19.722656 17.191406 19.921875 17.113281 20.121094 C 16.796875 20.953125 16.582031 21.820312 16.351562 22.6875 C 16.351562 22.707031 16.351562 22.730469 16.367188 22.75 C 16.746094 22.644531 17.125 22.542969 17.511719 22.449219 C 17.921875 22.34375 18.335938 22.257812 18.753906 22.171875 C 18.839844 22.15625 18.875 22.121094 18.894531 22.042969 C 18.917969 21.921875 18.945312 21.804688 18.96875 21.683594 C 19.023438 21.433594 19.03125 21.167969 19.152344 20.9375 C 19.167969 20.894531 19.152344 20.867188 19.152344 20.824219 C 19.03125 20.257812 18.867188 19.699219 18.667969 19.148438 C 18.574219 18.890625 18.464844 18.640625 18.300781 18.410156 C 18.25 18.332031 18.195312 18.265625 18.109375 18.210938 Z M 33.625 45.890625 C 33.558594 45.890625 33.503906 45.890625 33.453125 45.898438 C 32.714844 45.976562 31.976562 46.027344 31.230469 46.035156 C 30.457031 46.035156 29.691406 46.011719 28.917969 45.949219 C 28.847656 45.949219 28.832031 45.960938 28.839844 46.027344 C 28.875 46.328125 28.902344 46.628906 28.933594 46.921875 C 28.953125 47.066406 28.945312 47.066406 29.089844 47.09375 C 29.441406 47.164062 29.785156 47.222656 30.144531 47.246094 C 30.4375 47.273438 30.738281 47.300781 31.03125 47.289062 C 31.417969 47.289062 31.804688 47.257812 32.191406 47.230469 C 32.535156 47.207031 32.878906 47.164062 33.222656 47.128906 C 33.300781 47.128906 33.332031 47.09375 33.34375 47.007812 C 33.367188 46.863281 33.402344 46.722656 33.4375 46.585938 C 33.496094 46.355469 33.558594 46.132812 33.625 45.890625 Z M 31.820312 12.171875 C 31.433594 12.15625 30.996094 12.191406 30.558594 12.226562 C 30.378906 12.242188 30.199219 12.25 30.007812 12.277344 C 29.90625 12.285156 29.898438 12.292969 29.898438 12.40625 C 29.898438 12.515625 29.898438 12.628906 29.878906 12.742188 C 29.847656 12.9375 29.8125 13.144531 29.777344 13.339844 C 29.761719 13.445312 29.777344 13.453125 29.871094 13.453125 C 29.949219 13.453125 30.035156 13.445312 30.113281 13.445312 C 30.523438 13.445312 30.945312 13.445312 31.359375 13.445312 C 31.769531 13.445312 32.171875 13.460938 32.585938 13.480469 C 33.03125 13.503906 33.480469 13.539062 33.925781 13.582031 C 34.003906 13.582031 34.019531 13.566406 34.019531 13.496094 C 34.003906 13.351562 33.976562 13.210938 33.96875 13.066406 C 33.953125 12.859375 33.902344 12.664062 33.917969 12.457031 C 33.925781 12.320312 33.925781 12.320312 33.796875 12.300781 C 33.160156 12.214844 32.527344 12.183594 31.820312 12.191406 Z M 34.683594 12 C 34.707031 11.949219 34.683594 11.933594 34.683594 11.90625 C 34.484375 11.613281 34.269531 11.324219 34.003906 11.089844 C 33.839844 10.953125 33.632812 10.917969 33.4375 10.875 C 33.1875 10.816406 32.929688 10.816406 32.664062 10.808594 C 32.25 10.789062 31.847656 10.78125 31.433594 10.816406 C 30.859375 10.859375 30.292969 10.945312 29.71875 11.003906 C 29.605469 11.023438 29.503906 11.058594 29.40625 11.125 C 29.105469 11.347656 28.847656 11.613281 28.609375 11.898438 C 28.574219 11.941406 28.515625 11.96875 28.515625 12.054688 C 30.574219 11.667969 32.636719 11.570312 34.691406 11.992188 Z M 38.179688 45.082031 C 38.117188 45.058594 38.085938 45.082031 38.050781 45.082031 C 37.484375 45.210938 36.914062 45.339844 36.347656 45.453125 C 35.574219 45.605469 34.792969 45.734375 34.003906 45.832031 C 33.933594 45.832031 33.882812 45.847656 33.859375 45.933594 C 33.773438 46.226562 33.667969 46.507812 33.574219 46.792969 C 33.546875 46.878906 33.503906 46.972656 33.515625 47.078125 C 33.601562 47.078125 33.675781 47.066406 33.753906 47.058594 C 34.613281 46.949219 35.464844 46.777344 36.304688 46.585938 C 36.742188 46.484375 37.171875 46.363281 37.59375 46.207031 C 37.644531 46.191406 37.707031 46.183594 37.707031 46.097656 C 37.707031 46.0625 37.75 46.027344 37.773438 45.992188 C 38 45.726562 38.085938 45.410156 38.179688 45.082031 Z M 29.492188 12.34375 C 29.460938 12.34375 29.449219 12.335938 29.441406 12.335938 C 28.195312 12.507812 26.976562 12.773438 25.765625 13.128906 C 25.628906 13.171875 25.457031 13.171875 25.363281 13.273438 C 25.265625 13.375 25.242188 13.546875 25.207031 13.695312 C 25.164062 13.839844 25.105469 13.976562 25.085938 14.140625 C 25.148438 14.125 25.191406 14.113281 25.242188 14.105469 C 26.511719 13.769531 27.800781 13.566406 29.105469 13.496094 C 29.191406 13.496094 29.226562 13.460938 29.246094 13.375 C 29.3125 13.03125 29.375 12.6875 29.492188 12.355469 Z M 37.742188 14.148438 C 37.742188 14.113281 37.75 14.105469 37.742188 14.097656 C 37.644531 13.761719 37.527344 13.445312 37.40625 13.117188 C 37.378906 13.058594 37.335938 13.042969 37.285156 13.023438 C 36.8125 12.894531 36.367188 12.699219 35.867188 12.65625 C 35.488281 12.628906 35.128906 12.5 34.757812 12.429688 C 34.613281 12.40625 34.46875 12.363281 34.304688 12.355469 C 34.328125 12.449219 34.363281 12.535156 34.382812 12.628906 C 34.433594 12.921875 34.484375 13.210938 34.527344 13.503906 C 34.542969 13.597656 34.578125 13.640625 34.664062 13.632812 C 34.683594 13.632812 34.707031 13.632812 34.726562 13.640625 C 35.5 13.738281 36.269531 13.839844 37.035156 13.996094 C 37.257812 14.039062 37.492188 14.089844 37.722656 14.140625 Z M 42.449219 43.398438 C 42.515625 43.390625 42.550781 43.347656 42.585938 43.320312 C 43.066406 43.011719 43.496094 42.652344 43.925781 42.28125 C 44.15625 42.09375 44.371094 41.894531 44.578125 41.679688 C 44.679688 41.570312 44.679688 41.59375 44.605469 41.476562 C 44.3125 41.027344 43.953125 40.652344 43.539062 40.316406 C 43.410156 40.210938 43.28125 40.117188 43.125 40.050781 C 43.074219 40.359375 43.03125 40.652344 42.980469 40.960938 C 43.117188 40.953125 43.230469 40.910156 43.339844 40.875 C 43.382812 40.867188 43.425781 40.847656 43.46875 40.855469 C 43.511719 40.855469 43.523438 40.890625 43.496094 40.925781 C 43.480469 40.960938 43.4375 40.96875 43.402344 40.976562 C 43.289062 41.019531 43.179688 41.054688 43.066406 41.089844 C 42.980469 41.113281 42.9375 41.167969 42.921875 41.261719 C 42.792969 41.972656 42.652344 42.6875 42.449219 43.398438 Z M 23.453125 22.628906 C 23.625 22.320312 23.808594 22.035156 24.046875 21.792969 C 24.289062 21.554688 24.570312 21.382812 24.878906 21.21875 C 24.519531 21.03125 24.390625 20.925781 24.21875 20.6875 C 24.082031 20.488281 23.988281 20.273438 23.910156 20.050781 C 23.867188 19.90625 23.816406 19.757812 23.765625 19.605469 C 23.738281 19.636719 23.730469 19.65625 23.722656 19.679688 C 23.558594 20.144531 23.292969 20.539062 22.972656 20.902344 C 22.777344 21.125 22.550781 21.304688 22.261719 21.390625 C 22.207031 21.40625 22.140625 21.40625 22.089844 21.449219 C 22.691406 21.675781 23.171875 22.035156 23.453125 22.636719 Z M 28.804688 47.035156 C 28.753906 46.699219 28.710938 46.390625 28.660156 46.070312 C 28.632812 45.925781 28.632812 45.925781 28.496094 45.90625 C 27.507812 45.8125 26.519531 45.667969 25.550781 45.460938 C 25.421875 45.433594 25.292969 45.390625 25.148438 45.382812 C 25.171875 45.554688 25.25 45.703125 25.285156 45.855469 C 25.308594 45.949219 25.363281 46.003906 25.457031 46.046875 C 26.253906 46.347656 27.070312 46.605469 27.90625 46.820312 C 28.195312 46.894531 28.488281 46.972656 28.804688 47.035156 Z M 14.890625 23.261719 C 15.042969 23.203125 15.183594 23.136719 15.328125 23.09375 C 15.550781 23.015625 15.773438 22.9375 16.007812 22.867188 C 16.074219 22.84375 16.109375 22.816406 16.125 22.738281 C 16.1875 22.480469 16.246094 22.222656 16.316406 21.964844 C 16.523438 21.152344 16.726562 20.335938 17.046875 19.5625 C 17.046875 19.542969 17.0625 19.519531 17.046875 19.5 C 16.976562 19.550781 16.933594 19.628906 16.875 19.699219 C 16.394531 20.28125 15.921875 20.882812 15.527344 21.535156 C 15.472656 21.621094 15.429688 21.707031 15.40625 21.804688 C 15.3125 22.121094 15.226562 22.4375 15.105469 22.738281 C 15.035156 22.921875 14.96875 23.101562 14.898438 23.28125 Z M 41.589844 44.078125 C 41.527344 44.0625 41.503906 44.078125 41.476562 44.09375 C 40.582031 44.421875 39.664062 44.6875 38.746094 44.910156 C 38.546875 44.953125 38.4375 45.039062 38.367188 45.238281 C 38.265625 45.546875 38.117188 45.847656 37.871094 46.070312 C 37.871094 46.070312 37.871094 46.089844 37.871094 46.113281 C 39.199219 45.597656 40.445312 44.945312 41.597656 44.078125 Z M 25.035156 45.882812 C 25.042969 45.855469 25.050781 45.847656 25.050781 45.847656 C 25.007812 45.726562 24.957031 45.605469 24.933594 45.476562 C 24.898438 45.347656 24.828125 45.289062 24.699219 45.253906 C 23.925781 45.058594 23.152344 44.824219 22.433594 44.464844 C 22.414062 44.457031 22.390625 44.449219 22.363281 44.472656 C 23.230469 44.988281 24.097656 45.496094 25.042969 45.875 Z M 16.503906 15.265625 C 17.003906 15.214844 17.457031 15.027344 17.914062 14.828125 C 17.929688 14.828125 17.957031 14.8125 17.964844 14.792969 C 17.992188 14.757812 17.984375 14.734375 17.949219 14.726562 C 17.921875 14.726562 17.898438 14.726562 17.871094 14.726562 C 17.148438 14.707031 16.425781 14.742188 15.707031 14.777344 C 15.5 14.785156 15.300781 14.777344 15.097656 14.726562 C 14.992188 14.699219 14.898438 14.699219 14.796875 14.726562 C 14.742188 14.742188 14.734375 14.777344 14.753906 14.828125 C 14.804688 14.941406 14.890625 15.027344 15.011719 15.058594 C 15.421875 15.1875 15.835938 15.300781 16.273438 15.292969 C 16.351562 15.292969 16.425781 15.292969 16.496094 15.28125 Z M 16.523438 11.023438 C 16.574219 11.117188 16.640625 11.203125 16.683594 11.296875 C 16.875 11.667969 17.097656 12.019531 17.339844 12.355469 C 17.640625 12.765625 18.042969 13.074219 18.464844 13.359375 C 18.472656 13.359375 18.480469 13.375 18.488281 13.375 C 18.507812 13.375 18.523438 13.382812 18.53125 13.375 C 18.550781 13.367188 18.558594 13.332031 18.550781 13.316406 C 18.523438 13.273438 18.488281 13.222656 18.464844 13.179688 C 18.152344 12.714844 17.855469 12.242188 17.484375 11.8125 C 17.234375 11.519531 16.976562 11.238281 16.761719 10.917969 C 16.726562 10.867188 16.667969 10.851562 16.609375 10.851562 C 16.488281 10.851562 16.453125 10.902344 16.503906 11.015625 Z M 20.457031 12.816406 C 20.566406 12.269531 20.664062 11.710938 20.714844 11.144531 C 20.75 10.746094 20.792969 10.351562 20.902344 9.964844 C 20.921875 9.90625 20.921875 9.835938 20.921875 9.777344 C 20.921875 9.742188 20.921875 9.707031 20.878906 9.699219 C 20.84375 9.699219 20.816406 9.699219 20.792969 9.734375 C 20.75 9.785156 20.730469 9.84375 20.714844 9.90625 C 20.585938 10.371094 20.464844 10.84375 20.40625 11.324219 C 20.335938 11.839844 20.34375 12.363281 20.394531 12.894531 C 20.457031 12.878906 20.457031 12.84375 20.464844 12.808594 Z M 20.457031 12.816406 " fill-opacity="1" fill-rule="nonzero"/></g></svg>