<svg xmlns="http://www.w3.org/2000/svg" xmlns:xlink="http://www.w3.org/1999/xlink" zoomAndPan="magnify" viewBox="0 0 64.08 55.92" preserveAspectRatio="xMidYMid meet" version="1.0"><defs><clipPath id="2d71592915"><path d="M 2.804688 2 L 59.738281 2 L 59.738281 47.644531 L 2.804688 47.644531 Z M 2.804688 2 " clip-rule="nonzero"/></clipPath><clipPath id="9b6d375ac0"><path d="M 24 16 L 59.738281 16 L 59.738281 43 L 24 43 Z M 24 16 " clip-rule="nonzero"/></clipPath></defs><path fill="#4b4e40" d="M 3.320312 25.105469 C 3.320312 25.105469 3.3125 25.191406 3.296875 25.351562 C 3.285156 25.511719 3.273438 25.75 3.304688 26.050781 C 3.332031 26.355469 3.40625 26.71875 3.550781 27.121094 C 3.691406 27.523438 3.910156 27.957031 4.214844 28.386719 C 4.519531 28.820312 4.90625 29.25 5.390625 29.621094 C 5.507812 29.710938 5.613281 29.808594 5.75 29.894531 C 5.882812 29.980469 6.015625 30.070312 6.148438 30.160156 C 6.425781 30.3125 6.707031 30.476562 7.011719 30.609375 C 7.605469 30.886719 8.25 31.109375 8.917969 31.269531 C 9.082031 31.316406 9.25 31.351562 9.417969 31.390625 L 9.679688 31.449219 L 9.933594 31.488281 C 10.269531 31.542969 10.605469 31.59375 10.945312 31.644531 C 11.03125 31.65625 11.113281 31.671875 11.199219 31.683594 L 11.460938 31.703125 L 11.980469 31.738281 C 12.15625 31.75 12.328125 31.761719 12.5 31.773438 C 12.585938 31.78125 12.671875 31.789062 12.761719 31.789062 L 13.015625 31.785156 C 13.355469 31.78125 13.695312 31.773438 14.03125 31.765625 L 14.28125 31.761719 L 14.527344 31.738281 C 14.691406 31.722656 14.855469 31.707031 15.015625 31.6875 C 15.335938 31.652344 15.65625 31.632812 15.964844 31.574219 C 16.269531 31.519531 16.570312 31.460938 16.863281 31.40625 C 17.007812 31.378906 17.152344 31.347656 17.292969 31.324219 C 17.433594 31.292969 17.570312 31.246094 17.703125 31.210938 C 17.972656 31.132812 18.230469 31.0625 18.480469 30.988281 C 18.605469 30.953125 18.726562 30.917969 18.84375 30.882812 C 18.960938 30.839844 19.074219 30.796875 19.183594 30.753906 C 19.402344 30.667969 19.609375 30.589844 19.804688 30.511719 C 20 30.433594 20.1875 30.375 20.347656 30.292969 C 20.511719 30.214844 20.664062 30.140625 20.796875 30.078125 C 21.335938 29.8125 21.640625 29.65625 21.640625 29.65625 C 21.640625 29.65625 21.316406 29.773438 20.757812 29.984375 C 20.617188 30.039062 20.464844 30.097656 20.296875 30.160156 C 20.128906 30.226562 19.9375 30.269531 19.742188 30.332031 C 19.542969 30.390625 19.332031 30.453125 19.109375 30.519531 C 18.996094 30.550781 18.882812 30.585938 18.765625 30.621094 C 18.644531 30.644531 18.523438 30.671875 18.398438 30.699219 C 18.152344 30.753906 17.894531 30.8125 17.625 30.871094 C 17.492188 30.898438 17.355469 30.933594 17.214844 30.957031 C 17.078125 30.976562 16.933594 30.996094 16.789062 31.019531 C 16.503906 31.0625 16.207031 31.101562 15.90625 31.148438 C 15.601562 31.191406 15.289062 31.191406 14.976562 31.222656 C 14.816406 31.234375 14.65625 31.246094 14.496094 31.257812 L 14.257812 31.273438 L 14.011719 31.273438 C 13.6875 31.269531 13.359375 31.269531 13.027344 31.265625 L 12.777344 31.265625 C 12.695312 31.261719 12.609375 31.253906 12.527344 31.25 C 12.363281 31.234375 12.195312 31.222656 12.03125 31.207031 L 11.53125 31.171875 L 11.28125 31.152344 C 11.199219 31.140625 11.113281 31.125 11.027344 31.109375 C 10.691406 31.058594 10.351562 31.003906 10.019531 30.949219 L 9.765625 30.914062 L 9.53125 30.863281 C 9.367188 30.828125 9.203125 30.796875 9.046875 30.753906 C 8.402344 30.597656 7.785156 30.398438 7.210938 30.15625 C 6.921875 30.039062 6.652344 29.894531 6.386719 29.753906 C 6.257812 29.679688 6.132812 29.605469 6.011719 29.53125 C 5.886719 29.464844 5.765625 29.363281 5.644531 29.28125 C 5.179688 28.960938 4.792969 28.574219 4.480469 28.191406 C 3.84375 27.414062 3.539062 26.609375 3.417969 26.035156 C 3.359375 25.742188 3.335938 25.511719 3.328125 25.351562 C 3.324219 25.191406 3.320312 25.105469 3.320312 25.105469 " fill-opacity="1" fill-rule="nonzero"/><path fill="#4b4e40" d="M 18.308594 12.015625 C 18.175781 12.097656 18.03125 12.1875 17.878906 12.28125 C 17.570312 12.476562 17.21875 12.683594 16.859375 12.945312 C 16.675781 13.070312 16.484375 13.203125 16.289062 13.339844 C 16.09375 13.480469 15.902344 13.636719 15.699219 13.792969 C 15.289062 14.097656 14.882812 14.453125 14.457031 14.816406 C 14.050781 15.199219 13.617188 15.578125 13.214844 16.007812 C 12.800781 16.421875 12.414062 16.871094 12.019531 17.320312 C 11.644531 17.78125 11.265625 18.242188 10.925781 18.71875 C 10.75 18.953125 10.578125 19.1875 10.421875 19.429688 C 10.265625 19.667969 10.101562 19.902344 9.953125 20.136719 C 9.660156 20.609375 9.371094 21.0625 9.125 21.511719 C 9 21.734375 8.878906 21.949219 8.761719 22.160156 C 8.652344 22.371094 8.546875 22.578125 8.441406 22.777344 C 8.234375 23.167969 8.0625 23.539062 7.910156 23.867188 C 7.753906 24.191406 7.625 24.480469 7.523438 24.714844 C 7.3125 25.191406 7.199219 25.464844 7.199219 25.464844 C 7.199219 25.464844 7.351562 25.207031 7.597656 24.753906 C 7.71875 24.527344 7.871094 24.25 8.054688 23.941406 C 8.234375 23.628906 8.433594 23.273438 8.660156 22.894531 C 8.886719 22.515625 9.132812 22.105469 9.402344 21.675781 C 9.664062 21.246094 9.96875 20.804688 10.269531 20.34375 C 10.421875 20.117188 10.589844 19.890625 10.75 19.660156 C 10.914062 19.425781 11.082031 19.195312 11.257812 18.964844 C 11.597656 18.496094 11.976562 18.046875 12.34375 17.589844 C 12.726562 17.148438 13.105469 16.699219 13.511719 16.289062 C 13.902344 15.863281 14.316406 15.472656 14.707031 15.089844 C 15.121094 14.726562 15.5 14.351562 15.894531 14.035156 C 16.089844 13.871094 16.277344 13.714844 16.457031 13.5625 C 16.644531 13.414062 16.828125 13.273438 17 13.136719 C 17.34375 12.859375 17.675781 12.625 17.964844 12.410156 C 18.109375 12.304688 18.246094 12.203125 18.371094 12.113281 C 18.5 12.023438 18.617188 11.945312 18.722656 11.871094 C 19.152344 11.582031 19.390625 11.410156 19.390625 11.410156 C 19.390625 11.410156 19.132812 11.550781 18.679688 11.804688 C 18.566406 11.867188 18.445312 11.9375 18.308594 12.015625 " fill-opacity="1" fill-rule="nonzero"/><g clip-path="url(#2d71592915)"><path fill="#4b4e40" d="M 21.046875 25.027344 C 21.050781 25.164062 21.058594 25.300781 21.0625 25.4375 C 21.074219 25.59375 21.089844 25.707031 21.105469 25.847656 C 21.109375 25.90625 21.117188 25.964844 21.125 26.023438 C 16.007812 28.824219 10.753906 29.617188 7.742188 28.875 C 7.746094 28.808594 7.757812 28.714844 7.769531 28.59375 C 7.785156 28.316406 7.855469 27.929688 7.957031 27.441406 C 8.023438 27.199219 8.082031 26.925781 8.179688 26.636719 C 8.28125 26.347656 8.378906 26.035156 8.523438 25.714844 C 8.78125 25.0625 9.132812 24.34375 9.566406 23.589844 C 9.621094 23.496094 9.671875 23.398438 9.726562 23.304688 C 9.777344 23.222656 9.847656 23.117188 9.90625 23.023438 C 10.027344 22.832031 10.152344 22.636719 10.28125 22.4375 C 10.539062 22.042969 10.789062 21.617188 11.078125 21.210938 C 11.675781 20.417969 12.257812 19.546875 12.996094 18.742188 C 13.175781 18.535156 13.351562 18.328125 13.53125 18.117188 C 13.625 18.011719 13.710938 17.90625 13.804688 17.804688 L 14.101562 17.507812 C 14.496094 17.109375 14.894531 16.707031 15.296875 16.304688 C 16.132812 15.515625 17.011719 14.765625 17.9375 14.058594 C 18.863281 13.363281 19.824219 12.703125 20.800781 12.105469 C 21.785156 11.515625 22.765625 10.972656 23.746094 10.484375 C 24.722656 10 25.695312 9.589844 26.640625 9.273438 C 27.585938 8.953125 28.503906 8.734375 29.371094 8.621094 C 29.585938 8.582031 29.796875 8.5625 30.003906 8.546875 C 30.210938 8.527344 30.414062 8.5 30.613281 8.503906 C 30.808594 8.496094 31.003906 8.492188 31.191406 8.484375 C 31.378906 8.492188 31.5625 8.5 31.738281 8.507812 C 31.828125 8.511719 31.914062 8.515625 32 8.519531 C 32.085938 8.527344 32.167969 8.535156 32.25 8.546875 C 32.414062 8.566406 32.574219 8.582031 32.726562 8.601562 C 33.03125 8.648438 33.304688 8.710938 33.554688 8.757812 C 33.800781 8.824219 34.023438 8.886719 34.214844 8.9375 C 34.40625 8.984375 34.558594 9.058594 34.6875 9.101562 C 34.945312 9.199219 35.082031 9.25 35.082031 9.25 C 35.082031 9.25 34.949219 9.191406 34.695312 9.085938 C 34.566406 9.035156 34.417969 8.953125 34.226562 8.898438 C 34.035156 8.835938 33.820312 8.765625 33.574219 8.6875 C 33.324219 8.632812 33.046875 8.5625 32.742188 8.5 C 32.589844 8.476562 32.429688 8.453125 32.265625 8.429688 C 32.183594 8.417969 32.097656 8.40625 32.011719 8.390625 C 31.925781 8.386719 31.835938 8.378906 31.75 8.371094 C 31.570312 8.359375 31.382812 8.34375 31.195312 8.332031 C 31.003906 8.328125 30.808594 8.328125 30.605469 8.328125 C 30.40625 8.320312 30.199219 8.339844 29.988281 8.347656 C 29.773438 8.359375 29.554688 8.371094 29.339844 8.402344 C 28.460938 8.5 27.519531 8.699219 26.550781 9 C 25.582031 9.296875 24.589844 9.691406 23.585938 10.160156 C 23.335938 10.273438 23.089844 10.398438 22.839844 10.519531 C 22.585938 10.644531 22.339844 10.78125 22.089844 10.914062 C 21.835938 11.042969 21.585938 11.179688 21.339844 11.324219 C 21.089844 11.46875 20.835938 11.605469 20.589844 11.753906 C 19.59375 12.347656 18.613281 13.003906 17.664062 13.699219 C 16.71875 14.402344 15.808594 15.160156 14.960938 15.945312 C 14.550781 16.359375 14.144531 16.765625 13.746094 17.167969 L 13.445312 17.472656 C 13.351562 17.574219 13.261719 17.683594 13.167969 17.789062 C 12.988281 18.003906 12.808594 18.214844 12.628906 18.425781 C 11.882812 19.246094 11.285156 20.140625 10.679688 20.957031 L 10.566406 21.109375 L 10.46875 21.269531 C 10.40625 21.375 10.339844 21.480469 10.277344 21.585938 C 10.152344 21.792969 10.027344 22 9.902344 22.199219 C 9.777344 22.402344 9.660156 22.601562 9.539062 22.796875 C 9.476562 22.894531 9.421875 22.980469 9.359375 23.09375 C 9.304688 23.191406 9.253906 23.289062 9.203125 23.386719 C 8.78125 24.167969 8.429688 24.902344 8.1875 25.582031 C 8.050781 25.917969 7.964844 26.246094 7.871094 26.542969 C 7.785156 26.84375 7.734375 27.128906 7.671875 27.382812 C 7.585938 27.898438 7.53125 28.308594 7.535156 28.578125 C 7.527344 28.675781 7.527344 28.753906 7.523438 28.816406 C 6.949219 28.65625 6.464844 28.4375 6.089844 28.160156 C 5.347656 26.433594 5.207031 24.472656 5.515625 22.613281 C 5.851562 20.589844 6.699219 18.679688 7.761719 16.925781 C 8.550781 15.621094 9.460938 14.398438 10.398438 13.195312 C 11.335938 12.21875 12.375 11.210938 13.511719 10.183594 C 17.03125 7.003906 21.269531 4.648438 25.445312 3.554688 C 29.148438 2.582031 32.285156 2.808594 33.625 4.148438 C 33.976562 4.5 34.273438 4.871094 34.523438 5.265625 C 35.054688 6.207031 35.351562 7.300781 35.375 8.378906 C 35.40625 10.085938 34.871094 11.738281 34.089844 13.277344 C 33.894531 13.652344 33.675781 14.027344 33.4375 14.414062 L 33.4375 14.410156 C 33.4375 14.410156 33.359375 14.398438 33.210938 14.375 C 33.066406 14.351562 32.847656 14.3125 32.550781 14.292969 C 31.96875 14.234375 31.105469 14.199219 30.019531 14.363281 C 28.941406 14.527344 27.636719 14.898438 26.304688 15.65625 C 24.976562 16.40625 23.628906 17.585938 22.640625 19.207031 C 22.152344 20.015625 21.742188 20.917969 21.457031 21.898438 C 21.1875 22.882812 21.019531 23.9375 21.046875 25.027344 Z M 26.238281 21.335938 C 26.730469 21.027344 27.304688 20.859375 27.886719 20.84375 C 27.429688 21.269531 26.949219 21.695312 26.449219 22.125 C 26.363281 21.863281 26.292969 21.597656 26.238281 21.335938 Z M 26.101562 20.203125 C 26.097656 19.929688 26.109375 19.660156 26.140625 19.398438 C 26.710938 17.726562 27.851562 16.351562 29.214844 15.882812 C 30.390625 15.476562 31.648438 15.253906 32.894531 15.234375 C 31.707031 16.957031 30.105469 18.765625 28.113281 20.632812 C 27.445312 20.605469 26.769531 20.769531 26.195312 21.109375 C 26.140625 20.804688 26.109375 20.5 26.101562 20.203125 Z M 30.476562 28.480469 C 30.65625 28.335938 30.925781 28.121094 31.253906 27.828125 C 31.421875 27.6875 31.601562 27.523438 31.792969 27.34375 C 31.988281 27.167969 32.195312 26.972656 32.414062 26.757812 C 32.851562 26.335938 33.328125 25.835938 33.824219 25.273438 C 34.316406 24.707031 34.832031 24.074219 35.34375 23.386719 C 35.667969 22.933594 35.996094 22.460938 36.316406 21.960938 C 36.363281 21.980469 36.4375 22.003906 36.535156 22.039062 C 36.722656 22.105469 37 22.207031 37.34375 22.339844 C 37.691406 22.476562 38.113281 22.644531 38.585938 22.855469 C 39.0625 23.066406 39.589844 23.320312 40.15625 23.613281 C 40.722656 23.90625 41.324219 24.25 41.949219 24.632812 C 42.574219 25.011719 43.214844 25.441406 43.859375 25.914062 C 45.148438 26.851562 46.449219 27.960938 47.628906 29.183594 C 48.816406 30.402344 49.886719 31.730469 50.785156 33.046875 C 51.234375 33.703125 51.640625 34.359375 51.996094 34.992188 C 52.355469 35.628906 52.683594 36.234375 52.925781 36.816406 C 53.171875 37.394531 53.351562 37.941406 53.464844 38.4375 C 53.582031 38.929688 53.636719 39.367188 53.648438 39.722656 C 53.664062 40.082031 53.632812 40.359375 53.609375 40.546875 C 53.59375 40.644531 53.582031 40.714844 53.574219 40.765625 C 53.34375 40.785156 53.109375 40.800781 52.875 40.804688 C 51.578125 40.824219 50.273438 40.59375 48.992188 40.273438 C 46.425781 39.632812 43.933594 38.6875 41.617188 37.496094 C 39.296875 36.308594 37.152344 34.878906 35.238281 33.300781 C 33.417969 31.8125 31.8125 30.1875 30.429688 28.519531 C 30.445312 28.503906 30.457031 28.496094 30.476562 28.480469 Z M 36.835938 21.128906 C 37.316406 20.320312 37.765625 19.460938 38.179688 18.566406 C 38.53125 17.8125 38.851562 17.027344 39.117188 16.214844 C 39.132812 16.222656 39.144531 16.226562 39.160156 16.230469 C 39.316406 16.28125 39.546875 16.34375 39.839844 16.445312 C 40.429688 16.636719 41.289062 16.949219 42.355469 17.414062 C 43.417969 17.878906 44.679688 18.519531 46.054688 19.367188 C 47.433594 20.214844 48.917969 21.285156 50.414062 22.59375 C 51.910156 23.90625 53.417969 25.457031 54.808594 27.261719 C 55.503906 28.160156 56.171875 29.125 56.792969 30.144531 C 57.40625 31.164062 58.019531 32.234375 58.4375 33.382812 C 58.648438 33.957031 58.8125 34.554688 58.882812 35.160156 C 58.957031 35.769531 58.933594 36.394531 58.78125 36.976562 C 58.691406 37.339844 58.542969 37.683594 58.359375 38.007812 C 58.367188 37.960938 58.371094 37.917969 58.378906 37.871094 C 58.398438 37.722656 58.425781 37.5625 58.433594 37.390625 C 58.460938 37.046875 58.472656 36.660156 58.457031 36.238281 C 58.453125 36.132812 58.449219 36.027344 58.445312 35.917969 C 58.433594 35.808594 58.425781 35.695312 58.414062 35.582031 C 58.40625 35.46875 58.390625 35.351562 58.371094 35.234375 C 58.347656 35.113281 58.339844 35.003906 58.304688 34.871094 C 58.246094 34.640625 58.183594 34.40625 58.121094 34.164062 C 58.046875 33.921875 57.949219 33.675781 57.863281 33.425781 C 57.664062 32.933594 57.4375 32.441406 57.175781 31.960938 C 57.050781 31.714844 56.894531 31.480469 56.757812 31.246094 C 56.613281 31.011719 56.484375 30.769531 56.328125 30.539062 C 56.019531 30.074219 55.722656 29.605469 55.398438 29.167969 C 55.238281 28.949219 55.082031 28.726562 54.921875 28.511719 C 54.757812 28.300781 54.59375 28.09375 54.4375 27.886719 C 54.125 27.472656 53.785156 27.101562 53.480469 26.738281 C 53.332031 26.554688 53.171875 26.382812 53.019531 26.222656 C 52.867188 26.058594 52.71875 25.898438 52.578125 25.746094 C 52.4375 25.59375 52.292969 25.457031 52.15625 25.328125 C 52.019531 25.195312 51.890625 25.070312 51.769531 24.953125 C 51.648438 24.839844 51.535156 24.726562 51.425781 24.632812 C 51.316406 24.535156 51.214844 24.449219 51.121094 24.371094 C 50.753906 24.058594 50.542969 23.878906 50.542969 23.878906 C 50.542969 23.878906 50.746094 24.066406 51.101562 24.394531 C 51.191406 24.476562 51.289062 24.566406 51.394531 24.664062 C 51.5 24.761719 51.605469 24.882812 51.722656 25 C 51.953125 25.246094 52.230469 25.507812 52.496094 25.824219 C 52.632812 25.976562 52.777344 26.140625 52.921875 26.308594 C 53.070312 26.472656 53.222656 26.644531 53.367188 26.832031 C 53.660156 27.207031 53.984375 27.582031 54.28125 28.003906 C 54.4375 28.214844 54.589844 28.425781 54.746094 28.640625 C 54.902344 28.855469 55.046875 29.082031 55.199219 29.304688 C 55.511719 29.75 55.789062 30.222656 56.078125 30.6875 C 56.226562 30.917969 56.351562 31.164062 56.488281 31.402344 C 56.621094 31.648438 56.761719 31.875 56.875 32.121094 C 57.125 32.59375 57.339844 33.082031 57.519531 33.550781 C 57.601562 33.792969 57.683594 34.019531 57.753906 34.253906 C 57.8125 34.496094 57.871094 34.734375 57.925781 34.964844 C 57.949219 35.058594 57.960938 35.183594 57.976562 35.292969 C 57.996094 35.402344 58.007812 35.511719 58.015625 35.621094 C 58.023438 35.726562 58.03125 35.835938 58.039062 35.941406 C 58.042969 36.046875 58.042969 36.148438 58.046875 36.25 C 58.054688 36.65625 58.035156 37.027344 58.007812 37.355469 C 58 37.519531 57.972656 37.671875 57.953125 37.8125 C 57.945312 37.878906 57.933594 37.949219 57.925781 38.011719 C 57.914062 38.074219 57.902344 38.132812 57.890625 38.1875 C 57.867188 38.300781 57.84375 38.398438 57.828125 38.484375 C 57.796875 38.574219 57.773438 38.648438 57.753906 38.710938 C 57.714844 38.824219 57.695312 38.886719 57.691406 38.894531 C 57.355469 39.253906 56.960938 39.566406 56.535156 39.828125 C 55.996094 40.152344 55.398438 40.40625 54.785156 40.5625 C 54.5625 40.617188 54.332031 40.660156 54.105469 40.699219 C 54.109375 40.671875 54.113281 40.644531 54.117188 40.613281 C 54.140625 40.402344 54.171875 40.09375 54.148438 39.703125 C 54.128906 39.3125 54.066406 38.84375 53.9375 38.320312 C 53.8125 37.800781 53.617188 37.230469 53.355469 36.628906 C 53.09375 36.027344 52.757812 35.410156 52.386719 34.769531 C 52.011719 34.128906 51.59375 33.46875 51.128906 32.808594 C 50.207031 31.484375 49.105469 30.152344 47.890625 28.929688 C 46.679688 27.703125 45.355469 26.597656 44.039062 25.660156 C 43.382812 25.195312 42.730469 24.765625 42.097656 24.390625 C 41.460938 24.011719 40.851562 23.671875 40.273438 23.382812 C 39.699219 23.09375 39.164062 22.84375 38.683594 22.636719 C 38.203125 22.429688 37.777344 22.261719 37.425781 22.128906 C 37.070312 21.996094 36.792969 21.898438 36.605469 21.835938 C 36.535156 21.808594 36.480469 21.792969 36.4375 21.777344 C 36.570312 21.566406 36.703125 21.351562 36.835938 21.128906 Z M 59.703125 35.132812 C 59.5 34.0625 59.175781 33.269531 58.9375 32.742188 C 58.816406 32.476562 58.710938 32.28125 58.636719 32.152344 C 58.566406 32.019531 58.53125 31.953125 58.53125 31.953125 C 58.53125 31.953125 58.566406 32.019531 58.632812 32.15625 C 58.699219 32.289062 58.796875 32.488281 58.90625 32.753906 C 59.125 33.289062 59.414062 34.089844 59.585938 35.152344 C 59.761719 36.207031 59.808594 37.53125 59.5 38.992188 C 59.195312 40.445312 58.507812 42.019531 57.324219 43.414062 C 56.738281 44.113281 56.023438 44.746094 55.21875 45.300781 C 54.808594 45.566406 54.375 45.820312 53.925781 46.03125 C 53.816406 46.085938 53.691406 46.132812 53.574219 46.183594 L 53.394531 46.261719 L 53.347656 46.28125 C 53.34375 46.28125 53.328125 46.289062 53.332031 46.285156 L 53.308594 46.292969 L 53.21875 46.324219 C 52.972656 46.40625 52.726562 46.488281 52.480469 46.570312 C 51.484375 46.859375 50.425781 47.070312 49.328125 47.136719 C 49.191406 47.148438 49.054688 47.160156 48.917969 47.171875 C 48.78125 47.183594 48.640625 47.179688 48.503906 47.179688 C 48.226562 47.183594 47.949219 47.1875 47.667969 47.191406 C 47.109375 47.15625 46.542969 47.148438 45.980469 47.066406 C 45.421875 47.019531 44.847656 46.898438 44.269531 46.792969 C 43.722656 46.65625 43.136719 46.523438 42.570312 46.367188 C 41.4375 46.039062 40.304688 45.664062 39.191406 45.203125 C 38.910156 45.089844 38.632812 44.972656 38.351562 44.859375 C 38.078125 44.738281 37.804688 44.605469 37.527344 44.480469 C 37.253906 44.347656 36.972656 44.230469 36.703125 44.089844 L 35.890625 43.671875 C 35.34375 43.402344 34.820312 43.089844 34.28125 42.800781 C 33.75 42.5 33.222656 42.171875 32.691406 41.859375 C 30.628906 40.578125 28.753906 38.972656 27.167969 37.171875 C 25.589844 35.363281 24.289062 33.363281 23.328125 31.289062 C 22.855469 30.257812 22.4375 29.195312 22.121094 28.148438 C 22.046875 27.886719 21.976562 27.625 21.902344 27.363281 C 21.851562 27.101562 21.796875 26.84375 21.742188 26.585938 L 21.703125 26.390625 L 21.679688 26.1875 C 21.660156 26.054688 21.644531 25.921875 21.628906 25.789062 C 21.617188 25.660156 21.59375 25.507812 21.585938 25.402344 C 21.578125 25.269531 21.574219 25.140625 21.566406 25.011719 C 21.53125 23.980469 21.675781 22.972656 21.925781 22.03125 C 22.191406 21.09375 22.570312 20.222656 23.03125 19.441406 C 23.5 18.664062 24.042969 17.988281 24.636719 17.40625 C 25.226562 16.828125 25.859375 16.355469 26.492188 15.976562 C 27.761719 15.222656 29.019531 14.839844 30.066406 14.65625 C 31.117188 14.480469 31.964844 14.484375 32.53125 14.527344 C 32.8125 14.539062 33.035156 14.574219 33.183594 14.589844 C 33.234375 14.597656 33.277344 14.605469 33.3125 14.609375 C 33.273438 14.671875 33.230469 14.734375 33.191406 14.796875 L 33.191406 14.792969 C 33.191406 14.792969 33.109375 14.773438 32.957031 14.726562 C 32.796875 14.683594 32.550781 14.632812 32.234375 14.597656 C 31.601562 14.539062 30.648438 14.5625 29.511719 14.925781 C 28.949219 15.113281 28.332031 15.386719 27.75 15.8125 C 27.160156 16.246094 26.613281 16.84375 26.246094 17.609375 C 25.878906 18.371094 25.671875 19.265625 25.679688 20.203125 C 25.6875 21.152344 25.925781 22.128906 26.3125 23.070312 C 26.703125 24.015625 27.234375 24.933594 27.832031 25.839844 C 28.425781 26.742188 29.085938 27.660156 29.808594 28.558594 C 31.253906 30.355469 32.953125 32.113281 34.902344 33.710938 C 36.847656 35.304688 39.027344 36.753906 41.382812 37.953125 C 43.738281 39.160156 46.265625 40.109375 48.875 40.757812 C 50.175781 41.078125 51.523438 41.316406 52.882812 41.292969 C 53.5625 41.28125 54.246094 41.199219 54.90625 41.03125 C 55.570312 40.859375 56.203125 40.59375 56.785156 40.238281 C 57.363281 39.882812 57.890625 39.4375 58.316406 38.902344 C 58.742188 38.375 59.0625 37.75 59.226562 37.097656 C 59.394531 36.4375 59.414062 35.761719 59.332031 35.109375 C 59.25 34.457031 59.074219 33.828125 58.851562 33.230469 C 58.628906 32.632812 58.359375 32.0625 58.066406 31.515625 C 57.921875 31.242188 57.765625 30.976562 57.621094 30.710938 C 57.464844 30.445312 57.308594 30.183594 57.152344 29.925781 C 56.511719 28.894531 55.832031 27.925781 55.121094 27.015625 C 53.703125 25.203125 52.171875 23.636719 50.644531 22.328125 C 49.117188 21.019531 47.605469 19.957031 46.210938 19.117188 C 44.808594 18.273438 43.53125 17.644531 42.453125 17.183594 C 41.375 16.726562 40.507812 16.421875 39.910156 16.234375 C 39.609375 16.132812 39.378906 16.070312 39.222656 16.023438 C 39.207031 16.019531 39.195312 16.015625 39.183594 16.011719 C 39.207031 15.933594 39.234375 15.855469 39.257812 15.777344 C 39.546875 14.8125 39.734375 13.8125 39.773438 12.816406 C 39.8125 11.820312 39.699219 10.835938 39.472656 9.921875 C 39.25 9 38.914062 8.144531 38.496094 7.386719 C 38.085938 6.625 37.597656 5.960938 37.085938 5.410156 C 36.574219 4.855469 36.042969 4.410156 35.53125 4.078125 C 35.023438 3.738281 34.546875 3.5 34.144531 3.328125 C 33.742188 3.160156 33.417969 3.054688 33.191406 2.992188 C 32.96875 2.929688 32.847656 2.898438 32.847656 2.898438 C 32.847656 2.898438 32.964844 2.933594 33.1875 3.007812 C 33.40625 3.082031 33.726562 3.207031 34.117188 3.386719 C 34.511719 3.574219 34.96875 3.832031 35.457031 4.183594 C 35.945312 4.535156 36.453125 4.988281 36.9375 5.542969 C 37.421875 6.097656 37.878906 6.757812 38.261719 7.511719 C 38.640625 8.261719 38.953125 9.101562 39.15625 9.996094 C 39.359375 10.890625 39.457031 11.839844 39.402344 12.796875 C 39.347656 13.757812 39.148438 14.722656 38.867188 15.660156 C 38.582031 16.601562 38.210938 17.511719 37.796875 18.390625 C 37.382812 19.269531 36.933594 20.113281 36.457031 20.90625 C 35.984375 21.699219 35.492188 22.445312 34.996094 23.132812 C 34.496094 23.816406 33.992188 24.441406 33.511719 25 C 33.019531 25.554688 32.566406 26.058594 32.140625 26.480469 C 31.929688 26.695312 31.726562 26.894531 31.535156 27.070312 C 31.347656 27.25 31.175781 27.414062 31.011719 27.554688 C 30.695312 27.84375 30.4375 28.066406 30.257812 28.214844 C 30.238281 28.230469 30.226562 28.242188 30.210938 28.253906 C 30.207031 28.25 30.203125 28.246094 30.199219 28.242188 C 29.984375 27.976562 29.777344 27.707031 29.570312 27.441406 C 29.625 27.402344 29.6875 27.359375 29.757812 27.304688 C 29.882812 27.214844 30.035156 27.101562 30.210938 26.972656 C 30.296875 26.90625 30.390625 26.839844 30.488281 26.765625 C 30.582031 26.683594 30.683594 26.597656 30.785156 26.511719 C 30.992188 26.332031 31.214844 26.136719 31.449219 25.933594 C 31.570312 25.835938 31.679688 25.71875 31.796875 25.605469 C 31.910156 25.488281 32.027344 25.371094 32.144531 25.25 C 32.382812 25.007812 32.632812 24.765625 32.855469 24.492188 C 33.085938 24.222656 33.320312 23.949219 33.550781 23.675781 C 33.765625 23.386719 33.980469 23.097656 34.1875 22.8125 C 34.40625 22.535156 34.585938 22.238281 34.765625 21.953125 C 34.941406 21.667969 35.128906 21.402344 35.273438 21.128906 C 35.417969 20.859375 35.554688 20.601562 35.683594 20.363281 C 35.746094 20.246094 35.808594 20.132812 35.867188 20.027344 C 35.914062 19.914062 35.960938 19.808594 36.007812 19.707031 C 36.09375 19.507812 36.171875 19.335938 36.234375 19.191406 C 36.363281 18.90625 36.433594 18.746094 36.433594 18.746094 C 36.433594 18.746094 36.355469 18.902344 36.214844 19.183594 C 36.144531 19.324219 36.0625 19.492188 35.964844 19.6875 C 35.914062 19.785156 35.863281 19.886719 35.8125 19.996094 C 35.746094 20.101562 35.683594 20.214844 35.613281 20.328125 C 35.476562 20.558594 35.328125 20.804688 35.171875 21.070312 C 35.019531 21.332031 34.820312 21.585938 34.632812 21.863281 C 34.441406 22.136719 34.253906 22.425781 34.023438 22.691406 C 33.804688 22.960938 33.582031 23.238281 33.359375 23.515625 C 33.117188 23.773438 32.875 24.035156 32.636719 24.289062 C 32.40625 24.550781 32.148438 24.777344 31.90625 25.003906 C 31.785156 25.117188 31.664062 25.226562 31.546875 25.335938 C 31.429688 25.441406 31.316406 25.550781 31.195312 25.640625 C 30.960938 25.828125 30.734375 26.007812 30.53125 26.171875 C 30.429688 26.253906 30.328125 26.332031 30.234375 26.40625 C 30.132812 26.472656 30.039062 26.539062 29.949219 26.597656 C 29.765625 26.71875 29.609375 26.824219 29.480469 26.910156 C 29.402344 26.964844 29.332031 27.011719 29.277344 27.046875 C 28.914062 26.558594 28.566406 26.066406 28.238281 25.570312 C 28.191406 25.496094 28.140625 25.417969 28.089844 25.34375 C 28.191406 25.269531 28.363281 25.136719 28.597656 24.960938 C 28.789062 24.820312 29.019531 24.632812 29.277344 24.417969 C 29.410156 24.308594 29.546875 24.195312 29.695312 24.074219 C 29.835938 23.949219 29.984375 23.816406 30.136719 23.675781 C 30.289062 23.535156 30.457031 23.394531 30.617188 23.242188 C 30.777344 23.085938 30.941406 22.925781 31.113281 22.757812 C 31.285156 22.59375 31.453125 22.417969 31.621094 22.234375 C 31.792969 22.054688 31.96875 21.871094 32.144531 21.679688 C 32.480469 21.285156 32.839844 20.890625 33.171875 20.460938 C 33.519531 20.039062 33.835938 19.589844 34.164062 19.144531 C 34.46875 18.6875 34.789062 18.234375 35.0625 17.769531 C 35.355469 17.308594 35.605469 16.839844 35.859375 16.390625 C 35.980469 16.160156 36.09375 15.933594 36.203125 15.710938 C 36.320312 15.492188 36.425781 15.273438 36.519531 15.058594 C 36.617188 14.839844 36.714844 14.632812 36.804688 14.429688 C 36.894531 14.226562 36.972656 14.027344 37.050781 13.835938 C 37.125 13.644531 37.199219 13.460938 37.269531 13.285156 C 37.332031 13.109375 37.394531 12.941406 37.449219 12.78125 C 37.5625 12.46875 37.660156 12.191406 37.726562 11.960938 C 37.867188 11.5 37.949219 11.238281 37.949219 11.238281 C 37.949219 11.238281 37.859375 11.5 37.707031 11.953125 C 37.636719 12.183594 37.53125 12.457031 37.410156 12.769531 C 37.351562 12.925781 37.289062 13.089844 37.21875 13.265625 C 37.144531 13.4375 37.066406 13.621094 36.988281 13.808594 C 36.902344 13.996094 36.824219 14.195312 36.730469 14.394531 C 36.632812 14.59375 36.53125 14.800781 36.429688 15.015625 C 36.332031 15.226562 36.21875 15.441406 36.097656 15.65625 C 35.980469 15.875 35.863281 16.097656 35.738281 16.324219 C 35.472656 16.765625 35.214844 17.226562 34.914062 17.671875 C 34.628906 18.128906 34.300781 18.570312 33.984375 19.015625 C 33.648438 19.449219 33.324219 19.890625 32.972656 20.292969 C 32.632812 20.710938 32.265625 21.097656 31.921875 21.476562 C 31.746094 21.660156 31.566406 21.835938 31.394531 22.015625 C 31.222656 22.191406 31.050781 22.359375 30.878906 22.515625 C 30.707031 22.675781 30.539062 22.832031 30.378906 22.980469 C 30.214844 23.128906 30.046875 23.265625 29.894531 23.398438 C 29.738281 23.53125 29.589844 23.65625 29.445312 23.777344 C 29.300781 23.894531 29.164062 24 29.03125 24.101562 C 28.773438 24.308594 28.546875 24.484375 28.347656 24.625 C 28.125 24.78125 27.960938 24.902344 27.855469 24.976562 C 27.570312 24.523438 27.3125 24.070312 27.078125 23.617188 C 29.195312 21.816406 30.992188 19.984375 32.746094 17.808594 C 34.5625 15.546875 35.878906 12.871094 36.191406 9.984375 C 36.363281 8.378906 36.152344 6.894531 35.335938 5.5 C 34.84375 4.65625 34.238281 3.953125 33.480469 3.484375 C 30.03125 1.058594 20.453125 3.339844 13.226562 9.867188 C 8.984375 13.699219 3.902344 19.253906 3.78125 23.96875 C 3.738281 25.609375 4.308594 27.035156 5.476562 28.199219 C 6.414062 29.136719 8.078125 29.585938 10.128906 29.585938 C 13.316406 29.585938 17.429688 28.5 21.175781 26.476562 L 21.210938 26.65625 C 21.261719 26.933594 21.3125 27.210938 21.371094 27.488281 C 21.445312 27.761719 21.515625 28.03125 21.589844 28.304688 C 21.660156 28.578125 21.757812 28.84375 21.84375 29.117188 L 21.90625 29.320312 L 21.925781 29.371094 L 21.945312 29.429688 L 21.980469 29.527344 L 22.128906 29.925781 L 22.277344 30.328125 C 22.332031 30.460938 22.390625 30.59375 22.445312 30.730469 C 22.5625 30.996094 22.667969 31.273438 22.796875 31.535156 C 23.027344 32.035156 23.28125 32.53125 23.550781 33.019531 C 23.496094 33.039062 23.433594 33.0625 23.351562 33.085938 C 23.113281 33.167969 22.761719 33.285156 22.3125 33.429688 C 21.867188 33.574219 21.316406 33.730469 20.683594 33.90625 C 20.054688 34.082031 19.335938 34.261719 18.550781 34.425781 C 17.761719 34.585938 16.90625 34.746094 15.992188 34.851562 C 15.765625 34.878906 15.535156 34.898438 15.300781 34.921875 C 15.066406 34.9375 14.828125 34.953125 14.589844 34.96875 C 14.347656 34.972656 14.113281 34.984375 13.863281 34.988281 C 13.621094 34.984375 13.355469 34.984375 13.121094 34.976562 C 12.128906 34.941406 11.105469 34.789062 10.101562 34.507812 C 9.097656 34.226562 8.113281 33.808594 7.21875 33.25 C 6.324219 32.6875 5.519531 31.980469 4.894531 31.152344 C 4.269531 30.324219 3.8125 29.390625 3.535156 28.4375 C 3.261719 27.480469 3.148438 26.511719 3.160156 25.59375 C 3.171875 24.679688 3.3125 23.8125 3.507812 23.03125 C 3.90625 21.46875 4.542969 20.261719 5.019531 19.449219 C 5.257812 19.042969 5.464844 18.734375 5.605469 18.523438 C 5.753906 18.316406 5.828125 18.203125 5.828125 18.203125 C 5.828125 18.203125 5.746094 18.3125 5.59375 18.511719 C 5.441406 18.71875 5.21875 19.015625 4.960938 19.414062 C 4.453125 20.210938 3.769531 21.402344 3.308594 22.976562 C 3.078125 23.765625 2.917969 24.640625 2.878906 25.585938 C 2.84375 26.527344 2.933594 27.53125 3.195312 28.53125 C 3.457031 29.527344 3.902344 30.527344 4.550781 31.410156 C 5.199219 32.289062 6.03125 33.046875 6.960938 33.648438 C 7.890625 34.253906 8.914062 34.703125 9.957031 35.011719 C 11 35.320312 12.0625 35.492188 13.097656 35.542969 C 13.367188 35.5625 13.605469 35.550781 13.859375 35.558594 C 14.109375 35.554688 14.367188 35.542969 14.617188 35.535156 C 14.863281 35.519531 15.105469 35.503906 15.347656 35.484375 C 15.589844 35.460938 15.824219 35.4375 16.058594 35.410156 C 16.992188 35.296875 17.871094 35.144531 18.667969 34.953125 C 19.460938 34.761719 20.183594 34.558594 20.820312 34.367188 C 21.453125 34.171875 21.996094 33.976562 22.445312 33.8125 C 22.890625 33.644531 23.238281 33.511719 23.472656 33.410156 C 23.574219 33.367188 23.652344 33.335938 23.710938 33.308594 C 24.554688 34.800781 25.558594 36.234375 26.71875 37.566406 C 28.339844 39.414062 30.25 41.054688 32.378906 42.382812 C 32.910156 42.699219 33.429688 43.023438 33.972656 43.328125 L 34.785156 43.78125 L 35.195312 44.007812 L 35.609375 44.214844 L 36.4375 44.632812 C 36.714844 44.773438 37 44.890625 37.277344 45.023438 C 37.558594 45.148438 37.835938 45.28125 38.121094 45.402344 C 38.40625 45.515625 38.691406 45.628906 38.972656 45.746094 C 40.109375 46.203125 41.269531 46.574219 42.425781 46.902344 C 42.710938 46.988281 43.007812 47.046875 43.296875 47.117188 C 43.589844 47.1875 43.882812 47.257812 44.171875 47.324219 C 44.753906 47.421875 45.320312 47.539062 45.914062 47.589844 C 46.503906 47.671875 47.082031 47.671875 47.660156 47.703125 C 47.949219 47.699219 48.234375 47.691406 48.519531 47.6875 C 48.664062 47.683594 48.804688 47.683594 48.945312 47.675781 C 49.085938 47.660156 49.230469 47.648438 49.371094 47.636719 C 50.5 47.5625 51.585938 47.316406 52.617188 47 C 52.871094 46.910156 53.121094 46.820312 53.375 46.730469 L 53.46875 46.695312 L 53.492188 46.6875 L 53.519531 46.675781 L 53.5625 46.65625 L 53.742188 46.578125 C 53.859375 46.523438 53.980469 46.476562 54.097656 46.414062 C 54.578125 46.179688 55.015625 45.910156 55.4375 45.625 C 56.265625 45.035156 56.992188 44.363281 57.582031 43.628906 C 58.175781 42.898438 58.65625 42.128906 59.003906 41.347656 C 59.359375 40.566406 59.585938 39.785156 59.722656 39.035156 C 59.992188 37.535156 59.90625 36.195312 59.703125 35.132812 " fill-opacity="1" fill-rule="nonzero"/></g><path fill="#4b4e40" d="M 48.636719 44.984375 C 48.042969 44.949219 47.375 44.882812 46.652344 44.789062 C 45.925781 44.691406 45.148438 44.546875 44.332031 44.371094 C 43.519531 44.195312 42.667969 43.960938 41.796875 43.691406 C 40.925781 43.425781 40.042969 43.101562 39.160156 42.738281 C 38.28125 42.375 37.398438 41.960938 36.554688 41.5 C 36.125 41.265625 35.71875 41.015625 35.300781 40.769531 C 34.894531 40.507812 34.484375 40.253906 34.097656 39.976562 C 33.316406 39.433594 32.566406 38.867188 31.875 38.277344 C 31.175781 37.691406 30.53125 37.09375 29.9375 36.503906 C 29.789062 36.355469 29.644531 36.210938 29.503906 36.066406 C 29.363281 35.917969 29.226562 35.773438 29.09375 35.628906 C 28.816406 35.347656 28.570312 35.058594 28.324219 34.785156 C 28.082031 34.511719 27.863281 34.242188 27.644531 33.988281 C 27.4375 33.726562 27.238281 33.480469 27.050781 33.25 C 26.6875 32.777344 26.375 32.363281 26.125 32.015625 C 25.871094 31.667969 25.683594 31.390625 25.550781 31.199219 C 25.421875 31.011719 25.351562 30.910156 25.351562 30.910156 C 25.351562 30.910156 25.410156 31.019531 25.519531 31.21875 C 25.632812 31.421875 25.789062 31.71875 26.015625 32.085938 C 26.234375 32.457031 26.515625 32.898438 26.847656 33.398438 C 27.019531 33.644531 27.199219 33.90625 27.394531 34.183594 C 27.597656 34.449219 27.804688 34.738281 28.035156 35.027344 C 28.492188 35.605469 29.003906 36.226562 29.585938 36.84375 C 29.871094 37.160156 30.183594 37.460938 30.496094 37.785156 C 30.820312 38.085938 31.148438 38.40625 31.5 38.710938 C 31.84375 39.019531 32.210938 39.316406 32.578125 39.621094 C 32.957031 39.914062 33.339844 40.210938 33.742188 40.488281 C 34.136719 40.773438 34.550781 41.039062 34.964844 41.308594 C 35.386719 41.558594 35.816406 41.824219 36.25 42.054688 C 37.128906 42.527344 38.027344 42.941406 38.929688 43.304688 C 39.839844 43.664062 40.746094 43.96875 41.640625 44.222656 C 42.53125 44.480469 43.40625 44.671875 44.242188 44.828125 C 45.078125 44.980469 45.875 45.078125 46.613281 45.140625 C 47.351562 45.207031 48.03125 45.222656 48.628906 45.21875 C 49.230469 45.214844 49.753906 45.175781 50.183594 45.140625 C 50.609375 45.101562 50.945312 45.050781 51.171875 45.015625 C 51.398438 44.976562 51.519531 44.957031 51.519531 44.957031 C 51.519531 44.957031 51.398438 44.964844 51.167969 44.980469 C 50.941406 44.996094 50.601562 45.007812 50.175781 45.015625 C 49.746094 45.023438 49.230469 45.015625 48.636719 44.984375 " fill-opacity="1" fill-rule="nonzero"/><path fill="#4b4e40" d="M 22.347656 23.21875 C 22.421875 22.890625 22.476562 22.554688 22.570312 22.238281 C 22.644531 21.914062 22.757812 21.605469 22.855469 21.304688 C 22.910156 21.160156 22.96875 21.011719 23.023438 20.871094 C 23.050781 20.800781 23.078125 20.730469 23.105469 20.660156 C 23.132812 20.59375 23.164062 20.527344 23.195312 20.457031 C 23.25 20.328125 23.308594 20.199219 23.363281 20.074219 C 23.425781 19.949219 23.488281 19.832031 23.542969 19.71875 C 23.65625 19.492188 23.773438 19.292969 23.875 19.113281 C 23.976562 18.933594 24.070312 18.777344 24.152344 18.652344 C 24.3125 18.402344 24.40625 18.257812 24.40625 18.257812 C 24.40625 18.257812 24.300781 18.394531 24.117188 18.628906 C 24.023438 18.746094 23.917969 18.890625 23.804688 19.066406 C 23.746094 19.152344 23.683594 19.246094 23.617188 19.339844 C 23.554688 19.441406 23.496094 19.546875 23.433594 19.660156 C 23.367188 19.769531 23.300781 19.886719 23.234375 20.007812 C 23.171875 20.128906 23.109375 20.257812 23.042969 20.390625 C 22.902344 20.648438 22.796875 20.945312 22.671875 21.238281 C 22.570312 21.542969 22.453125 21.855469 22.371094 22.183594 C 22.269531 22.507812 22.207031 22.84375 22.140625 23.179688 C 22.09375 23.519531 22.035156 23.859375 22.019531 24.199219 C 21.984375 24.535156 21.988281 24.867188 21.980469 25.1875 C 21.984375 25.347656 21.996094 25.507812 22.003906 25.660156 C 22.007812 25.738281 22.011719 25.816406 22.015625 25.890625 C 22.027344 25.964844 22.035156 26.039062 22.042969 26.113281 C 22.058594 26.257812 22.078125 26.398438 22.09375 26.539062 C 22.113281 26.675781 22.140625 26.804688 22.160156 26.933594 C 22.199219 27.1875 22.261719 27.414062 22.3125 27.613281 C 22.363281 27.816406 22.410156 27.992188 22.460938 28.132812 C 22.554688 28.414062 22.609375 28.578125 22.609375 28.578125 C 22.609375 28.578125 22.570312 28.410156 22.5 28.121094 C 22.460938 27.976562 22.421875 27.800781 22.386719 27.597656 C 22.367188 27.496094 22.347656 27.386719 22.328125 27.273438 C 22.308594 27.160156 22.296875 27.039062 22.277344 26.914062 C 22.261719 26.789062 22.242188 26.65625 22.226562 26.519531 C 22.214844 26.382812 22.203125 26.242188 22.195312 26.097656 C 22.164062 25.808594 22.179688 25.503906 22.167969 25.1875 C 22.179688 24.871094 22.175781 24.542969 22.21875 24.214844 C 22.238281 23.882812 22.300781 23.550781 22.347656 23.21875 " fill-opacity="1" fill-rule="nonzero"/><g clip-path="url(#9b6d375ac0)"><path fill="#4b4e40" d="M 58.195312 39.632812 C 58.164062 39.667969 58.132812 39.703125 58.101562 39.738281 C 57.640625 40.234375 56.964844 40.734375 56.089844 41.089844 C 55.21875 41.453125 54.15625 41.652344 53 41.667969 C 51.835938 41.6875 50.582031 41.507812 49.285156 41.191406 C 47.992188 40.871094 46.640625 40.457031 45.277344 39.941406 C 43.910156 39.433594 42.527344 38.828125 41.164062 38.132812 C 39.804688 37.429688 38.464844 36.640625 37.179688 35.765625 C 35.894531 34.894531 34.664062 33.941406 33.503906 32.945312 C 32.34375 31.949219 31.265625 30.890625 30.285156 29.816406 C 29.792969 29.277344 29.328125 28.730469 28.882812 28.191406 C 28.449219 27.648438 28.023438 27.097656 27.628906 26.5625 C 26.84375 25.484375 26.183594 24.402344 25.753906 23.328125 C 25.324219 22.253906 25.128906 21.191406 25.160156 20.253906 C 25.183594 19.3125 25.414062 18.503906 25.699219 17.894531 C 25.988281 17.277344 26.332031 16.859375 26.585938 16.597656 C 26.710938 16.464844 26.816406 16.371094 26.886719 16.3125 C 26.960938 16.25 27 16.21875 27 16.21875 C 27 16.21875 26.960938 16.25 26.882812 16.308594 C 26.808594 16.363281 26.699219 16.453125 26.566406 16.578125 C 26.300781 16.832031 25.929688 17.238281 25.621094 17.855469 C 25.304688 18.464844 25.046875 19.28125 24.988281 20.246094 C 24.914062 21.210938 25.101562 22.3125 25.519531 23.417969 C 25.9375 24.53125 26.585938 25.648438 27.359375 26.753906 C 28.128906 27.859375 29.023438 28.972656 30.007812 30.066406 C 30.992188 31.160156 32.074219 32.234375 33.238281 33.25 C 34.03125 33.949219 34.871094 34.613281 35.738281 35.242188 C 35.726562 35.234375 35.714844 35.226562 35.703125 35.222656 C 38.316406 37.210938 40.617188 38.863281 43.613281 40.203125 C 46.609375 41.546875 49.859375 42.445312 53.140625 42.425781 C 54.53125 42.417969 56.046875 42.117188 57.261719 41.4375 C 58.472656 40.765625 59.191406 39.3125 59.207031 37.925781 C 59.207031 37.925781 59.207031 37.921875 59.207031 37.921875 C 59.207031 37.921875 59.207031 37.925781 59.207031 37.925781 C 59.207031 37.917969 59.207031 37.910156 59.207031 37.90625 C 58.953125 38.523438 58.613281 39.113281 58.195312 39.632812 " fill-opacity="1" fill-rule="nonzero"/></g><path fill="#4b4e40" d="M 42.007812 23.765625 C 42.355469 24 42.746094 24.261719 43.175781 24.546875 C 43.605469 24.835938 44.054688 25.167969 44.535156 25.507812 C 44.777344 25.671875 45.011719 25.867188 45.257812 26.054688 C 45.503906 26.242188 45.757812 26.433594 46.011719 26.628906 C 46.515625 27.027344 47.011719 27.46875 47.527344 27.902344 C 47.773438 28.132812 48.019531 28.367188 48.265625 28.601562 C 48.503906 28.84375 48.773438 29.0625 48.996094 29.320312 C 49.230469 29.570312 49.460938 29.824219 49.695312 30.074219 C 49.808594 30.199219 49.929688 30.320312 50.039062 30.449219 C 50.144531 30.582031 50.25 30.714844 50.355469 30.84375 C 50.5625 31.109375 50.773438 31.371094 50.976562 31.628906 C 51.1875 31.878906 51.367188 32.160156 51.558594 32.417969 C 51.929688 32.941406 52.28125 33.453125 52.589844 33.953125 C 52.753906 34.199219 52.886719 34.453125 53.027344 34.691406 C 53.097656 34.8125 53.164062 34.929688 53.230469 35.046875 C 53.289062 35.164062 53.347656 35.28125 53.40625 35.398438 C 53.648438 35.851562 53.828125 36.285156 53.996094 36.667969 C 54.148438 37.058594 54.261719 37.40625 54.363281 37.6875 C 54.519531 38.269531 54.609375 38.597656 54.609375 38.597656 C 54.609375 38.597656 54.535156 38.261719 54.410156 37.671875 C 54.320312 37.386719 54.222656 37.03125 54.082031 36.636719 C 53.929688 36.246094 53.769531 35.796875 53.535156 35.335938 C 53.476562 35.21875 53.421875 35.097656 53.363281 34.976562 C 53.300781 34.859375 53.234375 34.738281 53.167969 34.613281 C 53.035156 34.367188 52.902344 34.109375 52.746094 33.859375 C 52.445312 33.347656 52.105469 32.820312 51.742188 32.289062 C 51.550781 32.027344 51.375 31.75 51.164062 31.488281 C 50.957031 31.226562 50.75 30.960938 50.539062 30.695312 C 50.433594 30.558594 50.328125 30.425781 50.222656 30.289062 C 50.113281 30.160156 49.992188 30.035156 49.878906 29.90625 C 49.648438 29.652344 49.414062 29.398438 49.179688 29.144531 C 48.953125 28.878906 48.691406 28.65625 48.445312 28.414062 C 48.191406 28.179688 47.941406 27.945312 47.695312 27.714844 C 47.171875 27.28125 46.664062 26.84375 46.15625 26.445312 C 45.636719 26.0625 45.144531 25.671875 44.652344 25.34375 C 44.160156 25.015625 43.699219 24.695312 43.261719 24.417969 C 42.824219 24.144531 42.421875 23.894531 42.0625 23.675781 C 41.707031 23.457031 41.382812 23.28125 41.125 23.128906 C 40.601562 22.832031 40.300781 22.664062 40.300781 22.664062 C 40.300781 22.664062 40.589844 22.851562 41.097656 23.175781 C 41.347656 23.339844 41.660156 23.53125 42.007812 23.765625 " fill-opacity="1" fill-rule="nonzero"/></svg>